<svg width="181" height="109" viewBox="0 0 181 109" fill="none" xmlns="http://www.w3.org/2000/svg">
<g clip-path="url(#clip0_268_533)">
<path d="M87.3166 108C110.33 108 128.987 89.3499 128.987 66.3437C128.987 43.3374 110.33 24.6871 87.3166 24.6871C64.3028 24.6871 45.6465 43.3374 45.6465 66.3437C45.6465 89.3499 64.3028 108 87.3166 108Z" fill="white"/>
<path d="M87.1974 108.268C45.969 109.214 45.0649 89.6337 45.0649 66.3435C45.0649 43.0539 64.0189 24.1061 87.3164 24.1061C110.614 24.1061 129.568 43.0539 129.568 66.3435C129.568 89.6337 110.495 108.268 87.1974 108.268ZM87.3164 25.2684C64.6598 25.2684 46.6091 43.6978 46.2275 66.3435C45.8726 87.4069 68.2562 113.691 87.3164 107.419C97.5378 96.1658 126.436 84.0451 128.405 66.3435C130.909 43.8333 109.973 25.2684 87.3164 25.2684Z" fill="#006B80"/>
<path d="M81.6317 88.024C80.9121 88.024 80.2024 87.8564 79.5589 87.5347C78.9153 87.2129 78.3555 86.7457 77.9239 86.1701L66.5557 71.0171C66.1901 70.5304 65.9241 69.9764 65.7728 69.3868C65.6215 68.7972 65.5879 68.1836 65.6739 67.581C65.7599 66.9784 65.9638 66.3987 66.274 65.8749C66.5841 65.3511 66.9945 64.8936 67.4816 64.5284C67.9687 64.1632 68.523 63.8975 69.1129 63.7466C69.7027 63.5956 70.3165 63.5623 70.9193 63.6485C71.522 63.7347 72.1018 63.9389 72.6257 64.2492C73.1495 64.5595 73.607 64.9699 73.972 65.4571L81.4095 75.3697L100.512 46.7261C101.194 45.7042 102.254 44.995 103.459 44.7544C104.665 44.5138 105.916 44.7614 106.938 45.4429C107.961 46.1243 108.671 47.1839 108.912 48.3885C109.154 49.5931 108.907 50.8443 108.225 51.8668L85.4889 85.9604C85.0776 86.577 84.5244 87.0861 83.8758 87.4448C83.2271 87.8036 82.5018 88.0017 81.7607 88.0225C81.7177 88.0232 81.6747 88.024 81.6317 88.024Z" fill="#F2F2F2"/>
<path d="M1.32843e-06 108.3C-0.000116218 108.339 0.00756823 108.379 0.0226103 108.415C0.0376525 108.451 0.0597568 108.485 0.0876512 108.512C0.115546 108.54 0.148677 108.562 0.185145 108.577C0.221613 108.592 0.260698 108.6 0.300145 108.6H180.7C180.779 108.6 180.856 108.568 180.912 108.512C180.968 108.456 181 108.38 181 108.3C181 108.22 180.968 108.144 180.912 108.088C180.856 108.032 180.779 108 180.7 108H0.300145C0.260698 108 0.221616 108.008 0.185149 108.023C0.148682 108.038 0.115549 108.06 0.0876551 108.088C0.0597609 108.116 0.0376568 108.149 0.0226142 108.185C0.00757161 108.222 -0.000114879 108.261 1.32843e-06 108.3Z" fill="#CCCCCC"/>
<path d="M113.926 105.359H111.486L110.326 95.9503L113.927 95.9506L113.926 105.359Z" fill="#FFB6B6"/>
<path d="M114.012 107.903L106.509 107.903V107.808C106.509 107.034 106.817 106.291 107.364 105.744C107.912 105.196 108.655 104.889 109.429 104.889L110.8 103.849L113.357 104.889L114.012 104.889L114.012 107.903Z" fill="#2F2E41"/>
<path d="M103.318 93.6986L101.065 94.633L96.387 86.3868L99.7135 85.0079L103.318 93.6986Z" fill="#FFB6B6"/>
<path d="M104.373 96.0162L97.4419 98.8893L97.4056 98.8017C97.1089 98.0865 97.1086 97.2827 97.4047 96.5672C97.7008 95.8518 98.2691 95.2832 98.9845 94.9865L99.8524 93.5015L102.613 93.4825L103.218 93.2317L104.373 96.0162Z" fill="#2F2E41"/>
<path d="M116.716 51.8388L99.4001 53.6473L97.0839 61.4462L89.0623 74.333C89.0623 74.333 94.6596 83.7509 94.134 83.6483C93.6085 83.5457 94.659 86.1129 95.3948 85.9638C96.1306 85.8148 96.8957 87.4887 96.387 87.7863C95.8783 88.0839 97.9192 90.6004 97.9192 90.6004L101.038 87.8016C101.702 82.7989 100.9 78.3464 98.0443 74.6656L106.981 65.0212L108.675 64.3183L110.02 100.106L114.995 100.188C116.368 93.1283 117.058 86.7744 115.985 82.2416C115.985 82.2416 116.139 68.6248 116.727 68.7737C117.316 68.9226 116.817 67.1487 116.817 67.1487C116.817 67.1487 116.302 65.6379 116.935 65.0111C117.568 64.3844 117.173 60.6981 117.173 60.6981C118.219 57.2096 117.904 54.3292 116.716 51.8388Z" fill="#2F2E41"/>
<path d="M103.402 23.0587L108.189 21.8187L110.424 18.7377L115.73 19.3899L116.86 23.5923L120.638 25.7845C120.638 25.7845 118.55 47.8633 119.047 49.0756C119.543 50.288 121.324 50.1879 119.803 51.7507C118.282 53.3134 118.081 52.684 118.434 54.3854C118.787 56.0868 121.359 57.8874 118.434 57.8695C115.508 57.8517 97.8536 57.5995 98.358 55.5825C98.8624 53.5656 98.8545 54.0778 99.6151 52.8132C100.376 51.5486 100.888 52.2553 100.632 50.3892C100.376 48.5231 100.628 47.2625 100.628 46.254C100.628 45.2455 101.473 36.0812 101.473 36.0812L103.402 23.0587Z" fill="#E6E6E6"/>
<path d="M113.064 18.1683C116.169 18.1683 118.687 15.6513 118.687 12.5465C118.687 9.44174 116.169 6.9248 113.064 6.9248C109.958 6.9248 107.44 9.44174 107.44 12.5465C107.44 15.6513 109.958 18.1683 113.064 18.1683Z" fill="#FFB6B6"/>
<path d="M107.171 9.14422C107.665 9.54312 107.552 11.4831 108.102 11.1669C108.652 10.8507 108.767 10.2844 109.4 10.2785C109.917 10.307 110.404 10.5274 110.766 10.8965C110.834 10.9574 110.898 11.0213 110.96 11.0845C111.017 11.0645 111.074 11.0464 111.133 11.0315C111.577 10.9231 112.046 10.9891 112.443 11.216C112.077 11.2422 111.727 11.3829 111.445 11.6184C111.566 11.7539 111.689 11.8901 111.818 12.016C112.895 13.0711 115.103 11.9475 116.588 11.694C115.351 13.0438 115.595 13.7974 115.903 15.6016L115.904 15.7002C115.967 15.2841 117.3 15.3048 117.08 15.857C116.804 16.4024 116.459 16.9099 116.053 17.3668C117.869 16.1089 119.336 14.375 119.66 12.2805C119.726 11.8401 119.856 11.3908 119.731 10.9615C119.677 10.7444 119.553 10.551 119.379 10.4117C119.204 10.2723 118.988 10.1948 118.764 10.1912C118.966 9.54872 118.991 8.86343 118.835 8.20819C118.679 7.55295 118.348 6.95225 117.877 6.46997C117.407 5.98768 116.815 5.64183 116.163 5.46918C115.512 5.29653 114.826 5.30354 114.179 5.48947C113.588 5.69935 113.012 5.94798 112.454 6.23373C111.89 6.52059 111.253 6.62852 110.627 6.54306C110.237 6.4625 109.841 6.26056 109.459 6.3749C109.016 6.50775 108.825 6.97557 108.648 7.42718C108.981 7.5489 109.271 7.76722 109.479 8.05424C109.135 7.92709 108.759 7.91182 108.405 8.01059C108.398 8.01174 108.392 8.01348 108.386 8.01578C107.985 8.73448 107.961 8.9107 107.171 9.14422Z" fill="#2F2E41"/>
<path d="M109.025 20.3127C106.145 20.0809 103.515 22.283 102.316 24.9113C101.117 27.5396 101.038 30.5212 100.98 33.4094L100.799 42.3871C100.772 43.7156 100.746 45.0443 100.679 46.3715C100.645 47.6628 100.483 48.9476 100.194 50.2068C99.607 52.5175 98.3152 54.5765 97.0422 56.5926C100.301 57.5774 103.616 58.3687 106.968 58.9624C108.642 53.549 110.336 47.98 109.924 42.3287C109.706 39.3383 108.902 36.4186 108.596 33.4358C108.163 29.2115 108.737 24.9559 109.31 20.7482" fill="#3F3D56"/>
<path d="M116.017 20.8177C118.87 21.2763 120.902 24.0397 121.442 26.8775C121.983 29.7153 121.351 32.6302 120.721 35.4496C120.069 38.3709 119.417 41.2922 118.764 44.2135C118.475 45.5103 118.185 46.8074 117.934 48.1123C117.69 49.3799 118.711 51.0057 118.723 52.2964C118.745 54.6804 118.282 56.6439 119.039 58.9045C115.639 59.0874 112.232 59.0693 108.834 58.8501C108.494 53.1941 108.172 47.3824 109.914 41.9905C110.836 39.1373 112.311 36.4921 113.317 33.6673C114.741 29.6666 115.194 25.3965 115.637 21.1731" fill="#3F3D56"/>
<path d="M117.919 61.5737C117.707 61.2046 117.648 60.7673 117.754 60.3551C117.859 59.9428 118.122 59.588 118.485 59.3662C118.559 59.3223 118.638 59.2846 118.718 59.2535L118.355 46.8704L122.296 45.8676L120.793 60.2945C120.896 60.6393 120.881 61.0085 120.752 61.3444C120.623 61.6803 120.386 61.964 120.079 62.1513C119.903 62.2561 119.708 62.3253 119.506 62.3549C119.303 62.3845 119.096 62.3739 118.898 62.3238C118.699 62.2736 118.513 62.1848 118.348 62.0624C118.184 61.9401 118.046 61.7866 117.941 61.6108C117.933 61.5985 117.926 61.5861 117.919 61.5737Z" fill="#FFB6B6"/>
<path d="M117.631 25.7648C117.631 25.7648 120.382 23.4392 122.697 28.0892C125.012 32.7392 123.718 43.3622 123.392 43.9291C123.067 44.4961 122.868 43.7063 123.046 45.2176C123.191 46.4467 122.328 46.2929 122.638 46.5552C123.454 47.2468 121.168 47.3256 122.342 47.935C123.516 48.5444 118.262 48.6585 118.262 48.6585C118.262 48.6585 117.627 48.2048 118.068 46.4939C118.316 45.5329 118.937 45.1814 118.275 44.7367C117.613 44.292 118.958 42.9173 118.959 42.6157C118.96 42.314 116.861 35.7168 116.861 35.7168L117.631 25.7648Z" fill="#3F3D56"/>
<path d="M94.8673 83.049C94.1478 83.049 93.4381 82.8815 92.7945 82.5597C92.1509 82.2379 91.5911 81.7707 91.1595 81.1952L79.7913 66.0422C79.4257 65.5554 79.1597 65.0014 79.0084 64.4118C78.8571 63.8222 78.8235 63.2086 78.9095 62.6061C78.9955 62.0035 79.1994 61.4237 79.5096 60.9C79.8197 60.3762 80.2301 59.9186 80.7172 59.5534C81.2043 59.1883 81.7586 58.9226 82.3485 58.7716C82.9383 58.6206 83.5522 58.5873 84.1549 58.6736C84.7576 58.7598 85.3374 58.9639 85.8612 59.2742C86.385 59.5845 86.8426 59.995 87.2076 60.4821L94.6451 70.3948L113.747 41.7511C114.085 41.2448 114.519 40.8099 115.025 40.4713C115.531 40.1327 116.098 39.897 116.695 39.7777C117.292 39.6583 117.907 39.6577 118.504 39.7758C119.101 39.8939 119.669 40.1284 120.175 40.4659C120.682 40.8035 121.117 41.2374 121.456 41.7431C121.794 42.2487 122.03 42.816 122.15 43.4127C122.269 44.0094 122.27 44.6238 122.151 45.2207C122.033 45.8177 121.799 46.3855 121.461 46.8919L98.7245 80.9855C98.3132 81.6021 97.7601 82.1111 97.1114 82.4699C96.4627 82.8287 95.7374 83.0267 94.9964 83.0475C94.9533 83.0483 94.9103 83.049 94.8673 83.049Z" fill="#006B80"/>
<path d="M103.533 59.4227C103.765 59.0658 103.849 58.6326 103.766 58.2151C103.683 57.7976 103.441 57.4289 103.09 57.1873C103.018 57.1393 102.942 57.0974 102.863 57.062L103.911 44.7178L100.032 43.4988L100.735 57.9867C100.613 58.3253 100.607 58.6947 100.717 59.0372C100.827 59.3797 101.048 59.6761 101.345 59.88C101.514 59.9945 101.705 60.0744 101.906 60.1151C102.107 60.1559 102.313 60.1567 102.514 60.1175C102.716 60.0784 102.907 60.0001 103.078 59.887C103.248 59.7739 103.395 59.6283 103.51 59.4585C103.518 59.4467 103.525 59.4347 103.533 59.4227Z" fill="#FFB6B6"/>
<path d="M105.804 23.7098C105.804 23.7098 103.186 21.2358 100.617 25.7508C98.0489 30.2658 98.7532 40.944 99.0472 41.5281C99.3413 42.1122 99.5834 41.3346 99.3217 42.8337C99.1088 44.0529 99.979 43.9471 99.6554 44.1919C98.8021 44.8373 101.08 45.0422 99.8742 45.5858C98.6684 46.1295 103.908 46.5337 103.908 46.5337C103.908 46.5337 104.568 46.1158 104.222 44.3831C104.027 43.4099 103.427 43.0246 104.113 42.6172C104.798 42.2098 103.53 40.7628 103.546 40.4616C103.562 40.1603 106.023 33.6891 106.023 33.6891L105.804 23.7098Z" fill="#3F3D56"/>
</g>
<defs>
<clipPath id="clip0_268_533">
<rect width="181" height="108.6" fill="white"/>
</clipPath>
</defs>
</svg>
