<svg width="294" height="133" viewBox="0 0 294 133" fill="none" xmlns="http://www.w3.org/2000/svg">
<g clip-path="url(#clip0_211_2420)">
<path d="M193.946 46.2735C194.399 46.0572 194.888 45.9492 195.381 45.9567C195.874 45.9641 196.36 46.0868 196.808 46.3168C197.255 46.5467 197.653 46.8787 197.977 47.2909C198.3 47.7031 198.541 48.1863 198.684 48.7089C198.729 48.8745 198.763 49.0434 198.786 49.2143L212.766 56.8883L216.002 54.5149L220.027 59.645L215.087 64.0864C214.493 64.6163 213.76 64.9201 212.998 64.9526C212.236 64.9852 211.484 64.7448 210.855 64.267L196.671 53.409C196.565 53.4585 196.457 53.502 196.348 53.5393C195.876 53.6974 195.379 53.7432 194.889 53.6739C194.4 53.6045 193.93 53.4215 193.509 53.1368C193.088 52.8521 192.726 52.4722 192.447 52.022C192.168 51.5717 191.978 51.0613 191.89 50.5241C191.864 50.3682 191.846 50.2107 191.838 50.0523C191.799 49.2595 191.98 48.4724 192.357 47.7968C192.733 47.1212 193.288 46.5896 193.946 46.2735Z" fill="#FFB8B8"/>
<path d="M20.6168 70.1016C20.6168 70.7088 20.8347 71.2911 21.2226 71.7205C21.6104 72.1498 22.1365 72.391 22.685 72.391H26.0606L26.6623 73.5982V127.16C26.6623 127.767 26.8802 128.35 27.268 128.779C27.6559 129.208 28.1819 129.449 28.7305 129.449C29.279 129.449 29.805 129.208 30.1929 128.779C30.5807 128.35 30.7986 127.767 30.7986 127.16V72.391H144.04L144.071 127.16C144.071 127.767 144.289 128.35 144.677 128.779C145.065 129.208 145.591 129.449 146.14 129.449C146.688 129.449 147.214 129.208 147.602 128.779C147.99 128.35 148.208 127.767 148.208 127.16V72.391H151.867C152.415 72.391 152.941 72.1498 153.329 71.7205C153.717 71.2911 153.935 70.7088 153.935 70.1016C153.935 69.4945 153.717 68.9121 153.329 68.4828C152.941 68.0535 152.415 67.8123 151.867 67.8123H22.685C22.4134 67.8123 22.1445 67.8715 21.8935 67.9865C21.6426 68.1016 21.4146 68.2702 21.2226 68.4828C21.0305 68.6954 20.8782 68.9478 20.7743 69.2255C20.6703 69.5033 20.6168 69.801 20.6168 70.1016Z" fill="#E5E5E5"/>
<path d="M67.9944 102.471V94.0175C67.9944 93.6438 67.8603 93.2855 67.6216 93.0213C67.3829 92.7571 67.0592 92.6087 66.7217 92.6086H37.7671C37.4296 92.6087 37.1059 92.7571 36.8672 93.0213C36.6285 93.2855 36.4944 93.6438 36.4944 94.0175V102.471H67.9944Z" fill="#E5E5E5"/>
<path d="M67.9944 105.64H36.4944V116.559H67.9944V105.64Z" fill="#E5E5E5"/>
<path d="M36.4944 119.729V128.182C36.4944 128.556 36.6285 128.914 36.8672 129.178C37.1058 129.442 37.4296 129.591 37.7671 129.591H66.7217C67.0592 129.591 67.3829 129.442 67.6216 129.178C67.8603 128.914 67.9944 128.556 67.9944 128.182V119.729H36.4944Z" fill="#E5E5E5"/>
<path d="M52.4035 98.9484C52.9307 98.9484 53.3581 98.4753 53.3581 97.8917C53.3581 97.3082 52.9307 96.8351 52.4035 96.8351C51.8763 96.8351 51.449 97.3082 51.449 97.8917C51.449 98.4753 51.8763 98.9484 52.4035 98.9484Z" fill="white"/>
<path d="M52.4035 113.037C52.9307 113.037 53.3581 112.564 53.3581 111.98C53.3581 111.397 52.9307 110.924 52.4035 110.924C51.8763 110.924 51.449 111.397 51.449 111.98C51.449 112.564 51.8763 113.037 52.4035 113.037Z" fill="white"/>
<path d="M52.3524 126.827C52.8796 126.827 53.3069 126.354 53.3069 125.77C53.3069 125.187 52.8796 124.714 52.3524 124.714C51.8252 124.714 51.3978 125.187 51.3978 125.77C51.3978 126.354 51.8252 126.827 52.3524 126.827Z" fill="white"/>
<path d="M30.5454 64.8304V67.6269C30.5551 67.7793 30.6187 67.9213 30.7224 68.0222C30.826 68.123 30.9614 68.1747 31.0991 68.1658H41.0964C41.1912 68.1659 41.2849 68.1418 41.37 68.0954L43.8932 66.6971C43.9762 66.658 44.0471 66.5928 44.0968 66.5095C44.1466 66.4262 44.1732 66.3285 44.1732 66.2287C44.1732 66.1288 44.1466 66.0311 44.0968 65.9478C44.0471 65.8645 43.9762 65.7993 43.8932 65.7602L41.37 64.3619C41.2849 64.3155 41.1912 64.2914 41.0964 64.2915H31.0991C30.9614 64.2827 30.826 64.3343 30.7224 64.4351C30.6187 64.536 30.5551 64.678 30.5454 64.8304Z" fill="#3F3D56"/>
<path d="M31.0991 64.2915H33.0909V68.1658H31.0991C30.9614 68.1747 30.826 68.123 30.7224 68.0222C30.6187 67.9213 30.5551 67.7793 30.5454 67.6269V64.8304C30.5551 64.678 30.6187 64.536 30.7223 64.4352C30.826 64.3343 30.9614 64.2827 31.0991 64.2915Z" fill="#000066"/>
<path d="M270.914 98.8853C269.638 99.3816 268.269 99.506 266.937 99.2463C265.606 98.9866 264.357 98.3517 263.311 97.4027C260.648 94.9286 259.813 90.8525 259.134 87.0782C258.464 83.357 257.794 79.6358 257.125 75.9146L261.331 79.121C264.357 81.4269 267.45 83.8067 269.545 87.1467C271.639 90.4866 272.554 95.046 270.871 98.66" fill="#E6E6E6"/>
<path d="M270.554 112.401C270.98 108.968 271.418 105.491 271.119 102.021C270.854 98.9391 270.005 95.9292 268.276 93.4612C267.358 92.1537 266.241 91.0335 264.975 90.1508C264.645 89.9202 264.342 90.4992 264.67 90.7287C266.86 92.2608 268.554 94.523 269.507 97.1893C270.56 100.154 270.73 103.387 270.548 106.536C270.438 108.441 270.206 110.333 269.971 112.223C269.953 112.309 269.964 112.399 270.004 112.475C270.043 112.552 270.107 112.609 270.183 112.635C270.26 112.658 270.342 112.646 270.412 112.603C270.481 112.559 270.533 112.486 270.554 112.401Z" fill="#F2F2F2"/>
<path d="M266.453 106.326C265.906 107.246 265.154 107.995 264.27 108.501C263.385 109.006 262.398 109.251 261.403 109.211C258.847 109.077 256.716 107.102 254.797 105.227L249.123 99.6808L252.878 99.4819C255.579 99.3388 258.35 99.2053 260.922 100.127C263.495 101.049 265.867 103.268 266.337 106.215" fill="#E6E6E6"/>
<path d="M271.758 114.375C269.708 110.361 267.331 105.899 263.084 104.474C261.903 104.078 260.664 103.937 259.435 104.057C259.048 104.094 259.145 104.755 259.531 104.718C261.592 104.528 263.648 105.13 265.354 106.423C266.995 107.66 268.274 109.379 269.355 111.203C270.018 112.32 270.612 113.484 271.205 114.647C271.395 115.019 271.95 114.751 271.758 114.375Z" fill="#F2F2F2"/>
<path d="M275.042 118.6C274.972 117.714 274.685 116.866 274.211 116.149C273.737 115.432 273.094 114.872 272.352 114.531V112.21H268.836V114.604C268.131 114.962 267.524 115.52 267.077 116.222C266.631 116.924 266.36 117.744 266.293 118.6L265.466 129.239H275.868L275.042 118.6Z" fill="#F2F2F2"/>
<path d="M0 129.614C0 129.521 0.0335224 129.431 0.0931931 129.365C0.152864 129.299 0.233795 129.262 0.318182 129.262L293.798 129.39C293.973 129.39 294 129.42 294 129.614C294 129.707 293.966 129.797 293.907 129.863C293.847 129.929 293.766 129.966 293.682 129.966H0.318182C0.233795 129.966 0.152864 129.929 0.0931931 129.863C0.0335224 129.797 0 129.707 0 129.614Z" fill="#CCCCCC"/>
<path d="M76.1351 67.4337L77.1795 66.9469L77.896 61.1509H87.4377L88.2143 66.9232L89.1487 67.4404C89.1935 67.4651 89.2293 67.5059 89.2505 67.556C89.2717 67.6061 89.2769 67.6627 89.2655 67.7165C89.254 67.7704 89.2264 67.8184 89.1872 67.8527C89.148 67.887 89.0995 67.9057 89.0495 67.9057H76.2211C76.1699 67.9057 76.1203 67.8861 76.0806 67.8502C76.041 67.8143 76.0138 67.7643 76.0037 67.7087C75.9935 67.6531 76.0011 67.5954 76.025 67.5452C76.049 67.4951 76.0878 67.4557 76.1351 67.4337Z" fill="#E6E6E6"/>
<path d="M58.2526 60.8941V53.5778H106.977V60.8941C106.977 61.1663 106.879 61.4274 106.705 61.6201C106.532 61.8128 106.296 61.9214 106.05 61.922H59.1791C58.9332 61.9214 58.6975 61.8128 58.5238 61.6201C58.3501 61.4274 58.2526 61.1663 58.2526 60.8941Z" fill="#CCCCCC"/>
<path d="M58.2035 25.7307C58.2038 25.4022 58.3219 25.0872 58.5318 24.8549C58.7416 24.6226 59.0262 24.4919 59.323 24.4916H105.9C106.197 24.4919 106.481 24.6226 106.691 24.8549C106.901 25.0872 107.019 25.4022 107.019 25.7307V57.0357H58.2035V25.7307Z" fill="#3F3D56"/>
<path d="M60.2561 53.8083V27.719C60.2564 27.4657 60.3474 27.2229 60.5092 27.0438C60.671 26.8647 60.8903 26.764 61.1191 26.7637H104.104C104.333 26.764 104.552 26.8647 104.714 27.0438C104.876 27.2229 104.967 27.4657 104.967 27.719V53.8083C104.967 54.0616 104.876 54.3044 104.714 54.4835C104.552 54.6626 104.333 54.7633 104.104 54.7636H61.1191C60.8903 54.7633 60.671 54.6626 60.5092 54.4835C60.3474 54.3044 60.2564 54.0616 60.2561 53.8083Z" fill="white"/>
<path d="M150.85 0H193.929V56.9386H150.85V0Z" fill="white"/>
<path d="M150.85 0H193.929V56.9386H150.85V0ZM193.169 0.841255H151.61V56.0973H193.169V0.841255Z" fill="#E5E5E5"/>
<path d="M187.457 27.5729H157.322V28.8619H187.457V27.5729Z" fill="#F1F1F1"/>
<path d="M184.216 19.8669H184.545V6.82556H172.968V7.1894H184.216V19.8669Z" fill="#CBCBCB"/>
<path d="M161.063 21.0633H172.64V20.6999H161.392V8.02234H161.063V21.0633Z" fill="#CBCBCB"/>
<path d="M187.457 30.9338H157.322V32.2229H187.457V30.9338Z" fill="#F1F1F1"/>
<path d="M187.457 34.2947H157.322V35.5837H187.457V34.2947Z" fill="#F1F1F1"/>
<path d="M187.457 40.21H157.322V41.499H187.457V40.21Z" fill="#F1F1F1"/>
<path d="M187.457 43.5709H157.322V44.86H187.457V43.5709Z" fill="#F1F1F1"/>
<path d="M187.457 46.9319H157.322V48.2209H187.457V46.9319Z" fill="#F1F1F1"/>
<path d="M170.102 10.3678L170.406 9.95612L169.948 9.37933L169.54 9.65967C169.304 9.45527 169.034 9.30448 168.745 9.21597L168.693 8.63736L168 8.58777L167.884 9.13822C167.558 9.17695 167.244 9.29312 166.962 9.47879L166.619 9.16793L166.097 9.67459L166.332 10.0921C166.129 10.3771 165.984 10.7073 165.908 11.06L165.4 11.1167L165.355 11.8828L165.866 12.0152C165.909 12.3458 166.01 12.6638 166.164 12.9506L165.884 13.3312L166.341 13.908L166.718 13.6488C166.961 13.8604 167.24 14.0151 167.539 14.1033L167.594 14.7041L168.286 14.7537L168.409 14.1711C168.722 14.1291 169.024 14.0155 169.296 13.8374L169.668 14.1736L170.189 13.6669L169.935 13.2154C170.13 12.9403 170.271 12.6234 170.349 12.2849L170.886 12.2248L170.931 11.4587L170.4 11.3211C170.36 10.9843 170.258 10.66 170.102 10.3678ZM169.377 13.1964C169.102 13.4637 168.762 13.6347 168.399 13.6879C168.036 13.7411 167.667 13.674 167.339 13.4952C167.011 13.3164 166.738 13.0338 166.555 12.6833C166.372 12.3327 166.287 11.9299 166.31 11.5258C166.334 11.1217 166.465 10.7344 166.688 10.4129C166.91 10.0915 167.214 9.85024 167.56 9.71976C167.906 9.58929 168.28 9.57542 168.633 9.67992C168.987 9.78442 169.304 10.0026 169.546 10.3068C169.869 10.7148 170.034 11.2485 170.002 11.7904C169.97 12.3323 169.745 12.838 169.377 13.1964Z" fill="#000066"/>
<path d="M174.254 15.938L174.674 15.6786L174.439 14.9561L173.967 15.051C173.815 14.7649 173.614 14.5149 173.375 14.3151L173.518 13.7555L172.891 13.428L172.6 13.8927C172.284 13.7962 171.953 13.7765 171.629 13.8347L171.413 13.4058L170.76 13.6651L170.839 14.1486C170.556 14.3314 170.312 14.5797 170.124 14.8765L169.632 14.7227L169.336 15.417L169.768 15.7482C169.698 16.0729 169.687 16.4099 169.735 16.7394L169.348 16.9792L169.582 17.7018L170.019 17.6141C170.174 17.9096 170.383 18.1669 170.631 18.3704L170.483 18.9514L171.11 19.279L171.418 18.7871C171.723 18.8755 172.042 18.8926 172.353 18.8373L172.588 19.3012L173.24 19.0418L173.155 18.5189C173.427 18.3421 173.663 18.1046 173.848 17.8215L174.368 17.9843L174.664 17.29L174.215 16.946C174.29 16.6164 174.303 16.2735 174.254 15.938ZM172.641 18.2741C172.297 18.4109 171.924 18.4317 171.569 18.3337C171.214 18.2357 170.893 18.0234 170.647 17.7236C170.401 17.4238 170.241 17.05 170.187 16.6495C170.133 16.249 170.187 15.8397 170.344 15.4735C170.5 15.1072 170.75 14.8004 171.064 14.5919C171.377 14.3833 171.74 14.2824 172.105 14.3018C172.471 14.3213 172.823 14.4603 173.117 14.7012C173.411 14.9421 173.634 15.2741 173.757 15.6552C173.923 16.1663 173.899 16.7294 173.689 17.2205C173.48 17.7117 173.103 18.0906 172.641 18.2741Z" fill="#000066"/>
<path d="M179.385 12.6235L179.673 12.1987L179.195 11.6426L178.798 11.9408C178.555 11.747 178.279 11.6083 177.988 11.5326L177.914 10.9568L177.221 10.9379L177.124 11.493C176.8 11.5461 176.49 11.6761 176.216 11.8741L175.861 11.5787L175.359 12.108L175.608 12.5148C175.415 12.8086 175.283 13.1449 175.219 13.5007L174.713 13.5798L174.696 14.3473L175.212 14.457C175.266 14.7855 175.379 15.0987 175.544 15.3785L175.277 15.7712L175.755 16.3273L176.123 16.0516C176.373 16.2523 176.657 16.3945 176.959 16.4694L177.035 17.0673L177.728 17.0863L177.83 16.4986C178.142 16.4428 178.44 16.3159 178.704 16.126L179.088 16.4455L179.591 15.9162L179.321 15.4762C179.506 15.1927 179.635 14.8698 179.701 14.5281L180.236 14.4443L180.253 13.6769L179.717 13.5629C179.665 13.2281 179.552 12.9086 179.385 12.6235ZM178.762 15.482C178.497 15.7612 178.164 15.9471 177.803 16.0163C177.443 16.0855 177.072 16.0348 176.737 15.8706C176.403 15.7065 176.12 15.4362 175.924 15.0941C175.729 14.7519 175.629 14.3532 175.638 13.9484C175.647 13.5435 175.764 13.1507 175.975 12.8197C176.186 12.4886 176.48 12.2342 176.822 12.0885C177.163 11.9428 177.536 11.9124 177.893 12.0012C178.25 12.0899 178.575 12.2939 178.827 12.5872C179.165 12.9806 179.348 13.5065 179.336 14.0494C179.324 14.5923 179.118 15.1076 178.762 15.482Z" fill="#000066"/>
<path d="M88.2371 43.034L89.4715 42.9254L89.6247 40.9528L88.4254 40.6125C88.3481 39.7615 88.1197 38.9358 87.7532 38.1828L88.6323 37.0417L87.4807 35.527L86.3474 36.2695C85.7008 35.6672 84.9443 35.2265 84.1297 34.9777L84.039 33.7145L82.2571 33.5448L81.9728 34.7723C81.1318 34.8634 80.3184 35.1546 79.5885 35.6259L78.5863 34.68L77.2179 35.9548L77.908 37.2453C77.4276 37.9226 77.0737 38.6988 76.8669 39.5289L75.7257 39.6293L75.5724 41.6018L76.6813 41.9166C76.7587 42.7944 76.9967 43.6456 77.3809 44.4183L76.4682 45.6032L77.6198 47.118L78.8195 46.3319C79.4491 46.9028 80.1792 47.3224 80.9633 47.5641L81.0614 48.9304L82.8433 49.1001L83.1509 47.7724C83.9607 47.6825 84.7448 47.407 85.4533 46.9636L86.5141 47.9649L87.8826 46.6901L87.166 45.35C87.6605 44.6659 88.0249 43.8781 88.2371 43.034ZM82.1859 46.5874C81.246 46.4979 80.3511 46.1019 79.6145 45.4494C78.8779 44.7969 78.3326 43.9173 78.0476 42.9218C77.7626 41.9262 77.7507 40.8595 78.0133 39.8565C78.276 38.8535 78.8015 37.9592 79.5233 37.2868C80.2451 36.6143 81.1308 36.1939 82.0685 36.0787C83.0062 35.9635 83.9536 36.1587 84.7911 36.6395C85.6286 37.1204 86.3184 37.8654 86.7734 38.7802C87.2283 39.6951 87.428 40.7387 87.3472 41.7792C87.2387 43.1744 86.6341 44.4648 85.6661 45.3665C84.6982 46.2683 83.4464 46.7074 82.1859 46.5874Z" fill="#000066"/>
<path d="M223.064 93.5222H207.789C207.789 94.0083 192.045 94.4027 192.045 94.4027C191.798 94.6087 191.573 94.845 191.374 95.1072C190.776 95.8967 190.449 96.8946 190.451 97.9249V98.6293C190.451 99.7968 190.87 100.916 191.616 101.742C192.362 102.568 193.373 103.032 194.428 103.032H223.064C224.119 103.031 225.13 102.567 225.876 101.741C226.621 100.916 227.041 99.7966 227.042 98.6293V97.9249C227.04 96.7577 226.621 95.6388 225.875 94.8135C225.13 93.9882 224.119 93.5238 223.064 93.5222Z" fill="#3F3D56"/>
<path d="M210.584 102.857H206.448V132.443H210.584V102.857Z" fill="#3F3D56"/>
<path d="M194.675 132.282C194.675 132.777 200.943 132.473 208.675 132.473C216.407 132.473 222.675 132.777 222.675 132.282C222.675 131.787 216.407 127.864 208.675 127.864C200.943 127.864 194.675 131.787 194.675 132.282Z" fill="#3F3D56"/>
<path d="M198.409 128.815L194.508 128.814L192.652 117.615L198.41 117.615L198.409 128.815Z" fill="#FFB8B8"/>
<path d="M199.404 133L186.826 132.999V132.823C186.826 132.112 186.953 131.407 187.199 130.75C187.445 130.092 187.805 129.495 188.26 128.991C188.715 128.488 189.254 128.089 189.848 127.817C190.442 127.544 191.079 127.404 191.722 127.404H191.722L199.404 127.405L199.404 133Z" fill="#2F2E41"/>
<path d="M192.575 121.87L184.798 102.566C184.149 100.939 184.077 99.1005 184.597 97.4175C185.117 95.7346 186.191 94.3302 187.604 93.4841L204.472 83.4715L212.169 82.7467L219.269 82.0323L219.32 82.1283C219.386 82.2508 220.913 85.1696 219.881 88.3701C219.098 90.7978 217.062 92.694 213.829 94.0062C206.284 97.0688 197.567 99.6863 194.17 100.669C194.02 100.712 193.879 100.789 193.758 100.896C193.637 101.003 193.537 101.137 193.466 101.289C193.395 101.44 193.353 101.605 193.342 101.775C193.331 101.944 193.352 102.115 193.404 102.275L200.629 120.243C200.704 120.471 200.731 120.715 200.708 120.956C200.685 121.198 200.612 121.43 200.495 121.635C200.378 121.84 200.22 122.013 200.033 122.14C199.846 122.266 199.635 122.344 199.417 122.367L194.018 122.802C193.972 122.806 193.927 122.809 193.881 122.809C193.605 122.809 193.334 122.72 193.102 122.553C192.871 122.387 192.687 122.149 192.575 121.87Z" fill="#2F2E41"/>
<path d="M200.954 128.815L197.054 128.814L195.198 117.615L200.955 117.615L200.954 128.815Z" fill="#FFB8B8"/>
<path d="M201.949 133L189.372 132.999V132.823C189.372 132.112 189.498 131.407 189.744 130.75C189.99 130.092 190.351 129.495 190.805 128.991C191.26 128.488 191.8 128.089 192.394 127.817C192.988 127.544 193.624 127.404 194.267 127.404H194.268L201.95 127.405L201.949 133Z" fill="#2F2E41"/>
<path d="M195.438 122.926L187.662 103.622C187.012 101.995 186.941 100.157 187.461 98.4742C187.981 96.7912 189.054 95.3868 190.468 94.5407L207.336 84.5281L215.033 83.8034L220.594 83.2694L220.593 83.1849C220.659 83.3074 222.185 86.2262 221.153 89.4267C220.371 91.8544 219.925 93.7506 216.693 95.0628C209.147 98.1254 200.431 100.743 197.033 101.726C196.883 101.768 196.743 101.846 196.622 101.953C196.5 102.059 196.401 102.193 196.33 102.346C196.259 102.496 196.216 102.662 196.205 102.831C196.195 103.001 196.216 103.171 196.267 103.332L203.492 121.3C203.568 121.527 203.595 121.771 203.572 122.013C203.548 122.254 203.475 122.486 203.358 122.692C203.241 122.897 203.083 123.069 202.896 123.196C202.709 123.323 202.499 123.401 202.28 123.423L196.882 123.858C196.836 123.863 196.79 123.865 196.745 123.865C196.468 123.865 196.198 123.777 195.966 123.61C195.734 123.443 195.551 123.206 195.438 122.926Z" fill="#2F2E41"/>
<path d="M210.094 83.6217C209.721 83.3297 204.367 86.4394 203.412 83.9739C207.867 71.6465 204.797 66.3232 207.526 59.2541C208.006 58.0348 208.73 56.9519 209.643 56.0869C210.556 55.2219 211.634 54.5972 212.797 54.2598L219.876 53.8643L219.913 53.8839C221.51 54.75 222.813 56.163 223.628 57.9133C224.443 59.6636 224.727 61.658 224.437 63.6008C224.412 71.2943 220.254 77.162 221.708 82.7422C221.769 82.9755 221.786 83.22 221.76 83.4611C221.734 83.7022 221.663 83.9349 221.554 84.1452C221.447 84.3485 221.305 84.5256 221.134 84.6654C220.964 84.8053 220.769 84.905 220.562 84.9585L211.215 83.5782C210.996 83.6357 210.769 83.641 210.549 83.5938C210.329 83.5466 210.12 83.4479 209.937 83.3044L210.094 83.6217Z" fill="#000066"/>
<path d="M217.514 50.9373C221.83 50.9373 225.329 47.0642 225.329 42.2866C225.329 37.5089 221.83 33.6359 217.514 33.6359C213.198 33.6359 209.699 37.5089 209.699 42.2866C209.699 47.0642 213.198 50.9373 217.514 50.9373Z" fill="#FFB8B8"/>
<path d="M202.753 71.6012L189.175 59.7436C189.067 59.7857 188.957 59.8216 188.845 59.8512C188.366 59.9753 187.868 59.9864 187.385 59.8838C186.902 59.7811 186.443 59.5671 186.039 59.2555C185.633 58.9437 185.291 58.5394 185.037 58.0697C184.784 57.5999 184.623 57.0756 184.567 56.5317C184.463 55.5491 184.703 54.5597 185.236 53.7662C185.77 52.9727 186.558 52.4353 187.438 52.2641C188.318 52.093 189.225 52.301 189.971 52.8456C190.717 53.3901 191.247 54.23 191.451 55.193C191.486 55.3614 191.511 55.5323 191.524 55.7045L205.041 64.3363L208.405 62.1926L212.131 67.5927L206.908 71.7133C206.297 72.1917 205.562 72.4392 204.814 72.419C204.065 72.3988 203.343 72.112 202.753 71.6012Z" fill="#FFB8B8"/>
<path d="M213.788 69.2744L206.041 63.4427L209.681 57.7345C210.165 56.9765 210.875 56.4321 211.686 56.1975C212.497 55.9629 213.357 56.0532 214.113 56.4524C214.879 56.8563 215.488 57.5498 215.832 58.4077C216.176 59.2657 216.232 60.2315 215.989 61.1307L213.788 69.2744Z" fill="#000066"/>
<path d="M220.003 50.2268C219.588 50.4279 218.737 46.7655 219.118 46.033C219.685 44.9436 219.651 44.9514 220.027 44.2307C220.403 43.51 220.487 42.5235 220.001 41.8893C219.514 41.2552 218.387 41.3393 218.164 42.1344C218.307 40.6242 216.958 39.4102 215.621 39.0691C214.285 38.7279 212.875 38.9397 211.53 38.6361C209.971 38.2838 208.348 36.8364 208.97 34.9377C209.077 34.6215 209.237 34.3306 209.441 34.0803C210.16 33.1854 211.166 32.8032 212.15 32.4338C214.196 31.6651 216.297 30.8867 218.457 30.9716C220.236 31.0745 221.949 31.7494 223.387 32.9135C224.825 34.0776 225.925 35.6805 226.553 37.526C226.702 37.9877 226.817 38.4618 226.898 38.9437C227.639 43.3549 225.325 47.7061 221.566 49.3858L220.003 50.2268Z" fill="#2F2E41"/>
<path d="M109.015 97.8937V98.5982C109.016 99.7655 109.435 100.885 110.181 101.71C110.927 102.536 111.938 103 112.992 103.001H141.629C142.684 103 143.695 102.536 144.441 101.711C145.187 100.885 145.606 99.7657 145.606 98.5982V97.8937C145.608 96.8635 145.281 95.8655 144.683 95.076C144.484 94.8139 144.259 94.5776 144.012 94.3716C144.012 94.3716 128.268 93.9771 128.268 93.4911H112.992C111.938 93.4927 110.927 93.9571 110.182 94.7824C109.436 95.6077 109.017 96.7266 109.015 97.8937Z" fill="#3F3D56"/>
<path d="M129.609 102.826H125.473V132.412H129.609V102.826Z" fill="#3F3D56"/>
<path d="M127.382 127.833C119.65 127.833 113.382 131.756 113.382 132.251C113.382 132.746 119.65 132.442 127.382 132.442C135.114 132.442 141.382 132.746 141.382 132.251C141.382 131.756 135.114 127.833 127.382 127.833Z" fill="#3F3D56"/>
<path d="M141.197 117L146.954 116.999L145.098 128.199L141.197 128.199L141.197 117Z" fill="#FFB8B8"/>
<path d="M140.202 126.789L147.884 126.788H147.885C148.528 126.788 149.164 126.929 149.758 127.201C150.352 127.473 150.892 127.872 151.347 128.376C151.801 128.879 152.162 129.476 152.408 130.134C152.654 130.791 152.78 131.496 152.78 132.208V132.384L140.203 132.384L140.202 126.789Z" fill="#2F2E41"/>
<path d="M145.725 122.193C145.68 122.193 145.634 122.191 145.588 122.186L140.19 121.751C139.972 121.728 139.761 121.651 139.574 121.524C139.387 121.397 139.229 121.224 139.112 121.019C138.995 120.814 138.922 120.582 138.898 120.34C138.875 120.099 138.902 119.855 138.978 119.627L146.203 101.659C146.254 101.499 146.275 101.329 146.265 101.159C146.254 100.989 146.212 100.824 146.14 100.673C146.069 100.521 145.97 100.387 145.848 100.28C145.727 100.173 145.587 100.096 145.437 100.054C142.039 99.0706 133.323 96.4531 125.777 93.3905C122.545 92.0783 120.509 90.1821 119.726 87.7544C118.694 84.5539 120.221 81.635 120.286 81.5126L120.337 81.4166L127.437 82.131L135.135 82.8557L152.003 92.8683C153.416 93.7144 154.49 95.1188 155.009 96.8018C155.529 98.4848 155.458 100.323 154.808 101.95L147.032 121.254C146.919 121.533 146.736 121.771 146.504 121.938C146.272 122.104 146.002 122.193 145.725 122.193Z" fill="#2F2E41"/>
<path d="M139.288 117L145.045 116.999L143.189 128.199L139.288 128.199L139.288 117Z" fill="#FFB8B8"/>
<path d="M138.293 126.789L145.975 126.788H145.976C146.619 126.788 147.255 126.929 147.849 127.201C148.443 127.473 148.983 127.872 149.438 128.376C149.892 128.879 150.253 129.476 150.499 130.134C150.745 130.791 150.871 131.496 150.871 132.208V132.384L138.293 132.384L138.293 126.789Z" fill="#2F2E41"/>
<path d="M143.498 123.25C143.453 123.25 143.407 123.247 143.361 123.243L137.963 122.807C137.744 122.785 137.534 122.707 137.347 122.581C137.16 122.454 137.002 122.281 136.884 122.076C136.767 121.871 136.694 121.638 136.671 121.397C136.648 121.156 136.675 120.912 136.751 120.684L143.975 102.716C144.027 102.556 144.048 102.385 144.037 102.216C144.027 102.046 143.984 101.881 143.913 101.73C143.842 101.578 143.742 101.444 143.621 101.337C143.5 101.23 143.36 101.153 143.209 101.11C139.812 100.127 131.096 97.5097 123.55 94.4471C120.317 93.1349 118.281 91.2387 117.499 88.811C116.467 85.6105 117.993 82.6917 118.059 82.5692L118.11 82.4733L125.21 83.1877L132.907 83.9124L149.775 93.925C151.189 94.7711 152.262 96.1755 152.782 97.8585C153.302 99.5414 153.23 101.379 152.581 103.006L144.804 122.31C144.692 122.59 144.509 122.827 144.277 122.994C144.045 123.161 143.774 123.25 143.498 123.25Z" fill="#2F2E41"/>
<path d="M116.297 54.9053C116.823 54.1694 117.57 53.6661 118.402 53.4862C119.234 53.3064 120.097 53.4619 120.835 53.9246C121.564 54.3821 122.124 55.1102 122.415 55.9802C122.706 56.8503 122.71 57.8063 122.426 58.6793L120.288 65.2539L111.53 61.57L116.297 54.9053Z" fill="#000066"/>
<path d="M133.806 87.6196C133.623 87.7632 133.414 87.8618 133.194 87.909C132.973 87.9563 132.746 87.9509 132.528 87.8934L119.044 84.3428C118.837 84.2893 118.643 84.1896 118.472 84.0497C118.302 83.9098 118.159 83.7328 118.053 83.5295C117.943 83.3191 117.873 83.0864 117.846 82.8454C117.82 82.6043 117.838 82.3598 117.899 82.1265C119.353 76.5463 117.446 69.629 115.169 62.9851C114.88 61.0423 115.163 59.0479 115.978 57.2976C116.793 55.5473 118.096 54.1343 119.693 53.2681L119.73 53.2485L126.81 53.6441C127.972 53.9815 129.05 54.6062 129.963 55.4712C130.876 56.3362 131.6 57.4191 132.081 58.6383C134.809 65.7075 135.591 74.7785 134.469 86.3697C134.445 86.6182 134.373 86.8582 134.259 87.0737C134.145 87.2892 133.99 87.4753 133.806 87.6196Z" fill="#000066"/>
<path d="M129.807 43.0565C130.498 38.3405 127.605 33.8971 123.345 33.1318C119.084 32.3665 115.07 35.5692 114.379 40.2851C113.687 45.0011 116.581 49.4445 120.841 50.2098C125.101 50.9751 129.115 47.7724 129.807 43.0565Z" fill="#FFB8B8"/>
<path d="M132.698 71.0976L127.476 66.977L131.202 61.5769L134.566 63.7206L148.082 55.0888C148.096 54.9167 148.12 54.7458 148.155 54.5774C148.314 53.8315 148.668 53.1543 149.174 52.6315C149.681 52.1087 150.315 51.7638 150.999 51.6403C151.682 51.5169 152.383 51.6205 153.013 51.938C153.643 52.2555 154.173 52.7727 154.538 53.4241C154.902 54.0756 155.084 54.832 155.06 55.5978C155.036 56.3637 154.808 57.1044 154.404 57.7265C153.999 58.3485 153.438 58.8239 152.789 59.0925C152.141 59.3611 151.435 59.4109 150.761 59.2356C150.65 59.206 150.54 59.17 150.432 59.1279L136.854 70.9855C136.264 71.4963 135.541 71.7831 134.793 71.8033C134.044 71.8235 133.31 71.5761 132.698 71.0976Z" fill="#FFB8B8"/>
<path d="M123.618 60.515C123.375 59.6158 123.43 58.65 123.774 57.792C124.118 56.9341 124.728 56.2406 125.493 55.8367C126.25 55.4375 127.11 55.3472 127.921 55.5818C128.732 55.8164 129.442 56.3608 129.925 57.1188L133.566 62.827L125.819 68.6587L123.618 60.515Z" fill="#000066"/>
<path d="M124.977 40.419C125.124 40.7065 125.185 41.0382 125.151 41.3664C125.117 41.6946 124.99 42.0024 124.788 42.2457C123.678 43.6356 123.382 45.7869 123.782 47.6398C124.262 49.8633 125.537 51.7584 126.796 53.5706C128.055 55.3829 129.358 57.2445 129.911 59.4471C131.22 64.6618 127.703 70.2228 123.184 72.2887C118.665 74.3545 113.518 73.7004 108.76 72.4556C105.169 71.5161 101.462 70.134 99.0064 67.0852C96.5504 64.0363 95.8987 58.8748 98.5087 55.9871C100.555 53.7235 103.741 53.5412 106.588 52.9739C109.435 52.4066 112.659 50.7358 113.041 47.5616C113.42 44.4077 110.75 41.801 110.248 38.6684C109.622 34.7729 112.683 31.0609 116.147 30.0839C119.61 29.107 123.263 30.1922 126.619 31.5564C129.199 32.6057 131.898 33.9747 132.88 37.0842C133.427 38.8134 133.002 40.7838 131.655 41.8478C129.604 43.4684 126.967 41.9041 124.958 40.3824L124.977 40.419Z" fill="#2F2E41"/>
</g>
<defs>
<clipPath id="clip0_211_2420">
<rect width="294" height="133" fill="white"/>
</clipPath>
</defs>
</svg>
