<svg width="289" height="157" viewBox="0 0 289 157" fill="none" xmlns="http://www.w3.org/2000/svg">
<g clip-path="url(#clip0_211_2504)">
<path d="M95.1734 157C86.4531 157 77.7458 156.831 69.0515 156.493C56.6284 156.009 43.7823 155.509 31.8424 148.333C23.4899 143.313 16.0924 135.259 10.45 125.041C6.6787 118.116 3.91341 110.603 2.25127 102.765C-0.849259 88.4967 -0.743651 73.6299 2.55921 59.4146C3.71666 54.5408 5.31229 49.8017 7.32318 45.2654C16.0305 25.7251 31.912 12.6082 50.8957 9.2783C51.0525 9.25625 51.211 9.25258 51.3685 9.26736C51.4539 9.27232 51.539 9.27762 51.6257 9.27369L51.7374 9.23521C52.0237 9.12736 52.3179 9.04557 52.6167 8.99067C81.8945 4.26723 112.845 13.8244 142.121 36.6282C164.757 54.2625 194.756 63.7583 233.832 65.6582L234.387 65.6896C245.265 66.3668 255.787 71.2269 264.818 79.7452C273.731 88.1526 280.423 99.3698 284.171 112.184C284.631 113.747 285.054 115.373 285.426 117.018C285.772 118.546 285.748 120.146 285.355 121.662C284.962 123.177 284.213 124.556 283.183 125.665V125.668L283.085 125.777C282.851 126.029 282.605 126.271 282.353 126.497L282.056 126.761C279.559 128.991 277.587 130.752 275.226 132.119C273.652 133.025 271.977 133.71 270.243 134.158C260.721 136.674 251.051 139.007 241.501 141.091C222.956 145.144 203.922 148.487 184.928 151.027C155.151 155.006 125.176 157.001 95.1734 157ZM51.1465 9.95943C51.0882 9.95884 51.0299 9.96313 50.9722 9.97226C32.166 13.271 16.4348 26.2591 7.81382 45.606C5.82276 50.0974 4.24293 54.7895 3.09699 59.6151C-0.17578 73.7043 -0.280074 88.439 2.79288 102.581C4.43874 110.343 7.17722 117.785 10.9121 124.644C16.4993 134.761 23.8211 142.735 32.0861 147.701C43.9188 154.814 56.7044 155.311 69.069 155.792C107.741 157.29 146.462 155.463 184.868 150.33C203.85 147.792 222.871 144.451 241.404 140.401C250.947 138.318 260.611 135.987 270.127 133.473C271.819 133.036 273.453 132.368 274.99 131.484C277.303 130.144 279.256 128.4 281.73 126.191L282.026 125.927C282.243 125.733 282.455 125.526 282.659 125.31L282.717 125.244C284.75 123.024 285.54 120.095 284.886 117.208V117.208C284.517 115.581 284.1 113.972 283.643 112.426C275.987 86.2476 256.182 67.7475 234.36 66.3894L233.809 66.3579C215.959 65.4899 200.339 63.0855 186.059 59.0066C169.011 54.1376 154.129 46.8082 141.824 37.2223C112.66 14.5059 81.8382 4.98427 52.6882 9.6853C52.4159 9.7362 52.148 9.81147 51.8872 9.91035L51.6859 9.9714C51.5715 9.97694 51.4569 9.97546 51.3427 9.96695C51.2754 9.96319 51.2102 9.95943 51.1465 9.95943Z" fill="#006B80"/>
<path d="M90.2718 51.1525C89.4645 50.3132 88.6388 45.6324 87.6081 45.1572C88.3786 47.0024 87.8192 47.491 87.8151 49.516C87.8248 50.6659 87.7009 51.8126 87.4463 52.9289H69.9869V38.1627C69.9869 36.836 70.228 35.5222 70.6965 34.2964C71.165 33.0706 71.8517 31.9568 72.7175 31.0186C73.5832 30.0805 74.6109 29.3363 75.742 28.8285C76.8732 28.3208 78.0855 28.0595 79.3098 28.0596C79.7771 28.0695 80.2413 28.1431 80.6916 28.2788C82.1923 28.7179 83.5601 29.5769 84.6577 30.7697C85.7553 31.9624 86.5442 33.447 86.9453 35.0745C88.2763 40.3467 90.3931 49.1226 90.2718 51.1525Z" fill="#2F2E41"/>
<path d="M71.0113 69.3177L71.0199 57.8083L64.7769 58.4129L66.9802 65.6719L65.949 83.9174C65.4489 84.039 64.9923 84.3157 64.6347 84.7137C64.2772 85.1117 64.0343 85.6139 63.9356 86.1589C63.8368 86.704 63.8866 87.2684 64.0787 87.7833C64.2709 88.2983 64.5972 88.7415 65.0178 89.059C65.4383 89.3765 65.9351 89.5545 66.4474 89.5713C66.9597 89.5881 67.4655 89.443 67.903 89.1537C68.3406 88.8644 68.691 88.4434 68.9116 87.942C69.1321 87.4406 69.2133 86.8805 69.1452 86.3299L71.0113 69.3177Z" fill="#FFB6B6"/>
<path d="M83.2974 151.564L85.8195 151.563L87.0194 141.021H83.2968L83.2974 151.564Z" fill="#FFB6B6"/>
<path d="M82.4432 150.215L86.4302 149.958V151.809L90.2208 154.646C90.408 154.786 90.549 154.987 90.6232 155.22C90.6974 155.453 90.7009 155.706 90.6332 155.941C90.5655 156.177 90.4301 156.383 90.2469 156.529C90.0636 156.675 89.842 156.754 89.6145 156.754H84.8678L84.0496 154.923L83.7301 156.754H81.9404L82.4432 150.215Z" fill="#2F2E41"/>
<path d="M68.7137 151.564L71.2361 151.563L72.4357 141.021H68.7134L68.7137 151.564Z" fill="#FFB6B6"/>
<path d="M67.8597 150.215L71.8467 149.958V151.809L75.6373 154.646C75.8245 154.786 75.9656 154.987 76.0397 155.22C76.1139 155.453 76.1174 155.706 76.0497 155.941C75.982 156.177 75.8466 156.383 75.6634 156.529C75.4801 156.675 75.2585 156.754 75.031 156.754H70.2843L69.4661 154.923L69.1466 156.754H67.3569L67.8597 150.215Z" fill="#2F2E41"/>
<path d="M81.0514 45.3792L75.8265 45.4902L72.1383 49.7091L69.1815 50.179C67.844 50.3916 66.6143 51.0953 65.698 52.1724C64.7817 53.2496 64.2343 54.6349 64.1473 56.0969L64.6596 59.1461H67.733L69.511 70.4594C68.8197 72.3685 68.7727 73.8755 70.1918 74.4674L74.5971 83.4603L87.6081 77.132C88.268 75.9026 88.4794 74.6679 87.8049 73.4671L88.735 56.1484H91.8626C91.8626 52.9093 90.8516 50.1786 87.8812 49.8182C86.7015 49.6798 85.5162 49.6064 84.3297 49.5981L81.0514 45.3792Z" fill="#E6E6E6"/>
<path d="M87.6081 77.1321C87.6081 77.1321 74.9044 79.5746 70.1918 74.4675C70.1918 74.4675 69.7133 75.3478 68.9924 76.8076C68.785 77.2274 68.3846 77.5118 68.1428 78.0203C67.923 78.4825 67.3577 79.0506 67.1183 79.5748C66.9257 79.9965 67.2347 80.5475 67.0343 81.0031C64.6208 86.4889 61.8011 94.2271 62.4056 99.3369C62.7955 102.632 63.6006 110.3 64.4486 118.535C64.5149 119.178 63.9782 120.005 64.0448 120.653C64.1076 121.265 64.7736 121.698 64.8364 122.311C64.8781 122.718 64.413 123.134 64.4546 123.54C64.5003 123.986 65.0526 124.423 65.098 124.868C66.2596 136.239 67.3232 146.855 67.3232 146.855H73.2652L74.3864 122.608L73.4701 113.77L75.6216 95.8951L78.5926 112.882L78.9748 122.442L82.1146 147.299H87.6081V123.236L88.0179 121.986L87.6081 120.382L88.0179 118.655L87.6081 116.774V77.1321Z" fill="#2F2E41"/>
<path d="M82.655 42.0958C81.8457 43.2609 80.6943 44.0926 79.3905 44.4538C78.0867 44.8151 76.7083 44.6844 75.4822 44.0832C74.2561 43.4821 73.2554 42.4464 72.6451 41.1467C72.0347 39.8469 71.851 38.3607 72.1242 36.9327C72.3974 35.5047 73.1112 34.2201 74.1481 33.2904C75.185 32.3608 76.4831 31.8415 77.8286 31.8182C79.1742 31.7949 80.487 32.2688 81.5508 33.162C82.6146 34.0552 83.3659 35.3144 83.6811 36.7322C83.6982 36.8092 83.7126 36.8857 83.7265 36.9651C83.893 37.8537 83.8836 38.7706 83.6989 39.655C83.5142 40.5395 83.1584 41.3714 82.655 42.0958Z" fill="#FFB6B6"/>
<path d="M81.4201 38.4335C81.2945 37.7501 80.9767 37.1257 80.5104 36.646C80.5564 37.3008 80.4726 37.9588 80.2645 38.5756C78.7068 38.7251 77.1422 38.3892 75.7547 37.6075C74.7098 36.8392 73.38 36.9058 71.8309 37.6075C71.8308 36.791 71.9792 35.9825 72.2674 35.2281C72.5557 34.4737 72.9783 33.7883 73.5111 33.2109C74.0438 32.6336 74.6763 32.1756 75.3724 31.8632C76.0686 31.5508 76.8146 31.39 77.5681 31.3901H78.5926C80.1141 31.3904 81.5732 32.0456 82.649 33.2115C83.7249 34.3774 84.3294 35.9586 84.3297 37.6075C83.3841 37.975 82.4105 38.2514 81.4201 38.4335Z" fill="#2F2E41"/>
<path d="M36.5994 117.676C45.7022 117.676 53.0814 109.679 53.0814 99.8142C53.0814 89.9495 45.7022 81.9526 36.5994 81.9526C27.4967 81.9526 20.1174 89.9495 20.1174 99.8142C20.1174 109.679 27.4967 117.676 36.5994 117.676Z" fill="black" fill-opacity="0.8"/>
<path d="M141.632 35.723C150.734 35.723 158.114 27.7262 158.114 17.8615C158.114 7.99687 150.734 0 141.632 0C132.529 0 125.15 7.99687 125.15 17.8615C125.15 27.7262 132.529 35.723 141.632 35.723Z" fill="black" fill-opacity="0.8"/>
<path d="M272.518 120.478C281.621 120.478 289 112.481 289 102.616C289 92.7518 281.621 84.7549 272.518 84.7549C263.415 84.7549 256.036 92.7518 256.036 102.616C256.036 112.481 263.415 120.478 272.518 120.478Z" fill="black" fill-opacity="0.8"/>
<path d="M171.364 19.8095V60.3117C171.364 61.153 171.058 61.9604 170.512 62.5584C169.966 63.1564 169.224 63.4968 168.448 63.5056C168.437 63.5068 168.426 63.5072 168.415 63.507H164.065C160.585 63.507 157.247 62.0087 154.786 59.3416C152.325 56.6746 150.942 53.0573 150.942 49.2856V19.8095C150.942 18.9621 151.253 18.1493 151.806 17.5501C152.359 16.9509 153.109 16.6143 153.891 16.6143H155.653C154.837 19.1956 165.919 20.2824 166.528 16.6143H168.415C169.197 16.6143 169.947 16.9509 170.5 17.5501C171.053 18.1494 171.364 18.9621 171.364 19.8095Z" fill="#000066"/>
<path d="M158.455 13.5855C158.455 13.4745 158.496 13.368 158.569 13.2895C158.641 13.211 158.739 13.1669 158.842 13.1667H161.469C161.572 13.1671 161.67 13.2113 161.742 13.2898C161.814 13.3683 161.855 13.4746 161.855 13.5855C161.855 13.6963 161.814 13.8027 161.742 13.8812C161.67 13.9597 161.572 14.0039 161.469 14.0042H158.842C158.739 14.0041 158.641 13.96 158.569 13.8815C158.496 13.803 158.455 13.6965 158.455 13.5855Z" fill="#3F3D56"/>
<path d="M169.318 68.6442H152.702C151.413 68.6427 150.177 68.087 149.265 67.0991C148.353 66.1113 147.841 64.7719 147.839 63.3748V35.0621C147.748 34.9911 147.674 34.8975 147.622 34.7892C147.571 34.6808 147.544 34.5608 147.545 34.4391V31.5916C147.544 31.4699 147.571 31.3499 147.622 31.2416C147.674 31.1333 147.748 31.0398 147.839 30.9688V30.2046C147.748 30.1336 147.674 30.0401 147.622 29.9318C147.571 29.8234 147.544 29.7035 147.545 29.5818V26.7341C147.544 26.6124 147.571 26.4924 147.622 26.3841C147.674 26.2758 147.748 26.1823 147.839 26.1113V24.7301C147.726 24.6645 147.632 24.567 147.567 24.4479C147.501 24.3289 147.467 24.1928 147.467 24.0542V21.2068C147.467 21.0682 147.501 20.9321 147.567 20.813C147.632 20.6939 147.726 20.5964 147.839 20.5308V16.746C147.841 15.3489 148.353 14.0095 149.265 13.0217C150.177 12.0338 151.413 11.4781 152.702 11.4766H169.318C170.607 11.4781 171.843 12.0338 172.755 13.0217C173.666 14.0096 174.179 15.349 174.181 16.746V24.996C174.268 25.0554 174.34 25.1379 174.39 25.2358C174.441 25.3337 174.467 25.4438 174.467 25.5557V30.9852C174.467 31.0972 174.441 31.2073 174.39 31.3052C174.34 31.4032 174.268 31.4857 174.181 31.5451V63.3748C174.179 64.7718 173.666 66.1112 172.755 67.0991C171.843 68.087 170.607 68.6427 169.318 68.6442ZM152.702 12.177C151.584 12.1784 150.512 12.6602 149.722 13.5167C148.931 14.3733 148.487 15.5346 148.485 16.746V21.1266L148.175 21.1396C148.158 21.1402 148.143 21.1475 148.132 21.16C148.12 21.1725 148.114 21.1893 148.114 21.2068V24.0542C148.114 24.0717 148.12 24.0884 148.132 24.1009C148.143 24.1134 148.158 24.1208 148.175 24.1214L148.485 24.1343V26.6031L148.24 26.6688C148.226 26.6723 148.214 26.6807 148.205 26.6925C148.196 26.7043 148.191 26.7189 148.191 26.7341V29.5817C148.191 29.5969 148.196 29.6116 148.205 29.6234C148.214 29.6352 148.226 29.6435 148.24 29.6471L148.485 29.7127V31.4606L148.24 31.5263C148.226 31.5298 148.214 31.5382 148.205 31.55C148.196 31.5618 148.191 31.5764 148.191 31.5916V34.4391C148.191 34.4543 148.196 34.4689 148.205 34.4808C148.214 34.4926 148.226 34.501 148.24 34.5046L148.485 34.5702V63.3748C148.487 64.5862 148.931 65.7475 149.722 66.6041C150.512 67.4606 151.584 67.9424 152.702 67.9438H169.318C170.436 67.9424 171.508 67.4606 172.298 66.604C173.088 65.7475 173.533 64.5861 173.534 63.3748V30.9454H173.82V25.5957H173.534V16.746C173.533 15.5347 173.088 14.3733 172.298 13.5168C171.508 12.6602 170.436 12.1784 169.318 12.177L152.702 12.177Z" fill="#3F3D56"/>
<path d="M162.938 14.0042C163.151 14.0042 163.324 13.8168 163.324 13.5855C163.324 13.3542 163.151 13.1667 162.938 13.1667C162.724 13.1667 162.551 13.3542 162.551 13.5855C162.551 13.8168 162.724 14.0042 162.938 14.0042Z" fill="#3F3D56"/>
<path d="M78.8809 94.7021H35.6441C35.03 94.7004 34.4416 94.4353 34.0074 93.9648C33.5732 93.4944 33.3286 92.8567 33.3269 92.1913V69.3605C33.3285 68.6951 33.5731 68.0574 34.0072 67.5869C34.4414 67.1163 35.0297 66.8512 35.6437 66.8494H78.8805C79.4945 66.8511 80.083 67.1161 80.5172 67.5866C80.9514 68.0571 81.196 68.6947 81.1977 69.3601V92.191C81.1961 92.8564 80.9515 93.4941 80.5174 93.9646C80.0832 94.4351 79.4949 94.7003 78.8809 94.7021Z" fill="white"/>
<path d="M78.8809 94.7021H35.6441C35.03 94.7004 34.4416 94.4353 34.0074 93.9648C33.5732 93.4944 33.3286 92.8567 33.3269 92.1913V69.3605C33.3285 68.6951 33.5731 68.0574 34.0072 67.5869C34.4414 67.1163 35.0297 66.8512 35.6437 66.8494H78.8805C79.4945 66.8511 80.083 67.1161 80.5172 67.5866C80.9514 68.0571 81.196 68.6947 81.1977 69.3601V92.191C81.1961 92.8564 80.9515 93.4941 80.5174 93.9646C80.0832 94.4351 79.4949 94.7003 78.8809 94.7021ZM35.6441 67.5498C35.2013 67.5512 34.777 67.7425 34.4639 68.0818C34.1509 68.4212 33.9745 68.881 33.9733 69.3608V92.191C33.9745 92.6708 34.151 93.1306 34.4641 93.4699C34.7773 93.8092 35.2016 94.0003 35.6444 94.0016H78.8802C79.3231 94.0003 79.7474 93.8091 80.0605 93.4697C80.3737 93.1304 80.5501 92.6705 80.5513 92.1906V69.3605C80.55 68.8806 80.3735 68.4209 80.0604 68.0816C79.7473 67.7423 79.323 67.5512 78.8802 67.5498L35.6441 67.5498Z" fill="#3F3D56"/>
<path d="M59.5798 91.328C51.0526 91.328 42.161 91.2397 38.8434 91.1824C38.4069 91.1727 37.9913 90.9784 37.6852 90.6411C37.3791 90.3037 37.2068 89.8501 37.2051 89.3769V70.4782C37.2052 70.3088 37.2673 70.1463 37.3777 70.0264C37.4881 69.9064 37.6379 69.8387 37.7942 69.8381H76.7291C76.8854 69.8383 77.0353 69.9056 77.146 70.0252C77.2566 70.1449 77.3191 70.3071 77.3196 70.4765V83.299C77.3124 85.392 76.5484 87.3987 75.1916 88.8884C73.8348 90.378 71.9933 91.2321 70.0621 91.2674C66.9702 91.311 63.3089 91.328 59.5798 91.328Z" fill="#000066"/>
<path d="M74.4179 82.121H39.2372C38.9426 82.1201 38.6554 82.021 38.4147 81.837C38.1739 81.6531 37.9912 81.3933 37.8915 81.0929L33.9095 68.9869C33.8328 68.7534 33.8089 68.5033 33.8398 68.2577C33.8707 68.0122 33.9555 67.7782 34.0872 67.5755C34.2188 67.3729 34.3934 67.2074 34.5963 67.093C34.7992 66.9786 35.0245 66.9186 35.2532 66.9181L79.2285 66.8518C79.4375 66.8516 79.6441 66.901 79.8336 66.9967C80.0231 67.0923 80.1909 67.2319 80.3252 67.4054C80.4596 67.579 80.5571 67.7824 80.6111 68.0013C80.665 68.2201 80.674 68.4491 80.6374 68.6722L80.6713 68.6878L80.545 69.007L80.5438 69.0103L75.7301 81.1825C75.6204 81.4612 75.4375 81.6987 75.2042 81.8656C74.9709 82.0324 74.6975 82.1213 74.4179 82.121ZM79.2305 67.5523L35.2544 67.6186C35.1292 67.6188 35.0058 67.6517 34.8946 67.7143C34.7834 67.777 34.6878 67.8676 34.6157 67.9786C34.5435 68.0896 34.4971 68.2178 34.4801 68.3523C34.4632 68.4868 34.4763 68.6238 34.5183 68.7517L38.5001 80.8572C38.5548 81.0218 38.655 81.1642 38.7869 81.2649C38.9189 81.3657 39.0762 81.42 39.2377 81.4205H74.4179C74.5709 81.4207 74.7206 81.372 74.8482 81.2807C74.9759 81.1894 75.0759 81.0593 75.1359 80.9068L79.9498 68.7343C80.0008 68.6053 80.0215 68.4646 80.01 68.3248C79.9985 68.185 79.9551 68.0505 79.8838 67.9334C79.8126 67.8162 79.7155 67.7201 79.6015 67.6536C79.4875 67.5871 79.36 67.5522 79.2305 67.5523Z" fill="#3F3D56"/>
<path d="M57.1968 84.7563C58.7182 84.7563 59.9515 83.4197 59.9515 81.771C59.9515 80.1222 58.7182 78.7856 57.1968 78.7856C55.6754 78.7856 54.442 80.1222 54.442 81.771C54.442 83.4197 55.6754 84.7563 57.1968 84.7563Z" fill="white"/>
<path d="M161.259 58.8393C162.781 58.8393 164.014 57.5027 164.014 55.854C164.014 54.2052 162.781 52.8687 161.259 52.8687C159.738 52.8687 158.505 54.2052 158.505 55.854C158.505 57.5027 159.738 58.8393 161.259 58.8393Z" fill="white"/>
<path d="M265.45 99.1562L258.091 91.2831C257.733 90.8968 257.308 90.5909 256.841 90.383C256.373 90.175 255.872 90.0691 255.367 90.0713H255.341C254.832 90.0729 254.328 90.1839 253.859 90.3979C253.39 90.612 252.964 90.9247 252.607 91.3181C250.962 93.1227 250.026 95.5482 249.996 98.0849C249.967 100.622 250.846 103.072 252.449 104.921C252.526 105.012 252.607 105.1 252.688 105.187C253.135 105.669 253.629 106.098 254.162 106.465C255.616 107.484 257.313 108.023 259.045 108.017H259.1C260.288 108.012 261.465 107.753 262.56 107.253C263.656 106.752 264.649 106.022 265.482 105.103C266.205 104.309 266.607 103.237 266.601 102.122C266.595 101.008 266.181 99.9409 265.45 99.1562ZM265.024 104.609C263.657 106.101 261.858 107.036 259.93 107.258C258.001 107.48 256.061 106.975 254.436 105.828C253.971 105.495 253.537 105.113 253.14 104.69C251.555 102.993 250.656 100.683 250.642 98.2675C250.628 95.8525 251.5 93.5304 253.066 91.8119C253.364 91.4832 253.719 91.222 254.11 91.0434C254.502 90.8648 254.923 90.7725 255.348 90.7718H255.367C255.788 90.7702 256.205 90.8584 256.594 91.0315C256.983 91.2046 257.337 91.4591 257.636 91.7804L264.994 99.657C265.604 100.31 265.949 101.198 265.954 102.127C265.96 103.055 265.625 103.948 265.024 104.609Z" fill="#3F3D56"/>
<path d="M241.306 73.3162L233.947 65.4396C233.223 64.6608 232.243 64.225 231.223 64.2278H231.2C230.69 64.23 230.186 64.3416 229.716 64.5562C229.246 64.7708 228.82 65.0841 228.463 65.4781C227.102 66.9752 226.22 68.9051 225.946 70.9849C225.671 73.0648 226.019 75.1852 226.937 77.0355L226.941 77.039C227.319 77.7958 227.79 78.4943 228.34 79.1159C228.401 79.1929 228.472 79.27 228.543 79.347C230.233 81.1648 232.519 82.1825 234.9 82.1768H234.959C236.147 82.1715 237.324 81.9109 238.419 81.4102C239.515 80.9094 240.508 80.1785 241.341 79.2595C241.699 78.8667 241.982 78.4014 242.174 77.8902C242.366 77.3789 242.463 76.8317 242.459 76.2798C242.456 75.7279 242.353 75.1821 242.155 74.6736C241.957 74.1651 241.668 73.7039 241.306 73.3162ZM240.879 78.7692C240.106 79.622 239.184 80.3003 238.167 80.7649C237.15 81.2296 236.059 81.4714 234.955 81.4764H234.9C233.243 81.4757 231.623 80.944 230.244 79.9482C228.865 78.9524 227.789 77.537 227.15 75.8798C226.511 74.2227 226.339 72.398 226.655 70.635C226.971 68.8721 227.76 67.2497 228.925 65.9719C229.527 65.3118 230.347 64.9377 231.204 64.9318C232.06 64.9259 232.884 65.2886 233.495 65.9404L240.853 73.8135C241.462 74.4675 241.807 75.3565 241.811 76.2855C241.816 77.2145 241.481 78.1077 240.879 78.7692Z" fill="#3F3D56"/>
<path d="M265.92 101.631L257.808 92.9478C257.276 92.3796 256.557 92.0634 255.811 92.0684C255.064 92.0734 254.349 92.3993 253.824 92.9746C253.166 93.6942 252.646 94.5471 252.294 95.4847C251.941 96.4222 251.762 97.426 251.767 98.4385C251.772 99.451 251.962 100.453 252.324 101.386C252.687 102.319 253.216 103.165 253.881 103.877C254.545 104.588 255.333 105.151 256.199 105.532C257.064 105.914 257.99 106.107 258.925 106.1C259.859 106.093 260.783 105.887 261.644 105.492C262.504 105.098 263.285 104.524 263.941 103.803L265.92 101.631Z" fill="#000066"/>
<path d="M241.777 75.79L233.665 67.1067C233.133 66.5386 232.415 66.2223 231.668 66.2274C230.921 66.2324 230.206 66.5583 229.681 67.1335C229.023 67.8531 228.504 68.7061 228.151 69.6436C227.798 70.5812 227.619 71.5849 227.624 72.5974C227.629 73.61 227.819 74.6115 228.181 75.5446C228.544 76.4778 229.073 77.3243 229.738 78.0358C230.402 78.7474 231.19 79.3099 232.056 79.6913C232.921 80.0728 233.848 80.2655 234.782 80.2587C235.716 80.2519 236.64 80.0455 237.501 79.6514C238.361 79.2574 239.142 78.6833 239.798 77.9621L241.777 75.79Z" fill="#000066"/>
<path d="M257.005 107.04L256.812 107.593C255.9 107.218 255.017 106.842 254.162 106.465C239.011 99.7654 231.778 91.9239 226.94 77.0393L226.937 77.0358C226.708 76.3353 226.485 75.6185 226.268 74.8854L226.779 74.7068C226.95 75.4119 227.199 76.0917 227.522 76.7311C227.787 77.5471 228.06 78.3421 228.34 79.1161C232.887 91.6787 239.593 98.8584 252.449 104.921C253.095 105.225 253.758 105.528 254.436 105.828C255.224 106.384 256.093 106.794 257.005 107.04Z" fill="#3F3D56"/>
<path d="M233.812 81.5396L233.358 82.0381L250.143 100.004L250.597 99.5054L233.812 81.5396Z" fill="#3F3D56"/>
<path d="M91.706 66.6532L91.7146 55.1438L85.4716 55.7484L87.6749 63.0073L79.6772 76.1457C79.1771 76.2674 78.7204 76.544 78.3629 76.9421C78.0054 77.3401 77.7624 77.8422 77.6637 78.3873C77.565 78.9323 77.6147 79.4967 77.8069 80.0117C77.9991 80.5266 78.3253 80.9698 78.7459 81.2873C79.1665 81.6048 79.6632 81.7828 80.1755 81.7996C80.6879 81.8164 81.1936 81.6713 81.6312 81.382C82.0687 81.0927 82.4191 80.6717 82.6397 80.1703C82.8603 79.6689 82.9414 79.1088 82.8733 78.5583L91.706 66.6532Z" fill="#FFB6B6"/>
</g>
<defs>
<clipPath id="clip0_211_2504">
<rect width="289" height="157" fill="white"/>
</clipPath>
</defs>
</svg>
