<svg width="223" height="169" viewBox="0 0 223 169" fill="none" xmlns="http://www.w3.org/2000/svg">
<g clip-path="url(#clip0_632_942)">
<path d="M205.654 153.512C198.371 159.058 189.499 164.676 180.775 167.325C178.261 168.111 175.666 168.613 173.039 168.821C170.584 169.018 168.112 168.827 165.717 168.253C159.421 166.687 153.582 163.945 147.932 160.741C146.086 159.692 144.261 158.596 142.447 157.476C139.486 155.646 136.554 153.752 133.615 151.903C133.174 151.623 132.737 151.348 132.297 151.076H132.294C131.585 150.631 130.873 150.191 130.16 149.758C130.035 149.681 129.909 149.606 129.781 149.529C128.434 148.713 127.064 147.915 125.67 147.136C125.5 147.043 125.329 146.947 125.158 146.853C122.462 145.358 119.691 144.002 116.857 142.79C114.995 142.006 113.109 141.299 111.204 140.696H111.201C110.473 140.467 109.742 140.251 109.008 140.053C106.809 139.45 104.567 139.011 102.302 138.741C99.1809 138.363 96.0241 138.388 92.9094 138.816C92.6986 138.845 92.4905 138.874 92.2798 138.909C83.8501 140.259 76.1567 144.81 67.6896 145.882C67.4149 145.917 67.1428 145.949 66.868 145.973C66.7506 145.984 66.6333 145.997 66.5159 146.005C64.0554 146.215 61.5791 146.155 59.1319 145.824C52.2948 144.922 45.6364 142.124 39.6423 138.597C25.6292 130.351 14.2652 117.677 7.35602 103C6.16957 100.485 5.11618 97.9087 4.20023 95.2827C1.63929 88.0008 0.228972 80.3642 0.0200527 72.648C-0.62818 45.8757 14.5853 19.0154 38.4712 6.90706C62.3597 -5.20128 93.7843 -1.19718 113.05 17.4042C124.737 28.6882 131.499 43.979 140.294 57.6399C149.089 71.2981 161.59 84.3455 177.713 86.3355C185.927 87.3492 194.522 85.3885 202.394 87.9388C206.753 89.3526 210.471 92.0576 213.467 95.5041C215.481 97.843 217.167 100.446 218.477 103.24C219.437 105.261 220.217 107.362 220.806 109.52C220.915 109.917 221.017 110.315 221.115 110.712C225.037 126.729 218.77 143.519 205.654 153.512Z" fill="#F2F2F2"/>
<path d="M74.4706 124.518H49.395C45.6381 124.518 42.5925 127.563 42.5925 131.32V131.32C42.5925 135.077 45.6381 138.122 49.395 138.122H74.4706C78.2275 138.122 81.2731 135.077 81.2731 131.32C81.2731 127.563 78.2275 124.518 74.4706 124.518Z" fill="#3F3D56"/>
<path d="M66.8679 134.654V145.973C64.2921 146.222 61.6961 146.172 59.1318 145.824V134.654H66.8679Z" fill="#3F3D56"/>
<path d="M92.9093 138.816C92.6985 138.845 92.4905 138.874 92.2797 138.909C83.85 140.259 76.1566 144.81 67.6896 145.882C67.4148 145.917 67.1427 145.949 66.8679 145.973C66.7506 145.984 66.6332 145.997 66.5158 146.005C64.4484 143.98 62.381 141.825 60.439 139.592C59.3853 138.383 58.3662 137.151 57.4085 135.903C54.9223 132.68 52.8149 129.367 51.4224 126.112C51.5638 124.552 50.5928 120.943 50.1286 118.179L50.1259 118.176C49.9285 117.016 49.8218 116.007 49.9205 115.359C50.4861 111.619 53.5405 112.049 54.4795 108.383C55.3266 107.68 56.2284 107.046 57.1765 106.487C57.3339 106.393 57.4939 106.3 57.6593 106.207L67.8496 99.1641L71.7443 102.984L77.6718 108.8L84.0954 115.098L78.6428 120.606C78.6428 120.606 83.1991 125.859 88.5264 132.861C89.9562 134.742 91.4421 136.751 92.9093 138.816Z" fill="#2F2E41"/>
<path d="M180.775 134.654V167.325C178.261 168.111 175.666 168.613 173.039 168.821V134.654H180.775Z" fill="#3F3D56"/>
<path d="M190.779 131.986H165.703C161.946 131.986 158.901 135.032 158.901 138.789V138.789C158.901 142.546 161.946 145.591 165.703 145.591H190.779C194.536 145.591 197.581 142.546 197.581 138.789C197.581 135.032 194.536 131.986 190.779 131.986Z" fill="#3F3D56"/>
<path d="M129.781 149.529C128.434 148.712 127.064 147.915 125.67 147.136C125.5 147.042 125.329 146.946 125.158 146.853L126.076 146.461L128.551 145.396L128.575 145.386L128.602 145.476L129.781 149.529Z" fill="#FFB6B6"/>
<path d="M133.614 151.903C133.174 151.623 132.737 151.348 132.297 151.076H132.294C131.584 150.63 130.873 150.191 130.16 149.758C130.035 149.681 129.909 149.606 129.781 149.529C128.434 148.712 127.064 147.915 125.67 147.136C125.5 147.042 125.329 146.946 125.158 146.853C122.462 145.358 119.691 144.002 116.856 142.79C114.994 142.006 113.108 141.299 111.204 140.696H111.201L109.705 138.191L102.969 126.91L101.488 124.432C101.488 124.432 96.4385 125.926 89.2919 127.358C86.691 127.881 83.8153 128.393 80.7982 128.825C77.5731 129.284 74.1905 129.65 70.8293 129.826C69.2261 129.911 67.6282 129.954 66.0543 129.94C61.9861 129.914 58.0781 129.532 54.6555 128.625C53.5138 127.553 50.0725 126.094 47.6077 124.757H47.605C46.5699 124.197 45.711 123.661 45.2601 123.183C42.6619 120.436 44.8813 118.294 42.5712 115.295C42.5401 114.195 42.5963 113.094 42.7392 112.003C42.7632 111.822 42.7873 111.638 42.8166 111.451L43.5449 99.084L48.9548 98.369L57.1871 97.2807L66.1049 96.1016L67.0866 103.79C67.0866 103.79 74.0305 103.438 82.8283 103.555C96.9587 103.747 115.867 105.155 118.428 111.2C118.668 111.769 118.908 112.342 119.148 112.916C119.719 114.287 120.284 115.665 120.845 117.05C122.875 122.066 124.811 127.129 126.58 131.914C127.679 134.891 128.714 137.762 129.666 140.448C130.432 142.609 131.142 144.652 131.79 146.533C132.382 148.251 132.918 149.833 133.396 151.252C133.47 151.473 133.542 151.692 133.614 151.903Z" fill="#2F2E41"/>
<path d="M83.8485 76.9724L66.761 62.4602L77.8783 51.209L85.6344 63.913L114.384 69.6129C115.249 68.9623 116.284 68.5773 117.364 68.5048C118.443 68.4323 119.52 68.6755 120.464 69.2047C121.408 69.7339 122.177 70.5262 122.678 71.4851C123.179 72.444 123.391 73.5279 123.287 74.6048C123.182 75.6818 122.767 76.7051 122.091 77.55C121.415 78.395 120.508 79.025 119.481 79.3634C118.453 79.7017 117.349 79.7338 116.304 79.4556C115.258 79.1774 114.316 78.601 113.592 77.7967L83.8485 76.9724Z" fill="#CCCCCC"/>
<path d="M51.6595 43.3881C49.6847 49.8125 68.492 65.1346 68.492 65.1346C68.701 63.5923 79.3641 76.8917 80.0896 75.6873C82.1515 72.2641 84.4202 63.8025 86.8005 62.721C88.1617 62.1026 80.3527 53.5062 80.3527 53.5062C80.3527 53.5062 76.3692 48.236 71.1097 41.5567C69.6578 39.6408 67.7448 38.1234 65.5487 37.1457C63.3526 36.168 60.9448 35.7619 58.5495 35.9651C58.5495 35.9651 53.6342 36.9638 51.6595 43.3881Z" fill="#3F3D56"/>
<path d="M59.9749 29.1662C66.3578 29.1662 71.5322 23.9918 71.5322 17.609C71.5322 11.2261 66.3578 6.05176 59.9749 6.05176C53.5921 6.05176 48.4177 11.2261 48.4177 17.609C48.4177 23.9918 53.5921 29.1662 59.9749 29.1662Z" fill="#AFAFAF"/>
<path d="M65.7535 36.8046C68.2434 38.2849 69.7328 41.0046 70.5878 43.7721C72.1707 48.8959 73.1235 54.1934 73.4252 59.5476L74.3282 75.5772L85.5126 109.709C75.8195 117.911 39.3844 111.573 39.3844 111.573C39.3844 111.573 38.2659 111.2 39.3844 110.082C40.5028 108.963 41.5916 109.954 40.4732 108.836C39.3548 107.717 40.1257 108.963 40.4986 107.845C40.8714 106.726 40.4986 107.472 40.1258 107.099C39.7529 106.726 43.0119 103.371 43.0119 103.371L40.0294 83.7791L36.3013 44.2609C40.775 38.6687 49.7724 35.3721 49.7724 35.3721L52.0972 31.1875L63.7211 32.1174L65.7535 36.8046Z" fill="#3F3D56"/>
<path d="M69.502 11.4683C70.4002 12.1383 71.0657 13.0731 71.4047 14.1412C71.535 12.3957 71.5433 10.6433 71.4295 8.89676C71.2933 7.66943 70.4292 7.39336 69.4287 7.07347C68.5251 6.78446 67.5032 6.458 67.2283 5.26654C63.5954 1.73236 57.2712 1.91057 52.9431 3.14335C50.5615 3.82173 49.1912 4.6933 49.0686 5.20388L49.0432 5.30898L48.9464 5.35734C47.1107 6.27522 46.7533 9.17372 46.7769 11.4436C46.8217 15.7201 48.2983 20.5772 49.1301 20.9718C49.1742 20.9927 49.1853 20.9845 49.2043 20.9686C50.4569 19.9677 51.985 21.0447 52.6566 21.6302C53.0527 18.9722 54.328 16.5237 56.279 14.6756C58.2299 12.8275 60.7439 11.6865 63.4194 11.4347C64.2931 11.3503 65.1599 11.2049 66.0134 10.9998C66.4464 10.8878 66.8914 10.8294 67.3386 10.8259C68.1084 10.8142 68.8634 11.0384 69.502 11.4683Z" fill="#2F2E41"/>
<path d="M54.9394 94.3851L51.4041 92.5745C51.2147 92.4395 51.0801 92.2409 51.025 92.0149C50.9699 91.7889 50.9979 91.5507 51.104 91.3437C51.21 91.1366 51.3869 90.9747 51.6025 90.8873C51.8181 90.8 52.0579 90.7931 52.2781 90.8679L55.8134 92.6785C56.0028 92.8135 56.1374 93.0121 56.1925 93.2381C56.2476 93.4641 56.2196 93.7023 56.1136 93.9093C56.0075 94.1163 55.8306 94.2783 55.615 94.3657C55.3994 94.453 55.1597 94.4599 54.9394 94.3851Z" fill="#6C63FF"/>
<path d="M43.0411 89.5344L37.2253 67.8834L52.7666 64.9414L51.9308 79.8025L72.3507 100.828C73.4317 100.784 74.5022 101.055 75.4318 101.609C76.3613 102.163 77.1096 102.975 77.5855 103.947C78.0614 104.918 78.2443 106.007 78.1119 107.081C77.9795 108.155 77.5375 109.167 76.8398 109.994C76.1422 110.821 75.2189 111.427 74.1828 111.739C73.1466 112.05 72.0422 112.053 71.0043 111.748C69.9664 111.442 69.0397 110.841 68.3374 110.018C67.6351 109.195 67.1874 108.186 67.0489 107.113L43.0411 89.5344Z" fill="#CCCCCC"/>
<path d="M35.6349 43.6079C30.3597 47.7725 37.1305 71.0671 37.1305 71.0671C38.1788 69.9167 39.397 86.9195 40.6783 86.3405C44.32 84.6951 50.9947 79.0211 53.5679 79.4836C55.0395 79.7481 53.4977 68.2371 53.4977 68.2371C53.4977 68.2371 53.2142 61.6369 52.6812 53.1522C52.575 50.7506 51.8629 48.4149 50.6112 46.3626C49.3596 44.3103 47.609 42.608 45.5224 41.4142C45.5224 41.4142 40.9102 39.4434 35.6349 43.6079Z" fill="#3F3D56"/>
<path d="M218.477 103.241L7.35586 103.001C6.16941 100.485 5.11603 97.9092 4.20007 95.2832L213.467 95.5046C215.481 97.8434 217.167 100.446 218.477 103.241Z" fill="#3F3D56"/>
<path d="M151.234 159.212C150.143 159.74 149.042 160.25 147.932 160.74C146.086 159.692 144.261 158.596 142.447 157.475L149.175 154.52L151.234 159.212Z" fill="#FFB6B6"/>
<path d="M200.286 122.452C199.193 123.92 198.064 125.357 196.901 126.766C195.829 128.065 194.728 129.339 193.599 130.589C193.132 131.106 192.66 131.621 192.177 132.131C191.288 133.083 190.381 134.019 189.453 134.94C187.783 135.465 184.401 136.391 180.775 137.255C178.137 137.882 175.371 138.477 173.039 138.856C171.734 139.09 170.414 139.231 169.088 139.277C167.515 139.29 165.917 139.248 164.313 139.162C162.505 139.066 160.693 138.917 158.904 138.725C154.249 138.237 149.74 137.477 145.851 136.695C144.426 136.412 143.087 136.124 141.855 135.844C139.521 135.318 137.568 134.828 136.154 134.454C134.561 134.038 133.654 133.768 133.654 133.768L129.666 140.448L127.596 143.913L126.076 146.461L125.67 147.136C125.5 147.043 125.329 146.947 125.158 146.853C122.462 145.358 119.691 144.002 116.856 142.79C114.994 142.006 113.108 141.299 111.204 140.696H111.201C110.473 140.467 109.742 140.251 109.008 140.053C109.238 139.437 109.47 138.817 109.705 138.191C110.142 137.026 110.588 135.849 111.044 134.662C112.028 132.091 113.047 129.482 114.095 126.886C114.954 124.755 115.829 122.631 116.715 120.537C117.123 119.571 117.953 118.723 119.113 117.979C119.668 117.629 120.246 117.319 120.845 117.051C124.166 115.538 129.058 114.554 134.449 113.921C134.895 113.871 135.343 113.82 135.794 113.772C140.257 113.303 144.992 113.06 149.42 112.948C151.637 112.892 153.776 112.87 155.766 112.868C156.409 112.868 157.034 112.869 157.642 112.873H157.644C159.285 112.881 160.795 112.905 162.123 112.932C162.382 112.937 162.633 112.945 162.878 112.95H162.881C163.046 112.953 163.209 112.958 163.369 112.961C166.274 113.036 168.056 113.126 168.056 113.126L168.747 107.706L168.888 106.612L169.022 105.572V105.569L169.038 105.438L169.147 105.436L171.068 105.398L187.212 105.084L196.032 104.91L194.634 110.902L192.326 120.788C192.561 122.351 200.366 121.127 200.286 122.452Z" fill="#2F2E41"/>
<path d="M153.224 158.225C152.565 158.561 151.901 158.892 151.234 159.212C150.143 159.74 149.042 160.25 147.932 160.74C146.086 159.692 144.261 158.596 142.447 157.475C139.486 155.645 136.554 153.751 133.614 151.903C133.174 151.622 132.737 151.348 132.297 151.076H132.294C131.083 149.278 129.848 147.405 128.602 145.476C128.583 145.45 128.567 145.423 128.551 145.396C128.231 144.905 127.913 144.411 127.596 143.913C125.604 140.792 123.6 137.537 121.656 134.214L126.58 131.914L135.735 127.641L137.314 126.904L141.855 135.843L145.904 143.817L146.806 145.591L153.224 158.225Z" fill="#2F2E41"/>
<path d="M154.604 115.308L177.946 92.7972L184.415 74.4787L174.873 70.3291C169.971 75.0245 164.673 89.6492 164.673 89.6492L148.61 110.084C148.485 110.127 148.36 110.173 148.237 110.227C147.513 110.546 146.884 111.046 146.411 111.68C145.937 112.313 145.635 113.057 145.533 113.841C145.431 114.625 145.533 115.423 145.83 116.156C146.126 116.889 146.606 117.533 147.225 118.026C147.843 118.519 148.577 118.845 149.358 118.971C150.138 119.097 150.938 119.02 151.68 118.746C152.422 118.473 153.081 118.013 153.593 117.41C154.105 116.808 154.454 116.084 154.604 115.308Z" fill="#AFAFAF"/>
<path d="M172.187 72.3749L184.292 76.2176L184.337 76.21C188.843 75.4554 192.581 68.0971 194.924 62.0573C195.695 60.065 195.68 57.8545 194.884 55.8725C194.087 53.8904 192.567 52.2848 190.632 51.3802C189.2 50.7226 187.613 50.4786 186.049 50.6758C184.486 50.8731 183.009 51.5037 181.785 52.4965L175.569 57.5754L172.187 72.3749Z" fill="#6C63FF"/>
<path d="M200.238 122.723L200.309 122.629C204.085 117.62 198.92 105.216 198.139 103.417L201.651 102.377L201.038 95.6913L200.744 92.7099L203.474 90.1171L203.483 90.0509L205.361 76.6881L207.818 67.8439C208.744 64.5004 208.763 60.9707 207.874 57.6172C206.986 54.2636 205.22 51.207 202.76 48.7611L197.737 43.7746L191.72 34.3562L181.631 34.0957L178.003 40.5404C174.63 41.2289 171.604 43.0792 169.454 45.769C167.305 48.4587 166.166 51.8174 166.238 55.2599L166.58 72.417L162.96 93.6745L162.858 97.5358L159.305 101.285L159.962 105.076L157.304 106.134L156.004 111.521C155.507 112.142 152.227 116.288 152.198 117.444C152.193 117.617 152.317 117.788 152.587 117.981C154.71 119.5 166.575 122.791 171.915 120.813C177.604 118.707 199.897 122.662 200.122 122.702L200.238 122.723Z" fill="#3F3D56"/>
<path d="M185.794 31.2081C193.176 31.2081 199.16 25.224 199.16 17.8423C199.16 10.4606 193.176 4.47656 185.794 4.47656C178.413 4.47656 172.429 10.4606 172.429 17.8423C172.429 25.224 178.413 31.2081 185.794 31.2081Z" fill="#CCCCCC"/>
<path d="M184.164 31.3875C186.234 31.4198 188.302 31.2752 190.348 30.9554C192.375 30.5431 196.91 27.2198 198.174 25.22C199.113 23.7342 199.714 21.4139 200.052 19.7293C200.508 17.4999 200.491 15.1996 200.001 12.9774C199.512 10.7551 198.561 8.66052 197.21 6.82913C196.691 6.06311 195.975 5.45161 195.137 5.05934C195.063 5.03029 194.986 5.00455 194.909 4.98255C193.688 4.66124 192.59 3.98227 191.758 3.03281C191.597 2.84077 191.422 2.66061 191.234 2.49372C190.293 1.69967 189.178 1.13957 187.979 0.859194C186.044 0.341299 183.243 0.855378 179.655 2.38863C177.853 3.15897 175.882 2.88018 174.365 2.55121C174.28 2.53478 174.192 2.54091 174.11 2.56899C174.028 2.59707 173.955 2.64612 173.898 2.71127C173.253 3.31701 172.402 3.65608 171.517 3.66032C170.975 3.68412 170.406 4.43467 169.719 5.41341C169.563 5.63558 169.381 5.89488 169.25 6.05259L169.232 5.74959L168.925 6.08761C168.443 6.61887 168.104 7.26346 167.938 7.96135C167.772 8.65924 167.786 9.38773 167.977 10.079C168.169 10.7703 168.532 11.4018 169.033 11.9148C169.535 12.4278 170.158 12.8056 170.844 13.013C171.39 13.1581 171.948 13.2472 172.512 13.2787C172.853 13.3094 173.206 13.3412 173.544 13.3999C174.63 13.6222 175.639 14.1222 176.474 14.8511C177.309 15.5801 177.94 16.5129 178.307 17.5588C178.393 17.8005 178.534 18.0191 178.719 18.1976C178.904 18.3762 179.127 18.51 179.371 18.5886C179.616 18.6672 179.875 18.6886 180.129 18.6512C180.383 18.6137 180.625 18.5183 180.836 18.3725C181.189 18.0981 181.602 17.913 182.042 17.833C182.481 17.753 182.933 17.7804 183.36 17.913C183.728 18.1179 184.015 18.4433 184.172 18.8346C184.363 19.2706 184.68 19.6398 185.081 19.8952C186.455 20.6035 186.55 23.7411 186.056 26.3568C185.581 28.878 184.641 30.7019 183.77 30.792C183.1 30.8614 183.023 30.909 182.975 31.0275L182.932 31.1336L183.007 31.2328C183.377 31.367 183.772 31.4198 184.164 31.3875Z" fill="#2F2E41"/>
<path d="M175.506 68.3341L170.353 58.0596C162.873 58.5705 148.026 67.2195 148.026 67.2195L119.937 73.1751C119.105 72.8552 118.203 72.7602 117.322 72.8996C116.442 73.039 115.614 73.4079 114.921 73.9692C114.228 74.5304 113.696 75.2643 113.377 76.0968C113.058 76.9293 112.964 77.8311 113.105 78.7115C113.245 79.5918 113.615 80.4196 114.177 81.1116C114.739 81.8036 115.474 82.3352 116.306 82.6531C117.139 82.971 118.041 83.0638 118.921 82.9223C119.802 82.7808 120.629 82.41 121.32 81.847L157.052 79.2858L175.506 68.3341Z" fill="#AFAFAF"/>
<path d="M173.428 70.0205L186.887 60.0184L189.258 51.4748C189.717 49.7958 189.698 48.0219 189.202 46.3534C188.706 44.6849 187.753 43.1884 186.451 42.0329C184.676 40.4786 182.377 39.6563 180.018 39.7324C177.66 39.8085 175.418 40.7773 173.747 42.4428C168.682 47.4983 162.905 54.5512 164.146 59.4418L164.159 59.4914L173.428 70.0205Z" fill="#3F3D56"/>
<path d="M156.767 96.7744H120.754V101.576H156.767V96.7744Z" fill="white"/>
<path d="M64.7339 96.7744H28.7209V101.576H64.7339V96.7744Z" fill="white"/>
<path d="M68.9391 73.6826V96.5452C68.9393 96.8365 69.0552 97.1159 69.2612 97.3219C69.4672 97.5279 69.7465 97.6437 70.0379 97.644H103.918C104.209 97.6437 104.489 97.5279 104.695 97.3219C104.901 97.1159 105.016 96.8365 105.017 96.5452V73.6826C105.016 73.3915 104.9 73.1125 104.694 72.9068C104.488 72.701 104.209 72.5853 103.918 72.585H70.0379C69.7468 72.5853 69.4677 72.701 69.2618 72.9068C69.0558 73.1125 68.9398 73.3915 68.9391 73.6826Z" fill="#3F3D56"/>
<path d="M69.7339 73.9674V96.2635C69.7342 96.4192 69.7961 96.5684 69.9062 96.6784C70.0163 96.7885 70.1655 96.8505 70.3211 96.8507H103.636C103.792 96.8505 103.941 96.7885 104.051 96.6784C104.161 96.5684 104.223 96.4192 104.223 96.2635V73.9674C104.223 73.8115 104.161 73.662 104.051 73.5517C103.941 73.4414 103.792 73.3792 103.636 73.3789H70.3211C70.1653 73.3792 70.0159 73.4414 69.9058 73.5517C69.7957 73.662 69.7339 73.8115 69.7339 73.9674Z" fill="black"/>
<path d="M68.2304 101.004C68.2925 101.082 68.3714 101.145 68.4612 101.188C68.551 101.231 68.6493 101.253 68.7489 101.252H105.026C105.126 101.252 105.224 101.23 105.313 101.187C105.403 101.144 105.482 101.082 105.544 101.005C105.607 100.928 105.651 100.838 105.674 100.742C105.698 100.645 105.699 100.545 105.679 100.448L105.116 97.7728C105.092 97.6637 105.042 97.5622 104.97 97.4775C104.897 97.3928 104.804 97.3276 104.7 97.2879C104.625 97.2582 104.544 97.2431 104.463 97.2432H69.3098C69.2287 97.2431 69.1483 97.2582 69.0729 97.2879C68.9686 97.3276 68.876 97.3928 68.8034 97.4775C68.7308 97.5622 68.6806 97.6637 68.6572 97.7728L68.0941 100.448C68.0741 100.545 68.0759 100.645 68.0995 100.741C68.1231 100.838 68.1678 100.927 68.2304 101.004Z" fill="#2F2E41"/>
<path d="M103.218 98.3955H104.075C104.147 98.3955 104.206 98.3372 104.206 98.2653V97.8553C104.206 97.7834 104.147 97.7251 104.075 97.7251H103.218C103.147 97.7251 103.088 97.7834 103.088 97.8553V98.2653C103.088 98.3372 103.147 98.3955 103.218 98.3955Z" fill="#3F3D56"/>
<path d="M100.984 98.3955H101.841C101.913 98.3955 101.971 98.3372 101.971 98.2653V97.8553C101.971 97.7834 101.913 97.7251 101.841 97.7251H100.984C100.912 97.7251 100.854 97.7834 100.854 97.8553V98.2653C100.854 98.3372 100.912 98.3955 100.984 98.3955Z" fill="#3F3D56"/>
<path d="M98.7492 98.3955H99.6061C99.678 98.3955 99.7363 98.3372 99.7363 98.2653V97.8553C99.7363 97.7834 99.678 97.7251 99.6061 97.7251H98.7492C98.6773 97.7251 98.619 97.7834 98.619 97.8553V98.2653C98.619 98.3372 98.6773 98.3955 98.7492 98.3955Z" fill="#3F3D56"/>
<path d="M96.5146 98.3955H97.3715C97.4434 98.3955 97.5017 98.3372 97.5017 98.2653V97.8553C97.5017 97.7834 97.4434 97.7251 97.3715 97.7251H96.5146C96.4427 97.7251 96.3844 97.7834 96.3844 97.8553V98.2653C96.3844 98.3372 96.4427 98.3955 96.5146 98.3955Z" fill="#3F3D56"/>
<path d="M94.2799 98.3955H95.1367C95.2087 98.3955 95.267 98.3372 95.267 98.2653V97.8553C95.267 97.7834 95.2087 97.7251 95.1367 97.7251H94.2799C94.208 97.7251 94.1496 97.7834 94.1496 97.8553V98.2653C94.1496 98.3372 94.208 98.3955 94.2799 98.3955Z" fill="#3F3D56"/>
<path d="M92.0452 98.3955H92.9021C92.974 98.3955 93.0323 98.3372 93.0323 98.2653V97.8553C93.0323 97.7834 92.974 97.7251 92.9021 97.7251H92.0452C91.9733 97.7251 91.915 97.7834 91.915 97.8553V98.2653C91.915 98.3372 91.9733 98.3955 92.0452 98.3955Z" fill="#3F3D56"/>
<path d="M89.8105 98.3955H90.6674C90.7393 98.3955 90.7976 98.3372 90.7976 98.2653V97.8553C90.7976 97.7834 90.7393 97.7251 90.6674 97.7251H89.8105C89.7386 97.7251 89.6803 97.7834 89.6803 97.8553V98.2653C89.6803 98.3372 89.7386 98.3955 89.8105 98.3955Z" fill="#3F3D56"/>
<path d="M87.5759 98.3955H88.4328C88.5047 98.3955 88.563 98.3372 88.563 98.2653V97.8553C88.563 97.7834 88.5047 97.7251 88.4328 97.7251H87.5759C87.504 97.7251 87.4457 97.7834 87.4457 97.8553V98.2653C87.4457 98.3372 87.504 98.3955 87.5759 98.3955Z" fill="#3F3D56"/>
<path d="M85.3413 98.3955H86.1981C86.2701 98.3955 86.3284 98.3372 86.3284 98.2653V97.8553C86.3284 97.7834 86.2701 97.7251 86.1981 97.7251H85.3413C85.2693 97.7251 85.211 97.7834 85.211 97.8553V98.2653C85.211 98.3372 85.2693 98.3955 85.3413 98.3955Z" fill="#3F3D56"/>
<path d="M83.1065 98.3955H83.9634C84.0353 98.3955 84.0936 98.3372 84.0936 98.2653V97.8553C84.0936 97.7834 84.0353 97.7251 83.9634 97.7251H83.1065C83.0346 97.7251 82.9763 97.7834 82.9763 97.8553V98.2653C82.9763 98.3372 83.0346 98.3955 83.1065 98.3955Z" fill="#3F3D56"/>
<path d="M80.8719 98.3955H81.7288C81.8007 98.3955 81.859 98.3372 81.859 98.2653V97.8553C81.859 97.7834 81.8007 97.7251 81.7288 97.7251H80.8719C80.8 97.7251 80.7417 97.7834 80.7417 97.8553V98.2653C80.7417 98.3372 80.8 98.3955 80.8719 98.3955Z" fill="#3F3D56"/>
<path d="M78.6373 98.3955H79.4942C79.5661 98.3955 79.6244 98.3372 79.6244 98.2653V97.8553C79.6244 97.7834 79.5661 97.7251 79.4942 97.7251H78.6373C78.5654 97.7251 78.5071 97.7834 78.5071 97.8553V98.2653C78.5071 98.3372 78.5654 98.3955 78.6373 98.3955Z" fill="#3F3D56"/>
<path d="M76.4026 98.3955H77.2594C77.3313 98.3955 77.3896 98.3372 77.3896 98.2653V97.8553C77.3896 97.7834 77.3313 97.7251 77.2594 97.7251H76.4026C76.3306 97.7251 76.2723 97.7834 76.2723 97.8553V98.2653C76.2723 98.3372 76.3306 98.3955 76.4026 98.3955Z" fill="#3F3D56"/>
<path d="M74.1679 98.3955H75.0248C75.0967 98.3955 75.155 98.3372 75.155 98.2653V97.8553C75.155 97.7834 75.0967 97.7251 75.0248 97.7251H74.1679C74.096 97.7251 74.0377 97.7834 74.0377 97.8553V98.2653C74.0377 98.3372 74.096 98.3955 74.1679 98.3955Z" fill="#3F3D56"/>
<path d="M71.9333 98.3955H72.7902C72.8621 98.3955 72.9204 98.3372 72.9204 98.2653V97.8553C72.9204 97.7834 72.8621 97.7251 72.7902 97.7251H71.9333C71.8614 97.7251 71.8031 97.7834 71.8031 97.8553V98.2653C71.8031 98.3372 71.8614 98.3955 71.9333 98.3955Z" fill="#3F3D56"/>
<path d="M69.6986 98.3955H70.5554C70.6274 98.3955 70.6857 98.3372 70.6857 98.2653V97.8553C70.6857 97.7834 70.6274 97.7251 70.5554 97.7251H69.6986C69.6266 97.7251 69.5683 97.7834 69.5683 97.8553V98.2653C69.5683 98.3372 69.6266 98.3955 69.6986 98.3955Z" fill="#3F3D56"/>
<path d="M103.245 99.5127H104.102C104.174 99.5127 104.232 99.4544 104.232 99.3825V98.9725C104.232 98.9006 104.174 98.8423 104.102 98.8423H103.245C103.173 98.8423 103.115 98.9006 103.115 98.9725V99.3825C103.115 99.4544 103.173 99.5127 103.245 99.5127Z" fill="#3F3D56"/>
<path d="M101.01 99.5127H101.867C101.939 99.5127 101.997 99.4544 101.997 99.3825V98.9725C101.997 98.9006 101.939 98.8423 101.867 98.8423H101.01C100.938 98.8423 100.88 98.9006 100.88 98.9725V99.3825C100.88 99.4544 100.938 99.5127 101.01 99.5127Z" fill="#3F3D56"/>
<path d="M98.7756 99.5127H99.6325C99.7044 99.5127 99.7627 99.4544 99.7627 99.3825V98.9725C99.7627 98.9006 99.7044 98.8423 99.6325 98.8423H98.7756C98.7037 98.8423 98.6454 98.9006 98.6454 98.9725V99.3825C98.6454 99.4544 98.7037 99.5127 98.7756 99.5127Z" fill="#3F3D56"/>
<path d="M96.541 99.5127H97.3979C97.4698 99.5127 97.5281 99.4544 97.5281 99.3825V98.9725C97.5281 98.9006 97.4698 98.8423 97.3979 98.8423H96.541C96.469 98.8423 96.4107 98.9006 96.4107 98.9725V99.3825C96.4107 99.4544 96.469 99.5127 96.541 99.5127Z" fill="#3F3D56"/>
<path d="M94.3064 99.5127H95.1632C95.2351 99.5127 95.2935 99.4544 95.2935 99.3825V98.9725C95.2935 98.9006 95.2351 98.8423 95.1632 98.8423H94.3064C94.2344 98.8423 94.1761 98.9006 94.1761 98.9725V99.3825C94.1761 99.4544 94.2344 99.5127 94.3064 99.5127Z" fill="#3F3D56"/>
<path d="M92.0716 99.5127H92.9285C93.0004 99.5127 93.0587 99.4544 93.0587 99.3825V98.9725C93.0587 98.9006 93.0004 98.8423 92.9285 98.8423H92.0716C91.9997 98.8423 91.9414 98.9006 91.9414 98.9725V99.3825C91.9414 99.4544 91.9997 99.5127 92.0716 99.5127Z" fill="#3F3D56"/>
<path d="M89.837 99.5127H90.6939C90.7658 99.5127 90.8241 99.4544 90.8241 99.3825V98.9725C90.8241 98.9006 90.7658 98.8423 90.6939 98.8423H89.837C89.7651 98.8423 89.7068 98.9006 89.7068 98.9725V99.3825C89.7068 99.4544 89.7651 99.5127 89.837 99.5127Z" fill="#3F3D56"/>
<path d="M87.6023 99.5127H88.4591C88.531 99.5127 88.5894 99.4544 88.5894 99.3825V98.9725C88.5894 98.9006 88.531 98.8423 88.4591 98.8423H87.6023C87.5303 98.8423 87.472 98.9006 87.472 98.9725V99.3825C87.472 99.4544 87.5303 99.5127 87.6023 99.5127Z" fill="#3F3D56"/>
<path d="M85.3676 99.5127H86.2245C86.2964 99.5127 86.3547 99.4544 86.3547 99.3825V98.9725C86.3547 98.9006 86.2964 98.8423 86.2245 98.8423H85.3676C85.2957 98.8423 85.2374 98.9006 85.2374 98.9725V99.3825C85.2374 99.4544 85.2957 99.5127 85.3676 99.5127Z" fill="#3F3D56"/>
<path d="M83.133 99.5127H83.9899C84.0618 99.5127 84.1201 99.4544 84.1201 99.3825V98.9725C84.1201 98.9006 84.0618 98.8423 83.9899 98.8423H83.133C83.0611 98.8423 83.0028 98.9006 83.0028 98.9725V99.3825C83.0028 99.4544 83.0611 99.5127 83.133 99.5127Z" fill="#3F3D56"/>
<path d="M80.8983 99.5127H81.7551C81.8271 99.5127 81.8854 99.4544 81.8854 99.3825V98.9725C81.8854 98.9006 81.8271 98.8423 81.7551 98.8423H80.8983C80.8263 98.8423 80.768 98.9006 80.768 98.9725V99.3825C80.768 99.4544 80.8263 99.5127 80.8983 99.5127Z" fill="#3F3D56"/>
<path d="M78.6637 99.5127H79.5205C79.5925 99.5127 79.6508 99.4544 79.6508 99.3825V98.9725C79.6508 98.9006 79.5925 98.8423 79.5205 98.8423H78.6637C78.5917 98.8423 78.5334 98.9006 78.5334 98.9725V99.3825C78.5334 99.4544 78.5917 99.5127 78.6637 99.5127Z" fill="#3F3D56"/>
<path d="M76.429 99.5127H77.2859C77.3578 99.5127 77.4161 99.4544 77.4161 99.3825V98.9725C77.4161 98.9006 77.3578 98.8423 77.2859 98.8423H76.429C76.3571 98.8423 76.2988 98.9006 76.2988 98.9725V99.3825C76.2988 99.4544 76.3571 99.5127 76.429 99.5127Z" fill="#3F3D56"/>
<path d="M74.1943 99.5127H75.0512C75.1231 99.5127 75.1814 99.4544 75.1814 99.3825V98.9725C75.1814 98.9006 75.1231 98.8423 75.0512 98.8423H74.1943C74.1224 98.8423 74.0641 98.9006 74.0641 98.9725V99.3825C74.0641 99.4544 74.1224 99.5127 74.1943 99.5127Z" fill="#3F3D56"/>
<path d="M71.9597 99.5127H72.8165C72.8885 99.5127 72.9468 99.4544 72.9468 99.3825V98.9725C72.9468 98.9006 72.8885 98.8423 72.8165 98.8423H71.9597C71.8878 98.8423 71.8294 98.9006 71.8294 98.9725V99.3825C71.8294 99.4544 71.8878 99.5127 71.9597 99.5127Z" fill="#3F3D56"/>
<path d="M69.7251 99.5127H70.5819C70.6539 99.5127 70.7122 99.4544 70.7122 99.3825V98.9725C70.7122 98.9006 70.6539 98.8423 70.5819 98.8423H69.7251C69.6531 98.8423 69.5948 98.9006 69.5948 98.9725V99.3825C69.5948 99.4544 69.6531 99.5127 69.7251 99.5127Z" fill="#3F3D56"/>
<path d="M84.6972 100.854H93.3754C93.4473 100.854 93.5056 100.795 93.5056 100.723V100.313C93.5056 100.241 93.4473 100.183 93.3754 100.183H84.6972C84.6253 100.183 84.567 100.241 84.567 100.313V100.723C84.567 100.795 84.6253 100.854 84.6972 100.854Z" fill="#3F3D56"/>
</g>
<defs>
<clipPath id="clip0_632_942">
<rect width="222.272" height="168.89" fill="white"/>
</clipPath>
</defs>
</svg>
