<svg width="265" height="190" viewBox="0 0 265 190" fill="none" xmlns="http://www.w3.org/2000/svg">
<g clip-path="url(#clip0_632_912)">
<path d="M256.29 55.4092H111.772C109.738 55.411 107.788 56.22 106.349 57.6584C104.911 59.0968 104.102 61.0473 104.1 63.0815V86.5024C104.102 88.5367 104.911 90.4871 106.349 91.9255C107.788 93.364 109.738 94.1729 111.772 94.1748H256.29C258.325 94.1729 260.275 93.364 261.713 91.9255C263.152 90.4871 263.961 88.5367 263.963 86.5024V63.0815C263.961 61.0473 263.152 59.0968 261.713 57.6584C260.275 56.22 258.325 55.411 256.29 55.4092Z" fill="#F2F2F2"/>
<path d="M57.9556 189.085H0.459965C0.337975 189.085 0.220973 189.037 0.134713 188.95C0.0484531 188.864 0 188.747 0 188.625C0 188.503 0.0484531 188.386 0.134713 188.3C0.220973 188.214 0.337975 188.165 0.459965 188.165H57.9556C58.0776 188.165 58.1946 188.214 58.2808 188.3C58.3671 188.386 58.4156 188.503 58.4156 188.625C58.4156 188.747 58.3671 188.864 58.2808 188.95C58.1946 189.037 58.0776 189.085 57.9556 189.085Z" fill="#3F3D56"/>
<path d="M49.5137 45.0664C48.9805 45.4029 48.5276 45.8523 48.1868 46.3828C47.8461 46.9134 47.6258 47.5122 47.5415 48.1371C47.4572 48.7619 47.511 49.3977 47.699 49.9996C47.887 50.6014 48.2046 51.1548 48.6296 51.6206L44.4497 60.5465L49.2544 64.4096L54.9802 51.7216C55.7155 50.9558 56.1442 49.9469 56.1853 48.8861C56.2264 47.8253 55.8769 46.7862 55.2031 45.9659C54.5292 45.1455 53.5779 44.6008 52.5293 44.4351C51.4807 44.2693 50.4078 44.4939 49.5137 45.0664Z" fill="#494949"/>
<path d="M25.4934 48.6885C26.8162 47.8939 28.3942 47.639 29.9 47.9765C31.4057 48.3141 32.7238 49.2183 33.5809 50.5016L42.1338 63.308L45.1031 56.7621C45.2885 56.3533 45.617 56.0264 46.0266 55.843C46.4362 55.6595 46.8988 55.6321 47.3272 55.7659L51.8088 57.1659C52.043 57.239 52.2601 57.3582 52.4475 57.5165C52.6349 57.6748 52.7887 57.869 52.9 58.0876C53.0112 58.3062 53.0777 58.5448 53.0953 58.7895C53.113 59.0341 53.0816 59.2799 53.0029 59.5122L49.9351 68.5709C49.547 69.7168 48.8987 70.7572 48.0409 71.6103C47.1831 72.4634 46.1392 73.1062 44.9912 73.488C43.8432 73.8698 42.6224 73.9804 41.4245 73.811C40.2266 73.6416 39.0842 73.1969 38.0871 72.5117C37.6212 72.1915 37.1913 71.8218 36.805 71.409L24.2008 57.9416C23.5887 57.2876 23.1307 56.5049 22.8602 55.651C22.5897 54.7971 22.5137 53.8935 22.6376 53.0064C22.7615 52.1193 23.0823 51.2711 23.5764 50.524C24.0705 49.7769 24.7255 49.1498 25.4934 48.6885Z" fill="#CCCCCC"/>
<path d="M53.1619 35.4563C53.3915 35.462 53.6094 35.5587 53.7677 35.725C53.926 35.8914 54.0117 36.1138 54.006 36.3434L53.9322 39.316L54.0812 39.3296L54.0277 41.3485L53.8821 41.3304L53.6176 51.9797C53.6086 52.3442 53.4672 52.6929 53.2199 52.9608C52.9726 53.2288 52.6363 53.3976 52.2737 53.4357L45.5022 54.1486C45.3373 54.166 45.1707 54.1471 45.0139 54.0932C44.8571 54.0393 44.714 53.9518 44.5946 53.8368C44.4752 53.7218 44.3824 53.582 44.3228 53.4274C44.2631 53.2727 44.238 53.1069 44.2492 52.9415L45.2762 37.7776C45.2978 37.4591 45.427 37.1574 45.6428 36.9221C45.8586 36.6869 46.148 36.532 46.4634 36.483L53.0004 35.4674C53.0538 35.4587 53.1078 35.455 53.1619 35.4563Z" fill="#3F3D56"/>
<path d="M47.9211 37.035L51.3576 36.5011C51.4195 36.4915 51.4765 36.4618 51.5197 36.4165C51.563 36.3713 51.5901 36.313 51.5969 36.2508C51.6046 36.1803 51.6353 36.1143 51.6843 36.0631C51.7333 36.0118 51.7978 35.9781 51.8679 35.9672L52.5918 35.8548C52.6905 35.8394 52.7915 35.846 52.8875 35.8739C52.9834 35.9018 53.0721 35.9505 53.1472 36.0164C53.2224 36.0823 53.2821 36.164 53.3223 36.2555C53.3624 36.3471 53.382 36.4463 53.3795 36.5462L53.0075 51.9859C53.0029 52.1775 52.9279 52.3607 52.7968 52.5005C52.6657 52.6404 52.4877 52.727 52.2968 52.744L45.5303 53.3456C45.444 53.3533 45.357 53.3422 45.2754 53.3132C45.1937 53.2842 45.1193 53.2379 45.0571 53.1775C44.995 53.1171 44.9466 53.044 44.9154 52.9632C44.8841 52.8823 44.8706 52.7957 44.8759 52.7092L45.7889 37.6855C45.8023 37.4641 45.8911 37.254 46.0404 37.0901C46.1897 36.9261 46.3906 36.8181 46.6098 36.7841L47.3728 36.6655C47.4009 36.7849 47.4729 36.8892 47.5746 36.9577C47.6762 37.0262 47.8 37.0538 47.9211 37.035Z" fill="white"/>
<path d="M31.9777 183.501L37.236 183.5L39.7368 163.218L31.9758 163.219L31.9777 183.501Z" fill="#AFAFAF"/>
<path d="M47.3777 188.383L30.8513 188.384L30.8507 181.999L40.9919 181.998C41.8304 181.998 42.6607 182.163 43.4355 182.484C44.2102 182.805 44.9141 183.275 45.5071 183.868C46.1001 184.461 46.5705 185.165 46.8914 185.939C47.2124 186.714 47.3776 187.544 47.3777 188.383Z" fill="#2F2E41"/>
<path d="M15.8163 183.501L21.0746 183.5L23.5754 163.218L15.8145 163.219L15.8163 183.501Z" fill="#AFAFAF"/>
<path d="M31.2163 188.383L14.6899 188.384L14.6893 181.999L24.8305 181.998C26.524 181.998 28.1482 182.671 29.3457 183.868C30.5433 185.065 31.2162 186.689 31.2163 188.383Z" fill="#2F2E41"/>
<path d="M31.2164 41.7956C37.4557 41.7956 42.5136 36.7377 42.5136 30.4984C42.5136 24.2591 37.4557 19.2012 31.2164 19.2012C24.9771 19.2012 19.9192 24.2591 19.9192 30.4984C19.9192 36.7377 24.9771 41.7956 31.2164 41.7956Z" fill="#CCCCCC"/>
<path d="M37.0305 60.7238C36.9382 57.8193 36.1205 54.984 34.652 52.4765C33.1834 49.9689 31.1106 47.8687 28.6225 46.3673C25.7039 44.6474 22.5092 43.9767 19.9676 46.5183C18.4415 48.0827 17.2193 49.9171 16.3633 51.928C14.0123 57.408 13.8585 63.5821 15.9337 69.1723L21.983 85.8846L35.984 87.4014C36.2469 87.4299 36.513 87.4013 36.7639 87.3177C37.0149 87.234 37.2448 87.0973 37.4381 86.9167C37.6314 86.7361 37.7835 86.516 37.884 86.2713C37.9845 86.0266 38.0311 85.7631 38.0205 85.4988L37.0305 60.7238Z" fill="#2F2E41"/>
<path d="M22.8709 83.8271C22.8709 83.8271 12.4106 87.7321 15.1454 104.267C17.5995 119.105 15.6493 168.354 15.223 178.309C15.2027 178.784 15.3669 179.248 15.6811 179.604C15.9953 179.96 16.4351 180.181 16.9085 180.22L23.0145 180.729C23.4928 180.769 23.9676 180.62 24.3379 180.315C24.7081 180.009 24.9444 179.571 24.9964 179.094L28.1499 150.129C28.1622 150.015 28.2165 149.91 28.3021 149.834C28.3876 149.758 28.4984 149.717 28.6127 149.719C28.727 149.72 28.8368 149.764 28.9205 149.842C29.0042 149.92 29.0559 150.026 29.0655 150.14L31.4153 178.012C31.4549 178.481 31.6731 178.918 32.0251 179.231C32.377 179.544 32.8358 179.711 33.3068 179.696L38.4355 179.534C38.6772 179.526 38.915 179.471 39.1353 179.371C39.3557 179.272 39.5542 179.129 39.7196 178.953C39.885 178.777 40.0139 178.569 40.0992 178.343C40.1844 178.117 40.2241 177.876 40.2162 177.634L37.1951 85.7585L22.8709 83.8271Z" fill="#2F2E41"/>
<path d="M33.4838 29.7539C37.2621 31.3035 42.0871 29.4934 43.9139 25.841C45.7406 22.1886 44.2949 17.2421 40.7888 15.1484C37.2826 13.0546 32.2422 14.1278 29.8931 17.4682C27.9822 14.0256 22.9762 13.1479 19.5391 15.0689C16.1021 16.9898 14.2299 21.0134 14.0079 24.9446C13.7858 28.8758 14.981 32.7485 16.4389 36.4061C18.7973 42.3224 26.3894 45.508 32.2632 43.0458C29.5742 39.0408 30.105 33.1798 33.4838 29.7539Z" fill="#2F2E41"/>
<path d="M48.7092 46.4363C48.6086 46.4365 48.5107 46.404 48.4303 46.3437L48.4253 46.3399L47.3749 45.5364C47.3263 45.4991 47.2854 45.4526 47.2548 45.3995C47.2241 45.3465 47.2042 45.2879 47.1962 45.2271C47.1881 45.1663 47.1922 45.1046 47.208 45.0454C47.2238 44.9861 47.2512 44.9306 47.2885 44.882C47.3258 44.8333 47.3723 44.7925 47.4254 44.7618C47.4784 44.7312 47.537 44.7112 47.5978 44.7032C47.6586 44.6952 47.7203 44.6992 47.7795 44.7151C47.8388 44.7309 47.8943 44.7582 47.9429 44.7955L48.6233 45.3173L50.231 43.2198C50.2682 43.1712 50.3147 43.1304 50.3678 43.0997C50.4208 43.0691 50.4794 43.0491 50.5402 43.0411C50.6009 43.0331 50.6626 43.0371 50.7218 43.053C50.781 43.0688 50.8365 43.0961 50.8851 43.1334C50.9832 43.2088 51.0478 43.3201 51.064 43.4428C51.0802 43.5655 51.047 43.6896 50.9718 43.7878L49.0808 46.2537C49.0371 46.3106 48.9808 46.3565 48.9165 46.3881C48.8521 46.4197 48.7813 46.436 48.7096 46.4358L48.7092 46.4363Z" fill="#6C63FF"/>
<path d="M256.426 0H111.908C109.874 0.00184269 107.924 0.810776 106.485 2.24922C105.047 3.68767 104.238 5.63809 104.236 7.67236V31.0932C104.238 33.1275 105.047 35.0779 106.485 36.5164C107.924 37.9548 109.874 38.7637 111.908 38.7656H256.426C258.461 38.7637 260.411 37.9548 261.849 36.5164C263.288 35.0779 264.097 33.1275 264.099 31.0932V7.67236C264.097 5.63809 263.288 3.68766 261.849 2.24922C260.411 0.810769 258.461 0.00184269 256.426 0ZM263.291 31.0932C263.288 32.9131 262.564 34.6577 261.278 35.9445C259.991 37.2313 258.246 37.9554 256.426 37.958H111.908C110.088 37.9554 108.344 37.2313 107.057 35.9445C105.77 34.6577 105.046 32.9131 105.043 31.0932V7.67236C105.046 5.8525 105.77 4.10793 107.057 2.8211C108.344 1.53427 110.088 0.810189 111.908 0.807613H256.426C258.246 0.810189 259.991 1.53427 261.278 2.8211C262.564 4.10793 263.288 5.8525 263.291 7.67236V31.0932Z" fill="#3F3D56"/>
<path d="M141.318 32.7369C138.677 32.7369 136.095 31.9538 133.899 30.4865C131.703 29.0191 129.991 26.9336 128.98 24.4935C127.97 22.0534 127.705 19.3684 128.22 16.778C128.736 14.1876 130.008 11.8082 131.875 9.94058C133.743 8.073 136.122 6.80117 138.712 6.2859C141.303 5.77063 143.988 6.03508 146.428 7.04579C148.868 8.05651 150.954 9.7681 152.421 11.9641C153.888 14.1602 154.671 16.742 154.671 19.3831C154.667 22.9235 153.259 26.3178 150.756 28.8212C148.252 31.3247 144.858 32.7329 141.318 32.7369Z" fill="#2F2E41"/>
<path d="M236.708 30.2852H167.298C166.441 30.2852 165.62 29.9448 165.014 29.339C164.408 28.7331 164.068 27.9115 164.068 27.0547C164.068 26.1979 164.408 25.3762 165.014 24.7704C165.62 24.1646 166.441 23.8242 167.298 23.8242H236.708C237.565 23.8242 238.386 24.1646 238.992 24.7704C239.598 25.3762 239.938 26.1979 239.938 27.0547C239.938 27.9115 239.598 28.7331 238.992 29.339C238.386 29.9448 237.565 30.2852 236.708 30.2852Z" fill="#CCCCCC"/>
<path d="M190.27 16.5557H167.298C166.441 16.5557 165.62 16.2153 165.014 15.6095C164.408 15.0037 164.068 14.182 164.068 13.3252C164.068 12.4684 164.408 11.6467 165.014 11.0409C165.62 10.4351 166.441 10.0947 167.298 10.0947H190.27C191.127 10.0947 191.948 10.4351 192.554 11.0409C193.16 11.6467 193.5 12.4684 193.5 13.3252C193.5 14.182 193.16 15.0037 192.554 15.6095C191.948 16.2153 191.127 16.5557 190.27 16.5557Z" fill="#CCCCCC"/>
<path d="M140.636 24.0798C140.304 24.0803 139.982 23.9732 139.717 23.7744L139.7 23.7621L136.239 21.1144C136.079 20.9916 135.944 20.8384 135.842 20.6635C135.741 20.4885 135.675 20.2953 135.648 20.0949C135.622 19.8945 135.635 19.6907 135.687 19.4954C135.739 19.3001 135.829 19.1169 135.952 18.9564C136.075 18.796 136.229 18.6613 136.404 18.5602C136.579 18.4591 136.772 18.3935 136.973 18.3672C137.173 18.3409 137.377 18.3544 137.572 18.4069C137.768 18.4594 137.951 18.5498 138.111 18.6731L140.353 20.3922L145.65 13.481C145.773 13.3207 145.926 13.1863 146.101 13.0852C146.276 12.9842 146.469 12.9186 146.669 12.8921C146.869 12.8657 147.073 12.879 147.268 12.9311C147.463 12.9833 147.646 13.0734 147.806 13.1962L147.806 13.1966L147.773 13.2422L147.807 13.1966C148.13 13.445 148.342 13.8115 148.395 14.2158C148.449 14.62 148.339 15.0288 148.092 15.3526L141.86 23.4781C141.716 23.6654 141.531 23.8169 141.319 23.9209C141.107 24.0249 140.873 24.0787 140.637 24.078L140.636 24.0798Z" fill="white"/>
<path d="M194.331 63.0156H49.8127C47.7785 63.0175 45.828 63.8264 44.3896 65.2648C42.9511 66.7033 42.1422 68.6537 42.1404 70.688V94.1088C42.1422 96.1431 42.9511 98.0935 44.3896 99.532C45.828 100.97 47.7785 101.779 49.8127 101.781H194.331C196.365 101.779 198.316 100.97 199.754 99.532C201.192 98.0935 202.001 96.1431 202.003 94.1088V70.688C202.001 68.6537 201.192 66.7033 199.754 65.2648C198.316 63.8264 196.365 63.0175 194.331 63.0156Z" fill="white"/>
<path d="M194.331 63.0156H49.8127C47.7785 63.0175 45.828 63.8264 44.3896 65.2648C42.9511 66.7033 42.1422 68.6537 42.1404 70.688V94.1088C42.1422 96.1431 42.9511 98.0935 44.3896 99.532C45.828 100.97 47.7785 101.779 49.8127 101.781H194.331C196.365 101.779 198.316 100.97 199.754 99.532C201.192 98.0935 202.001 96.1431 202.003 94.1088V70.688C202.001 68.6537 201.192 66.7033 199.754 65.2648C198.316 63.8264 196.365 63.0175 194.331 63.0156ZM201.196 94.1088C201.193 95.9287 200.469 97.6733 199.182 98.9601C197.895 100.247 196.151 100.971 194.331 100.974H49.8127C47.9929 100.971 46.2483 100.247 44.9615 98.9601C43.6746 97.6733 42.9505 95.9287 42.948 94.1088V70.688C42.9505 68.8681 43.6746 67.1235 44.9615 65.8367C46.2483 64.5499 47.9929 63.8258 49.8127 63.8232H194.331C196.151 63.8258 197.895 64.5499 199.182 65.8367C200.469 67.1235 201.193 68.8681 201.196 70.688V94.1088Z" fill="#3F3D56"/>
<path d="M79.2223 95.7516C76.5812 95.7516 73.9994 94.9684 71.8033 93.5011C69.6073 92.0338 67.8957 89.9482 66.8849 87.5081C65.8742 85.068 65.6097 82.383 66.125 79.7926C66.6402 77.2022 67.9121 74.8228 69.7796 72.9552C71.6472 71.0877 74.0266 69.8158 76.617 69.3005C79.2074 68.7853 81.8924 69.0497 84.3325 70.0604C86.7726 71.0712 88.8582 72.7828 90.3255 74.9788C91.7929 77.1748 92.576 79.7566 92.576 82.3978C92.572 85.9382 91.1638 89.3324 88.6604 91.8359C86.157 94.3393 82.7627 95.7475 79.2223 95.7516Z" fill="#2F2E41"/>
<path d="M174.613 93.3008H105.203C104.346 93.3008 103.524 92.9604 102.919 92.3546C102.313 91.7488 101.972 90.9271 101.972 90.0703C101.972 89.2135 102.313 88.3919 102.919 87.786C103.524 87.1802 104.346 86.8398 105.203 86.8398H174.613C175.469 86.8398 176.291 87.1802 176.897 87.786C177.503 88.3919 177.843 89.2135 177.843 90.0703C177.843 90.9271 177.503 91.7488 176.897 92.3546C176.291 92.9604 175.469 93.3008 174.613 93.3008Z" fill="#CCCCCC"/>
<path d="M128.175 79.5713H105.203C104.779 79.5713 104.359 79.4877 103.967 79.3254C103.575 79.163 103.219 78.9251 102.919 78.6251C102.619 78.3251 102.381 77.969 102.218 77.5771C102.056 77.1851 101.972 76.765 101.972 76.3408C101.972 75.9166 102.056 75.4965 102.218 75.1046C102.381 74.7126 102.619 74.3565 102.919 74.0565C103.219 73.7566 103.575 73.5186 103.967 73.3563C104.359 73.1939 104.779 73.1104 105.203 73.1104H128.175C129.031 73.1104 129.853 73.4507 130.459 74.0565C131.065 74.6624 131.405 75.484 131.405 76.3408C131.405 77.1976 131.065 78.0193 130.459 78.6251C129.853 79.2309 129.031 79.5713 128.175 79.5713Z" fill="#CCCCCC"/>
<path d="M78.5403 87.0954C78.209 87.096 77.8864 86.9888 77.6213 86.79L77.6049 86.7777L74.1438 84.13C73.9831 84.0073 73.8482 83.854 73.7469 83.6791C73.6455 83.5042 73.5796 83.3109 73.553 83.1105C73.5263 82.9101 73.5395 82.7064 73.5916 82.511C73.6438 82.3157 73.734 82.1325 73.857 81.9721C73.98 81.8116 74.1335 81.677 74.3086 81.5759C74.4837 81.4748 74.677 81.4092 74.8774 81.3829C75.0779 81.3565 75.2816 81.37 75.4769 81.4225C75.6721 81.475 75.8551 81.5654 76.0154 81.6887L78.2573 83.4079L83.5548 76.4966C83.6777 76.3363 83.8309 76.2019 84.0057 76.1008C84.1805 75.9998 84.3735 75.9342 84.5737 75.9078C84.7738 75.8813 84.9772 75.8946 85.1723 75.9468C85.3673 75.9989 85.5502 76.089 85.7104 76.2119L85.7109 76.2122L85.678 76.2578L85.7118 76.2122C86.035 76.4606 86.2465 76.8272 86.2998 77.2314C86.3532 77.6356 86.2439 78.0444 85.9962 78.3682L79.765 86.4938C79.6209 86.681 79.4355 86.8325 79.2234 86.9365C79.0112 87.0405 78.7779 87.0943 78.5416 87.0936L78.5403 87.0954Z" fill="white"/>
<path d="M45.1264 68.2987C44.5456 68.0531 43.9181 67.9378 43.288 67.9609C42.6579 67.9841 42.0405 68.1451 41.4793 68.4326C40.9182 68.7202 40.4269 69.1273 40.0401 69.6252C39.6533 70.1232 39.3804 70.6999 39.2406 71.3148L29.5259 72.979L29.0974 79.1292L42.7833 76.5863C43.8318 76.7527 44.9049 76.5287 45.7992 75.9568C46.6936 75.3849 47.3471 74.5048 47.6359 73.4832C47.9247 72.4617 47.8288 71.3696 47.3663 70.4141C46.9038 69.4586 46.1068 68.7059 45.1264 68.2987Z" fill="#494949"/>
<path d="M28.4392 50.6457C29.8468 51.2781 30.957 52.4281 31.5395 53.8571C32.1221 55.2861 32.1323 56.8844 31.568 58.3207L25.9368 72.6542L33.0063 71.3548C33.4477 71.2737 33.9036 71.3567 34.2881 71.5883C34.6726 71.8198 34.9592 72.184 35.0939 72.6121L36.5032 77.0908C36.5768 77.3248 36.6029 77.5711 36.5799 77.8153C36.557 78.0595 36.4854 78.2967 36.3694 78.5128C36.2535 78.729 36.0954 78.9198 35.9047 79.074C35.7139 79.2281 35.4942 79.3426 35.2585 79.4107L26.0698 82.0637C24.9075 82.3993 23.6832 82.461 22.493 82.2438C21.3028 82.0266 20.1792 81.5366 19.2103 80.812C18.2414 80.0875 17.4536 79.1483 16.9088 78.0681C16.364 76.9879 16.0769 75.7961 16.0702 74.5863C16.067 74.021 16.1251 73.457 16.2435 72.9042L20.1044 54.8672C20.2919 53.9913 20.6729 53.1685 21.2196 52.4589C21.7662 51.7493 22.4647 51.171 23.2638 50.7663C24.0628 50.3615 24.9423 50.1406 25.8378 50.1198C26.7333 50.0989 27.6221 50.2786 28.4392 50.6457Z" fill="#CCCCCC"/>
</g>
<defs>
<clipPath id="clip0_632_912">
<rect width="264.099" height="189.085" fill="white"/>
</clipPath>
</defs>
</svg>
