<svg width="316" height="171" viewBox="0 0 316 171" fill="none" xmlns="http://www.w3.org/2000/svg">
<g clip-path="url(#clip0_632_875)">
<path d="M282.702 169.432H73.9167C70.7639 169.432 68.2018 166.87 68.2018 163.717V46.2393C68.2018 43.0866 70.7639 40.5244 73.9167 40.5244H282.702C285.855 40.5244 288.417 43.0866 288.417 46.2393V163.717C288.417 166.87 285.855 169.432 282.702 169.432ZM73.9167 44.2444C72.8146 44.2444 71.9218 45.1372 71.9218 46.2393V163.717C71.9218 164.819 72.8146 165.712 73.9167 165.712H282.702C283.804 165.712 284.697 164.819 284.697 163.717V46.2393C284.697 45.1372 283.804 44.2444 282.702 44.2444H73.9167Z" fill="#D5D5D6"/>
<path d="M126.22 98.0459H116.148V123.658H126.22V98.0459Z" fill="#0F06AB"/>
<path d="M142.542 95.5859H132.47V123.658H142.542V95.5859Z" fill="#0F06AB"/>
<path d="M158.863 105.192H148.791V123.658H158.863V105.192Z" fill="#0F06AB"/>
<path d="M175.185 99.4912H165.113V123.657H175.185V99.4912Z" fill="#0F06AB"/>
<path d="M191.506 104.374H181.434V123.653H191.506V104.374Z" fill="#0F06AB"/>
<path d="M207.828 89.9873H197.756V123.658H207.828V89.9873Z" fill="#0F06AB"/>
<path d="M224.149 95.5859H214.077V123.658H224.149V95.5859Z" fill="#0F06AB"/>
<path d="M240.471 90.708H230.399V123.658H240.471V90.708Z" fill="#0F06AB"/>
<path d="M82.2309 56.8135H156.566C157.236 56.8135 157.78 57.3575 157.78 58.0271C157.78 58.6967 157.236 59.2408 156.566 59.2408H82.2309C81.5613 59.2408 81.0172 58.6967 81.0172 58.0271C81.0172 57.3575 81.5613 56.8135 82.2309 56.8135Z" fill="#D5D5D6"/>
<path d="M315.559 169.433C315.559 169.819 315.248 170.13 314.862 170.13H0.697502C0.311551 170.13 0 169.819 0 169.433C0 169.047 0.311551 168.735 0.697502 168.735H314.862C315.248 168.735 315.559 169.047 315.559 169.433Z" fill="#2E2E41"/>
<path d="M62.1707 28.2164L71.3079 31.2203V18.0654H63.017L62.1707 28.2164Z" fill="#F3A3A6"/>
<path d="M70.178 21.7065C75.2064 21.7065 79.2827 17.6302 79.2827 12.6018C79.2827 7.57339 75.2064 3.49707 70.178 3.49707C65.1496 3.49707 61.0732 7.57339 61.0732 12.6018C61.0732 17.6302 65.1496 21.7065 70.178 21.7065Z" fill="#F3A3A6"/>
<path d="M67.8576 13.3132L69.1131 14.8385L71.3823 10.8673C71.3823 10.8673 74.2792 11.0161 74.2792 8.86783C74.2792 6.71953 76.939 6.65908 76.939 6.65908C76.939 6.65908 80.7009 0.0886107 72.9075 1.81842C72.9075 1.81842 67.4995 -1.88764 64.8118 1.27901C64.8118 1.27901 56.5673 5.43148 58.9249 12.6622L62.8449 20.1116L63.733 18.4236C63.733 18.4236 63.1936 11.3416 67.8576 13.3132Z" fill="#2F2E43"/>
<path d="M67.016 152.832H59.6597V163.267H67.016V152.832Z" fill="#F3A3A6"/>
<path d="M66.2022 169.242C64.942 169.358 58.6506 169.851 58.3344 168.41C58.0461 167.084 58.4692 165.699 58.5297 165.513C59.1342 159.496 59.3574 159.426 59.4922 159.384C59.7061 159.324 60.3339 159.617 61.3476 160.272L61.4127 160.314L61.4266 160.388C61.4452 160.481 61.8963 162.69 64.026 162.355C65.4861 162.123 65.9604 161.802 66.1138 161.644C65.9883 161.588 65.8348 161.491 65.7279 161.318C65.5698 161.072 65.5419 160.756 65.6442 160.379C65.9185 159.379 66.7416 157.901 66.7741 157.84L66.8671 157.673L75.2278 163.313L80.3894 164.787C80.78 164.899 81.0915 165.178 81.2496 165.55C81.4682 166.071 81.3333 166.675 80.9148 167.052C79.9755 167.894 78.1155 169.34 76.1579 169.516C75.6371 169.563 74.9489 169.582 74.1769 169.582C70.9452 169.582 66.2347 169.247 66.1975 169.242H66.2022Z" fill="#2F2E43"/>
<path d="M44.0656 137.167L37.4143 145.207L43.0824 149.896L49.7337 141.856L44.0656 137.167Z" fill="#F3A3A6"/>
<path d="M38.6556 153.985C37.614 153.269 32.4478 149.642 33.1221 148.331C33.7452 147.126 34.9542 146.331 35.1216 146.224C39.4229 141.974 39.6414 142.063 39.7716 142.118C39.9762 142.207 40.2692 142.835 40.6365 143.983L40.6598 144.053L40.6226 144.118C40.5761 144.202 39.5159 146.192 41.3712 147.289C42.6453 148.043 43.2173 148.094 43.4312 148.07C43.3707 147.95 43.3149 147.773 43.3382 147.573C43.3707 147.285 43.5521 147.02 43.8776 146.796C44.7285 146.201 46.3002 145.587 46.37 145.559L46.5467 145.49L49.3925 155.166L52.4289 159.593C52.6568 159.928 52.7219 160.342 52.6056 160.732C52.4429 161.272 51.9546 161.653 51.3873 161.676C50.1272 161.728 47.7743 161.653 46.1514 160.542C45.7236 160.249 45.1796 159.826 44.5844 159.333C42.0966 157.273 38.6789 154.013 38.651 153.985H38.6556Z" fill="#2F2E43"/>
<path d="M79.1804 72.3447H53.9495L59.5574 155.747H67.9693L79.1851 72.3447H79.1804Z" fill="#2F2E43"/>
<path d="M74.0421 76.9389L79.1804 72.3447L76.6089 118.217L47.8765 145.55L40.7108 139.63L57.4555 117.906L74.0421 76.9389Z" fill="#2F2E43"/>
<path d="M74.0421 23.2874L61.5801 21.2646L57.7113 28.0304C52.7916 36.6329 50.7874 46.5933 51.9918 56.428L53.9494 72.3543H79.1804L74.0421 23.2921V23.2874Z" fill="#0F06AB"/>
<path d="M63.9237 87.3642C64.4398 89.9357 63.4773 92.2839 61.78 92.6094C60.0781 92.9303 58.2832 91.1075 57.767 88.5314C57.5485 87.5037 57.5857 86.4435 57.8786 85.4345L55.8326 74.5023L61.1802 73.6699L62.6263 84.537C63.2866 85.3694 63.733 86.3366 63.9237 87.3689V87.3642Z" fill="#F3A3A6"/>
<path d="M57.4183 84.4027L49.5645 60.1389V60.1017L52.5312 35.1172C52.9869 31.2902 56.2326 28.4072 60.0828 28.4072C62.4403 28.4072 64.6258 29.4721 66.0767 31.3321C67.5275 33.1921 68.0343 35.5682 67.4624 37.8607L62.2218 58.8183L63.4726 82.6031L57.4137 84.4027H57.4183Z" fill="#0F06AB"/>
</g>
<defs>
<clipPath id="clip0_632_875">
<rect width="315.559" height="170.13" fill="white"/>
</clipPath>
</defs>
</svg>
