<svg width="103" height="218" viewBox="0 0 103 218" fill="none" xmlns="http://www.w3.org/2000/svg">
<path d="M26.7298 18.1134C27.5499 24.7305 32.135 30.1864 38.8027 30.1864C42.0047 30.1864 45.0755 28.9144 47.3396 26.6503C49.6037 24.3862 50.8757 21.3154 50.8757 18.1134C50.8757 11.4457 45.4418 6.65694 38.8027 6.04048C31.7582 5.38637 25.6768 9.61794 26.7298 18.1134Z" fill="#2F2E41"/>
<path d="M44.3945 212.548L48.992 212.548L51.179 194.814L44.3936 194.815L44.3945 212.548Z" fill="#FFB6B6"/>
<path d="M44.2328 217.344L58.3707 217.344V217.165C58.3705 215.706 57.7908 214.306 56.7588 213.274C55.7268 212.242 54.3272 211.662 52.8678 211.662L50.285 209.703L45.4667 211.663L44.2325 211.663L44.2328 217.344Z" fill="#2F2E41"/>
<path d="M26.285 212.548L30.8825 212.548L33.0695 194.814L26.2841 194.815L26.285 212.548Z" fill="#FFB6B6"/>
<path d="M26.1233 217.344L40.2612 217.344V217.165C40.261 215.706 39.6813 214.306 38.6493 213.274C37.6173 212.242 36.2177 211.662 34.7583 211.662L32.1755 209.703L27.3572 211.663L26.123 211.663L26.1233 217.344Z" fill="#2F2E41"/>
<path d="M60.2155 101.481L63.4659 112.625L59.6367 159.823C59.6367 159.823 61.6086 162.774 60.2155 162.774C58.8225 162.774 57.0362 163.429 58.1616 165.191C59.2869 166.953 55.4405 173.28 55.4405 173.28L49.9999 206.887L43.0677 206.785C43.0677 206.785 39.5433 204.821 41.5212 202.836C43.4991 200.851 44.8921 200.851 43.0348 198.993C41.1774 197.136 41.1774 197.695 41.1774 196.255C41.1774 194.814 39.3165 177.209 43.7295 170.456L42.3998 142.923L39.268 169.93L32.8192 205.958L26.1411 205.903C26.1411 205.903 23.0566 202.93 23.0623 200.73C23.068 198.529 24.968 198.346 23.5537 197.044C22.1393 195.743 22.1393 175.747 26.3184 164.632C26.3184 164.632 28.6824 158.422 26.313 156.294C23.9436 154.166 26.3101 151.731 26.3101 151.731C26.3101 151.731 30.0628 150.374 26.3067 146.466C22.5506 142.557 26.2864 114.914 26.2864 114.914C26.2864 114.914 22.1803 103.755 26.3389 99.3676C30.4975 94.98 60.2155 101.481 60.2155 101.481Z" fill="#2F2E41"/>
<path d="M2.32362 120.682L8.12294 106.667L12.6921 109.205L9.9327 123.462C10.2091 124.365 10.228 125.328 9.98737 126.241C9.74675 127.155 9.25611 127.983 8.57062 128.633C7.88513 129.282 7.03198 129.728 6.10705 129.92C5.18212 130.111 4.22208 130.041 3.3349 129.717C2.44771 129.393 1.66856 128.827 1.08499 128.085C0.501421 127.342 0.136582 126.451 0.0315134 125.513C-0.0735552 124.574 0.0852994 123.624 0.490218 122.771C0.895136 121.918 1.53006 121.194 2.32362 120.682Z" fill="#FFB6B6"/>
<path d="M99.6382 9.85625L90.8142 22.1927L86.9391 18.6851L92.857 5.42427C92.7925 4.48192 92.9921 3.54026 93.4334 2.70514C93.8747 1.87003 94.5403 1.17456 95.3552 0.696948C96.1701 0.219331 97.102 -0.0215075 98.0463 0.00150795C98.9906 0.0245234 99.9097 0.310483 100.7 0.827233C101.491 1.34398 102.122 2.07104 102.522 2.92666C102.922 3.78228 103.076 4.73256 102.965 5.67064C102.855 6.60872 102.485 7.49743 101.897 8.23685C101.31 8.97627 100.527 9.53708 99.6382 9.85625Z" fill="#FFB6B6"/>
<path d="M61.0912 102.624C66.8145 111.501 38.0451 122.767 27.0062 118.244C25.0732 117.452 18.4241 114.837 22.969 111.21C27.5139 107.583 22.4421 107.073 22.3222 104.712C22.242 103.133 23.4641 99.6709 22.189 99.8194C20.914 99.9678 19.4216 97.7851 22.1985 96.8457C24.9754 95.9064 22.2283 95.0498 22.2526 94.1582C22.5182 84.4277 29.9839 68.9503 29.9839 68.9503L16.5314 103.338C16.5314 103.338 16.6307 109.287 14.9152 107.469C13.1997 105.651 13.3245 111.536 13.3245 111.536C13.3245 111.536 10.7736 113.316 12.2405 114.307C13.7074 115.297 10.6613 118.344 10.6613 118.344L3.55371 117.836C3.55371 117.836 3.66499 112.556 4.87856 111.388C6.09212 110.221 5.49603 108.383 5.49603 108.383C5.49603 108.383 8.65569 105.586 6.5374 103.315C3.81304 100.395 13.746 51.0626 17.1739 51.5512C17.6585 49.1926 18.7859 47.0139 20.4314 45.256C22.0769 43.4981 24.1765 42.2294 26.498 41.5902L34.1746 39.4766L35.5378 34.0681H46.347L48.2298 37.6219L56.4477 41.3304C57.9957 39.1464 59.1524 36.8449 65.491 36.0989C65.491 36.0989 82.5708 20.5587 81.7369 19.3453C80.903 18.1319 83.5507 15.2911 83.5507 15.2911C83.5507 15.2911 85.8118 14.551 84.5359 14.1559C83.26 13.7608 85.6717 12.8473 85.6717 12.8473C85.6717 12.8473 87.9053 12.2603 86.8518 11.4875C85.7984 10.7147 90.3675 10.207 90.3675 10.207L96.2958 15.044L95.0976 17.0757C95.0976 17.0757 95.8282 19.8423 94.8747 18.8323C93.9213 17.8223 93.7418 20.7533 93.7418 20.7533C93.7418 20.7533 93.2549 23.9629 90.3675 24.9298C87.4801 25.8968 85.2907 35.0835 85.2907 35.0835C78.4812 43.9373 70.445 50.844 60.9219 55.3908C64.6333 59.6508 61.0912 102.624 61.0912 102.624Z" fill="#000066"/>
<path d="M40.7058 32.4116C46.6184 32.4116 51.4116 27.6184 51.4116 21.7058C51.4116 15.7931 46.6184 11 40.7058 11C34.7931 11 30 15.7931 30 21.7058C30 27.6184 34.7931 32.4116 40.7058 32.4116Z" fill="#FFB6B6"/>
<path d="M29.4554 21.9896C29.7944 24.316 31.7771 27.5618 31.3128 27.5618C30.8484 27.5618 27.547 17.9715 30.8484 17.3462C33.2432 16.8926 33.7785 17.2905 36.0166 16.32L35.7009 16.6172C37.1821 17.6944 39.2438 17.0304 40.934 16.3293C42.6289 15.6327 44.6859 14.9687 46.1718 16.0414C47.1051 16.7147 47.4998 17.8848 48.0803 18.8785C48.6607 19.8769 49.7333 20.8195 50.8385 20.513C51.7254 20.2669 52.2361 19.2732 52.2315 18.3538C52.2269 17.4344 51.0297 16.5598 51.4328 15.7349C52.6277 13.2904 51.5532 11.6242 48.9486 10.4739C48.0013 10.3299 47.0541 10.1829 46.1068 10.0327C46.6032 9.34521 47.205 8.74032 47.8899 8.24038C47.6005 7.49842 47.1001 6.85753 46.4504 6.39693C45.6935 5.94652 44.7556 5.97901 43.878 6.02545C41.9184 6.12761 39.9604 6.22976 38.004 6.33192C36.5553 6.40621 35.0554 6.49444 33.7599 7.15845C32.144 7.98963 31.0853 9.6102 30.3144 11.2586C28.5871 14.9641 28.861 17.9452 29.4554 21.9896Z" fill="#2F2E41"/>
</svg>
