<svg width="297" height="216" viewBox="0 0 297 216" fill="none" xmlns="http://www.w3.org/2000/svg">
<g clip-path="url(#clip0_211_2332)">
<path d="M252.828 169.269C259.164 163.129 268.588 160.042 276.493 163.485C268.384 168.327 262.129 176.097 258.834 185.42C257.576 189.021 256.525 193.167 253.429 195.095C251.503 196.294 249.107 196.353 246.948 195.774C244.788 195.195 242.809 194.034 240.856 192.885L240.301 192.871C242.795 184.1 246.492 175.409 252.828 169.269Z" fill="#004553"/>
<path d="M276.449 163.671C269.448 164.644 262.91 167.965 257.763 173.162C256.637 174.259 255.678 175.541 254.923 176.959C254.229 178.367 253.898 179.948 253.964 181.54C253.998 183.025 254.193 184.54 253.891 186.009C253.726 186.758 253.416 187.461 252.98 188.072C252.545 188.683 251.994 189.188 251.364 189.555C249.817 190.511 248.043 190.812 246.298 191.042C244.361 191.298 242.345 191.53 240.669 192.698C240.465 192.84 240.273 192.493 240.476 192.351C243.393 190.318 247.085 191.058 250.222 189.701C251.686 189.068 252.981 187.957 253.439 186.277C253.84 184.807 253.64 183.245 253.594 181.741C253.508 180.19 253.776 178.639 254.376 177.225C255.062 175.77 255.973 174.45 257.07 173.324C259.502 170.745 262.297 168.594 265.351 166.948C268.827 165.05 272.579 163.805 276.446 163.267C276.685 163.234 276.687 163.638 276.449 163.671Z" fill="white"/>
<path d="M259.329 171.384C258.635 170.337 258.31 169.059 258.412 167.778C258.514 166.497 259.036 165.297 259.884 164.392C260.056 164.209 260.328 164.489 260.156 164.671C259.364 165.513 258.878 166.631 258.786 167.824C258.693 169.016 259 170.206 259.651 171.176C259.793 171.387 259.469 171.593 259.329 171.384Z" fill="white"/>
<path d="M253.855 180.789C256.26 181.248 258.739 180.714 260.795 179.295C260.999 179.154 261.191 179.501 260.988 179.642C258.845 181.115 256.265 181.664 253.763 181.181C253.524 181.135 253.617 180.743 253.855 180.789Z" fill="white"/>
<path d="M268.857 165.585C269.047 166.05 269.342 166.457 269.714 166.77C270.086 167.083 270.525 167.291 270.991 167.376C271.23 167.419 271.136 167.811 270.899 167.768C270.385 167.672 269.9 167.441 269.488 167.096C269.076 166.752 268.749 166.304 268.535 165.792C268.511 165.746 268.504 165.691 268.516 165.64C268.528 165.588 268.558 165.544 268.6 165.515C268.643 165.488 268.694 165.48 268.742 165.493C268.79 165.506 268.832 165.539 268.857 165.585Z" fill="white"/>
<path d="M285.198 193.095C285.048 193.073 284.898 193.051 284.746 193.031C282.729 192.743 280.694 192.632 278.66 192.698C278.503 192.701 278.344 192.706 278.187 192.713C273.289 192.93 268.471 194.122 263.978 196.23C262.191 197.071 260.466 198.057 258.818 199.179C256.542 200.728 254.189 202.603 251.645 203.236C251.38 203.305 251.111 203.356 250.841 203.39L240.329 193.601C240.315 193.566 240.299 193.533 240.286 193.498L239.849 193.128C239.931 193.064 240.016 192.999 240.097 192.934C240.144 192.897 240.194 192.862 240.241 192.824C240.273 192.8 240.305 192.776 240.333 192.752C240.343 192.744 240.354 192.736 240.363 192.73C240.39 192.706 240.418 192.687 240.444 192.666C240.921 192.302 241.401 191.942 241.885 191.584C241.887 191.582 241.887 191.582 241.892 191.582C245.553 188.82 249.505 186.535 253.667 184.774C253.792 184.724 253.919 184.67 254.048 184.624C255.923 183.875 257.851 183.291 259.813 182.879C260.889 182.658 261.974 182.495 263.064 182.391C265.883 182.129 268.722 182.345 271.478 183.032C276.972 184.402 281.998 187.647 284.974 192.706C285.05 192.836 285.124 192.963 285.198 193.095Z" fill="#004553"/>
<path d="M285.059 193.217C278.924 189.46 271.845 187.878 264.826 188.695C263.312 188.843 261.829 189.245 260.432 189.889C259.09 190.563 257.94 191.612 257.102 192.925C256.298 194.133 255.605 195.469 254.542 196.446C253.991 196.938 253.349 197.298 252.66 197.504C251.97 197.71 251.247 197.757 250.539 197.641C248.769 197.403 247.183 196.495 245.662 195.549C243.972 194.499 242.232 193.379 240.239 193.226C239.998 193.208 240.039 192.806 240.28 192.824C243.747 193.09 246.281 196.071 249.545 197.019C251.068 197.461 252.725 197.412 254.031 196.368C255.174 195.454 255.889 194.077 256.694 192.846C257.494 191.552 258.576 190.488 259.847 189.747C261.209 189.029 262.675 188.565 264.182 188.376C267.568 187.892 271.004 187.984 274.363 188.648C278.201 189.382 281.894 190.818 285.282 192.892C285.492 193.02 285.267 193.344 285.059 193.217Z" fill="white"/>
<path d="M267.072 188.289C267.104 187.004 267.56 185.774 268.358 184.817C269.157 183.86 270.245 183.24 271.43 183.066C271.669 183.032 271.73 183.431 271.49 183.466C270.387 183.625 269.373 184.203 268.631 185.095C267.889 185.988 267.469 187.136 267.445 188.333C267.44 188.593 267.066 188.548 267.072 188.289Z" fill="white"/>
<path d="M257.435 192.255C259.099 194.179 261.377 195.357 263.813 195.556C264.055 195.575 264.014 195.977 263.773 195.958C261.238 195.746 258.87 194.515 257.142 192.509C256.978 192.317 257.271 192.065 257.435 192.255Z" fill="white"/>
<path d="M277.926 189.829C277.817 190.324 277.824 190.839 277.947 191.33C278.069 191.821 278.303 192.271 278.627 192.641C278.793 192.83 278.499 193.082 278.334 192.894C277.977 192.484 277.72 191.986 277.584 191.444C277.448 190.902 277.437 190.333 277.552 189.786C277.559 189.733 277.585 189.685 277.623 189.652C277.662 189.619 277.71 189.602 277.76 189.606C277.809 189.612 277.854 189.639 277.885 189.681C277.917 189.723 277.931 189.776 277.926 189.829Z" fill="white"/>
<path d="M86.9674 175.376C92.1555 166.913 101.436 160.792 110.782 162.109C103.361 169.713 98.6813 179.895 97.5695 190.853C97.155 195.081 97.1033 199.829 94.2914 202.817C92.5418 204.676 89.9941 205.456 87.5347 205.483C85.0752 205.509 82.6577 204.86 80.2723 204.215L79.6747 204.367C80.0729 194.24 81.7793 183.839 86.9674 175.376Z" fill="#004553"/>
<path d="M110.782 162.322C103.546 165.457 97.4123 170.965 93.2524 178.062C92.3316 179.573 91.638 181.231 91.1972 182.974C90.8188 184.687 90.8739 186.478 91.3566 188.16C91.7775 189.738 92.3779 191.3 92.4346 192.961C92.4519 193.812 92.3018 194.657 91.9942 195.441C91.6866 196.225 91.2283 196.93 90.6495 197.51C89.2423 198.995 87.4226 199.849 85.6161 200.617C83.6103 201.469 81.5144 202.321 80.0233 204.072C79.8426 204.284 79.547 203.97 79.7274 203.758C82.3217 200.711 86.4613 200.398 89.4654 198.008C90.8672 196.893 91.965 195.317 92.0206 193.383C92.0693 191.692 91.4514 190.08 91.0125 188.486C90.5191 186.852 90.4053 185.114 90.6809 183.422C91.0378 181.66 91.6708 179.977 92.5529 178.443C94.4875 174.957 96.9198 171.82 99.7606 169.147C102.987 166.077 106.678 163.622 110.674 161.89C110.922 161.783 111.028 162.215 110.782 162.322Z" fill="white"/>
<path d="M94.4668 175.692C93.4542 174.78 92.7762 173.51 92.5537 172.11C92.3312 170.71 92.5788 169.27 93.2523 168.048C93.3893 167.801 93.7524 168.019 93.6151 168.266C92.986 169.403 92.7555 170.744 92.9652 172.047C93.1748 173.351 93.8108 174.531 94.7584 175.374C94.9641 175.558 94.6714 175.875 94.4668 175.692Z" fill="white"/>
<path d="M91.0453 187.39C93.7371 187.16 96.2496 185.848 98.0817 183.715C98.2631 183.503 98.5588 183.817 98.3776 184.029C96.4672 186.245 93.85 187.604 91.0483 187.837C90.7813 187.859 90.7797 187.412 91.0453 187.39Z" fill="white"/>
<path d="M103.158 166.64C103.482 167.08 103.902 167.428 104.381 167.651C104.86 167.874 105.383 167.965 105.903 167.917C106.17 167.892 106.171 168.339 105.906 168.364C105.331 168.414 104.754 168.312 104.224 168.067C103.694 167.822 103.228 167.441 102.867 166.958C102.829 166.915 102.808 166.859 102.808 166.8C102.807 166.742 102.827 166.685 102.865 166.642C102.903 166.6 102.956 166.576 103.011 166.576C103.066 166.575 103.119 166.598 103.158 166.64Z" fill="white"/>
<path d="M127.751 191.174C127.585 191.195 127.419 191.216 127.252 191.24C125.02 191.536 122.814 192.026 120.657 192.706C120.489 192.755 120.32 192.808 120.154 192.863C114.972 194.56 110.127 197.277 105.867 200.876C104.173 202.309 102.583 203.88 101.111 205.573C99.0776 207.911 97.0459 210.621 94.4883 212.058C94.223 212.211 93.9492 212.346 93.6684 212.463L79.8931 205.139C79.8696 205.105 79.8443 205.075 79.8206 205.042L79.2582 204.776C79.3284 204.683 79.4032 204.588 79.4734 204.495C79.514 204.441 79.5576 204.389 79.5982 204.334C79.6262 204.299 79.6544 204.263 79.6777 204.23C79.687 204.218 79.6965 204.206 79.7042 204.197C79.7276 204.163 79.7526 204.135 79.7744 204.104C80.1909 203.573 80.6115 203.044 81.0363 202.516C81.0378 202.513 81.0378 202.513 81.0424 202.511C84.2887 198.505 87.8746 194.754 91.8758 191.708C91.9962 191.616 92.118 191.521 92.2447 191.433C94.0554 190.071 95.9665 188.87 97.9591 187.842C99.0518 187.284 100.17 186.785 101.31 186.348C104.257 185.224 107.349 184.606 110.475 184.516C116.705 184.337 122.919 186.304 127.411 190.825C127.526 190.941 127.638 191.055 127.751 191.174Z" fill="#004553"/>
<path d="M127.634 191.345C120.101 189.163 112.12 189.59 104.825 192.563C103.244 193.173 101.762 194.048 100.434 195.154C99.1732 196.277 98.2146 197.742 97.6582 199.398C97.1106 200.931 96.7155 202.567 95.8309 203.93C95.3685 204.62 94.7757 205.197 94.0912 205.624C93.4067 206.051 92.6461 206.317 91.8592 206.405C89.9038 206.68 87.9732 206.184 86.1009 205.627C84.022 205.009 81.8719 204.332 79.7008 204.765C79.4377 204.817 79.3774 204.375 79.6401 204.323C83.4174 203.57 86.8981 206 90.6345 206.037C92.378 206.054 94.1369 205.507 95.2642 203.998C96.25 202.679 96.6587 200.993 97.2008 199.436C97.7215 197.812 98.6041 196.35 99.7714 195.177C101.043 194.002 102.491 193.067 104.053 192.414C107.549 190.884 111.248 189.954 115.013 189.659C119.308 189.296 123.629 189.726 127.789 190.931C128.047 191.006 127.89 191.42 127.634 191.345Z" fill="white"/>
<path d="M107.121 191.457C106.824 190.073 106.993 188.62 107.599 187.358C108.206 186.096 109.209 185.107 110.431 184.567C110.679 184.459 110.847 184.868 110.599 184.976C109.46 185.476 108.526 186.398 107.963 187.574C107.401 188.751 107.248 190.105 107.532 191.392C107.594 191.671 107.183 191.735 107.121 191.457Z" fill="white"/>
<path d="M97.8407 198.582C100.119 200.141 102.859 200.72 105.516 200.203C105.78 200.152 105.84 200.594 105.577 200.645C102.811 201.178 99.96 200.569 97.5931 198.94C97.3676 198.785 97.6165 198.427 97.8407 198.582Z" fill="white"/>
<path d="M119.129 189.856C119.141 190.418 119.282 190.967 119.539 191.455C119.797 191.944 120.163 192.356 120.606 192.654C120.833 192.806 120.584 193.164 120.358 193.013C119.871 192.681 119.467 192.225 119.181 191.686C118.895 191.148 118.736 190.542 118.718 189.922C118.712 189.863 118.727 189.805 118.759 189.758C118.792 189.711 118.84 189.679 118.893 189.668C118.948 189.66 119.003 189.675 119.047 189.71C119.091 189.745 119.121 189.798 119.129 189.856Z" fill="white"/>
<path d="M123.891 111.93C124.235 111.562 124.5 111.117 124.667 110.626C124.834 110.136 124.899 109.612 124.858 109.092C124.816 108.571 124.669 108.067 124.426 107.615C124.184 107.162 123.852 106.772 123.455 106.473L128.877 78.2524L123.027 80.237L118.665 107.538C118.241 108.29 118.088 109.182 118.235 110.047C118.382 110.912 118.82 111.689 119.464 112.23C120.108 112.772 120.914 113.04 121.73 112.985C122.546 112.929 123.315 112.554 123.891 111.93Z" fill="#FFB6B6"/>
<path d="M136.424 36.4962L132.8 33.5546C132.8 33.5546 129.603 33.3111 129.037 39.5106C128.471 45.7101 124.926 69.5035 124.926 69.5035L119.381 97.122L127.057 98.9339L132.996 69.1285L138.941 48.5658L136.424 36.4962Z" fill="#E6E6E6"/>
<path d="M133.663 87.6005L116.281 73.0658C116.01 72.8389 115.834 72.5057 115.792 72.1394C115.749 71.7731 115.843 71.4036 116.054 71.112L127.88 54.7549C128.091 54.4637 128.401 54.2745 128.742 54.2286C129.082 54.1828 129.426 54.2841 129.697 54.5104L147.079 69.0451C147.35 69.272 147.526 69.6051 147.568 69.9714C147.611 70.3377 147.517 70.7072 147.306 70.9989L135.48 87.356C135.269 87.6471 134.959 87.8364 134.618 87.8822C134.278 87.9281 133.934 87.8267 133.663 87.6005Z" fill="#3F3D56"/>
<path d="M133.567 86.0964L117.66 72.7947C117.42 72.5932 117.263 72.2974 117.225 71.9722C117.188 71.647 117.271 71.3189 117.458 71.0599L128.179 56.2315C128.367 55.973 128.642 55.8049 128.944 55.7642C129.247 55.7235 129.552 55.8135 129.793 56.0144L145.7 69.3161C145.94 69.5176 146.097 69.8134 146.135 70.1386C146.172 70.4638 146.089 70.7919 145.902 71.0509L135.181 85.8793C134.993 86.1378 134.718 86.3059 134.416 86.3466C134.113 86.3873 133.808 86.2973 133.567 86.0964Z" fill="white"/>
<path d="M119.745 72.4175C119.685 72.3671 119.646 72.2932 119.637 72.2119C119.627 72.1306 119.648 72.0486 119.695 71.9838L125.104 64.5033C125.15 64.4386 125.219 64.3965 125.295 64.3864C125.332 64.3813 125.37 64.3843 125.407 64.395C125.443 64.4058 125.477 64.4241 125.507 64.449C125.537 64.474 125.562 64.5049 125.58 64.5402C125.599 64.5755 125.611 64.6144 125.616 64.6546C125.62 64.6949 125.618 64.7358 125.608 64.7749C125.598 64.814 125.58 64.8507 125.557 64.8827L120.149 72.3632C120.102 72.4279 120.033 72.4699 119.958 72.48C119.882 72.4902 119.806 72.4677 119.745 72.4175Z" fill="#E4E4E4"/>
<path d="M120.642 73.1671C120.582 73.1167 120.543 73.0428 120.533 72.9615C120.524 72.8802 120.545 72.7981 120.591 72.7334L126 65.2529C126.047 65.1882 126.116 65.1461 126.191 65.1359C126.267 65.1258 126.343 65.1483 126.403 65.1986C126.463 65.2489 126.503 65.3229 126.512 65.4042C126.521 65.4856 126.5 65.5676 126.454 65.6323L121.045 73.1128C120.998 73.1775 120.93 73.2195 120.854 73.2296C120.778 73.2398 120.702 73.2173 120.642 73.1671Z" fill="#E4E4E4"/>
<path d="M124.602 69.6788C124.542 69.6284 124.503 69.5544 124.494 69.4731C124.484 69.3918 124.505 69.3098 124.552 69.2451L126.896 66.0024C126.92 65.9703 126.948 65.9434 126.981 65.9233C127.014 65.9032 127.05 65.8902 127.088 65.8851C127.125 65.88 127.163 65.883 127.2 65.8937C127.236 65.9045 127.27 65.9228 127.3 65.9478C127.33 65.9727 127.355 66.0037 127.373 66.039C127.392 66.0744 127.404 66.1133 127.409 66.1536C127.413 66.1939 127.411 66.2348 127.401 66.274C127.391 66.3132 127.373 66.3498 127.35 66.3818L125.006 69.6245C124.959 69.6891 124.89 69.7311 124.814 69.7413C124.739 69.7515 124.663 69.729 124.602 69.6788Z" fill="#E4E4E4"/>
<path d="M125.811 76.042C125.751 75.9917 125.712 75.9177 125.702 75.8364C125.693 75.7551 125.714 75.6731 125.761 75.6084L134.299 63.799C134.322 63.7669 134.351 63.7401 134.384 63.72C134.417 63.7 134.453 63.6871 134.49 63.682C134.528 63.677 134.566 63.6799 134.602 63.6907C134.638 63.7014 134.673 63.7198 134.702 63.7447C134.732 63.7696 134.757 63.8006 134.776 63.8359C134.794 63.8711 134.806 63.91 134.811 63.9503C134.816 63.9905 134.813 64.0314 134.803 64.0705C134.793 64.1097 134.776 64.1463 134.753 64.1784L126.214 75.9878C126.167 76.0524 126.099 76.0944 126.023 76.1046C125.947 76.1147 125.871 76.0923 125.811 76.042Z" fill="#E4E4E4"/>
<path d="M126.708 76.7917C126.647 76.7413 126.608 76.6673 126.599 76.586C126.589 76.5047 126.61 76.4227 126.657 76.358L135.196 64.5485C135.219 64.5165 135.248 64.4897 135.28 64.4696C135.313 64.4496 135.349 64.4366 135.387 64.4316C135.424 64.4266 135.462 64.4295 135.499 64.4402C135.535 64.451 135.569 64.4694 135.599 64.4943C135.629 64.5192 135.654 64.5502 135.672 64.5854C135.691 64.6207 135.703 64.6596 135.708 64.6999C135.712 64.7401 135.71 64.781 135.7 64.8202C135.69 64.8593 135.672 64.8959 135.649 64.928L127.111 76.7374C127.064 76.802 126.995 76.844 126.92 76.8542C126.844 76.8644 126.768 76.8419 126.708 76.7917Z" fill="#E4E4E4"/>
<path d="M128.742 78.4931C128.682 78.4428 128.643 78.3688 128.634 78.2875C128.624 78.2062 128.645 78.1242 128.692 78.0595L137.23 66.2501C137.254 66.218 137.282 66.1912 137.315 66.1711C137.348 66.1511 137.384 66.1382 137.422 66.1331C137.459 66.1281 137.497 66.131 137.533 66.1418C137.57 66.1525 137.604 66.1709 137.634 66.1958C137.663 66.2207 137.688 66.2517 137.707 66.287C137.726 66.3222 137.738 66.3611 137.742 66.4014C137.747 66.4417 137.744 66.4825 137.734 66.5217C137.724 66.5608 137.707 66.5974 137.684 66.6295L129.146 78.4389C129.099 78.5035 129.03 78.5455 128.954 78.5557C128.879 78.5659 128.803 78.5434 128.742 78.4931Z" fill="#E4E4E4"/>
<path d="M129.639 79.2427C129.579 79.1923 129.54 79.1184 129.53 79.0371C129.521 78.9558 129.542 78.8737 129.588 78.809L138.127 66.9996C138.15 66.9676 138.179 66.9407 138.211 66.9207C138.244 66.9006 138.28 66.8877 138.318 66.8826C138.355 66.8776 138.393 66.8805 138.43 66.8913C138.466 66.9021 138.5 66.9204 138.53 66.9453C138.56 66.9702 138.585 67.0012 138.603 67.0365C138.622 67.0718 138.634 67.1107 138.639 67.1509C138.643 67.1912 138.641 67.2321 138.631 67.2712C138.621 67.3103 138.604 67.347 138.58 67.379L130.042 79.1884C129.995 79.253 129.926 79.295 129.851 79.3052C129.775 79.3154 129.699 79.2929 129.639 79.2427Z" fill="#E4E4E4"/>
<path d="M131.674 80.9443C131.613 80.8939 131.574 80.8199 131.565 80.7386C131.556 80.6573 131.576 80.5753 131.623 80.5106L140.162 68.7012C140.185 68.6692 140.214 68.6423 140.246 68.6223C140.279 68.6022 140.315 68.5893 140.353 68.5842C140.39 68.5792 140.428 68.5821 140.465 68.5929C140.501 68.6037 140.535 68.622 140.565 68.6469C140.595 68.6718 140.62 68.7028 140.638 68.7381C140.657 68.7734 140.669 68.8122 140.674 68.8525C140.678 68.8928 140.676 68.9336 140.666 68.9728C140.656 69.0119 140.639 69.0485 140.615 69.0806L132.077 80.89C132.03 80.9546 131.961 80.9966 131.886 81.0068C131.81 81.017 131.734 80.9945 131.674 80.9443Z" fill="#E4E4E4"/>
<path d="M132.57 81.6938C132.51 81.6434 132.471 81.5695 132.461 81.4882C132.452 81.4069 132.473 81.3248 132.519 81.2601L141.058 69.4507C141.105 69.3863 141.174 69.3445 141.249 69.3345C141.325 69.3245 141.401 69.347 141.461 69.3972C141.521 69.4474 141.56 69.5212 141.569 69.6023C141.579 69.6835 141.558 69.7654 141.512 69.8301L132.973 81.6395C132.926 81.7042 132.858 81.7462 132.782 81.7563C132.706 81.7665 132.63 81.744 132.57 81.6938Z" fill="#E4E4E4"/>
<path d="M118.299 95.4086C118.365 95.4086 118.417 95.3518 118.417 95.2817C118.417 95.2117 118.365 95.1548 118.299 95.1548C118.234 95.1548 118.181 95.2117 118.181 95.2817C118.181 95.3518 118.234 95.4086 118.299 95.4086Z" fill="white"/>
<path d="M135.492 7.97722C135.077 10.3751 134.397 12.7109 133.465 14.9347C128.131 27.0697 143.321 23.1143 148.75 23.1143C154.685 23.1143 160.364 26.4707 159.497 11.5572C159.126 5.18676 154.685 0 148.75 0C143.68 0 136.552 2.42331 135.492 7.97722Z" fill="#2F2E41"/>
<path d="M154.282 185.954H149.226L146.819 164.978H154.282V185.954Z" fill="#FFB6B6"/>
<path d="M156.951 195.376H153.325L152.678 191.694L151.02 195.376H141.402C140.941 195.376 140.492 195.218 140.12 194.924C139.749 194.63 139.475 194.216 139.337 193.743C139.2 193.269 139.207 192.761 139.358 192.293C139.508 191.824 139.794 191.419 140.173 191.137L147.854 185.433V181.71L155.933 182.229L156.951 195.376Z" fill="#2F2E41"/>
<path d="M184.325 179.091L180.267 182.336L166.697 167.048L172.686 162.258L184.325 179.091Z" fill="#FFB6B6"/>
<path d="M191.695 184.939L188.785 187.266L186.223 184.727L186.935 188.745L179.217 194.917C178.847 195.213 178.399 195.374 177.938 195.377C177.477 195.379 177.027 195.223 176.654 194.932C176.282 194.64 176.005 194.227 175.866 193.755C175.727 193.282 175.731 192.774 175.879 192.305L178.878 182.798L176.812 179.811L183.583 175.043L191.695 184.939Z" fill="#2F2E41"/>
<path d="M137.72 89.4159L161.725 85.3951L156.951 69.9511H137.72V89.4159Z" fill="#FFB6B6"/>
<path d="M160.17 77.7295C160.17 77.7295 169.764 86.6439 165.337 112.057L159.933 136.957L174.658 164.449L167.17 168.84L149.025 141.719L140.722 120.773L136.33 84.064L160.17 77.7295Z" fill="#2F2E41"/>
<path d="M145.298 126.742L144.721 136.354L146.411 164.815L154.798 167.92L156.386 138.759L145.298 126.742Z" fill="#2F2E41"/>
<path d="M142.72 26.313L151.999 26.7023L155.697 33.3039L164.134 35.0752L159.097 62.4779L160.024 78.0752L151.622 78.0201C145.568 77.9804 139.713 80.3459 135.18 84.663L135.431 64.4165L131.818 49.3027L132.63 33.455L139.417 32.5426L142.72 26.313Z" fill="#E6E6E6"/>
<path d="M147.861 23.1115C152.684 23.1115 156.594 18.9068 156.594 13.72C156.594 8.53321 152.684 4.32849 147.861 4.32849C143.038 4.32849 139.128 8.53321 139.128 13.72C139.128 18.9068 143.038 23.1115 147.861 23.1115Z" fill="#FFB6B6"/>
<path d="M141.93 4.14666C143.46 3.1434 145.213 2.60068 147.005 2.57528C148.797 2.54987 150.563 3.0427 152.117 4.00223C153.672 4.96177 154.958 6.35276 155.841 8.02978C156.724 9.70679 157.173 11.6082 157.139 13.5353C152.689 14.7368 148.014 15.6562 143.268 13.8226L142.148 10.873L141.487 13.8248C140.042 14.4601 138.593 14.9975 137.144 13.8187C137.085 11.8971 137.496 9.99245 138.336 8.29515C139.176 6.59784 140.415 5.16735 141.93 4.14666Z" fill="#2F2E41"/>
<path d="M162.519 97.0096L163.696 108.499C163.778 108.786 163.944 109.036 164.168 109.215C164.392 109.393 164.664 109.489 164.943 109.489H170.369C170.648 109.489 170.92 109.393 171.144 109.215C171.368 109.036 171.534 108.786 171.616 108.499L172.591 99.6929C172.872 99.8413 173.182 99.9157 173.496 99.9101C173.809 99.9044 174.117 99.8188 174.394 99.6604C174.67 99.5019 174.908 99.2751 175.087 98.9986C175.267 98.7221 175.382 98.4038 175.425 98.0698C175.467 97.7358 175.436 97.3958 175.332 97.0776C175.229 96.7594 175.056 96.4721 174.83 96.2395C174.603 96.0068 174.328 95.8353 174.027 95.7392C173.727 95.6431 173.41 95.625 173.101 95.6865C172.98 95.5319 172.828 95.4078 172.657 95.3229C172.486 95.2379 172.3 95.1941 172.112 95.1946H163.766C163.562 95.1946 163.36 95.2461 163.178 95.345C162.996 95.4439 162.838 95.5873 162.717 95.7639C162.595 95.9404 162.514 96.1451 162.48 96.3615C162.446 96.5778 162.459 96.7998 162.519 97.0096ZM172.761 99.0974L173.358 97.0096C173.428 96.7686 173.434 96.512 173.378 96.2672C173.404 96.2658 173.428 96.259 173.454 96.259C173.829 96.259 174.188 96.4193 174.453 96.7044C174.719 96.9896 174.868 97.3764 174.868 97.7797C174.868 98.183 174.719 98.5698 174.453 98.855C174.188 99.1402 173.829 99.3004 173.454 99.3004C173.21 99.2988 172.972 99.2288 172.761 99.0974Z" fill="#000066"/>
<path d="M170.702 109.497C170.359 109.127 170.097 108.68 169.932 108.189C169.767 107.698 169.705 107.174 169.749 106.653C169.793 106.133 169.942 105.63 170.187 105.179C170.431 104.728 170.765 104.34 171.164 104.042L165.875 75.7926L171.715 77.8092L175.949 105.133C176.369 105.888 176.518 106.781 176.366 107.645C176.215 108.509 175.774 109.284 175.127 109.821C174.481 110.359 173.673 110.623 172.857 110.563C172.042 110.504 171.275 110.124 170.702 109.497Z" fill="#FFB6B6"/>
<path d="M160.511 38.0169L164.134 35.0753C164.134 35.0753 167.331 34.8318 167.897 41.0313C168.463 47.2307 172.008 71.0241 172.008 71.0241L177.553 98.6427L169.877 100.455L163.938 70.6492L157.993 50.0865L160.511 38.0169Z" fill="#E6E6E6"/>
<path d="M129.236 63.7324C130.369 63.7324 131.287 62.7448 131.287 61.5265C131.287 60.3082 130.369 59.3206 129.236 59.3206C128.103 59.3206 127.185 60.3082 127.185 61.5265C127.185 62.7448 128.103 63.7324 129.236 63.7324Z" fill="#000066"/>
<path d="M63.826 211.544L68.1008 211.544L70.1346 193.812L63.8253 193.812L63.826 211.544Z" fill="#FFB6B6"/>
<path d="M62.7356 210.043L63.9388 210.043L68.6364 207.988L71.1542 210.042C72.577 210.043 73.9419 210.65 74.948 211.732C75.9541 212.814 76.5194 214.282 76.5195 215.812V215.999L62.7359 216L62.7356 210.043Z" fill="#2F2E41"/>
<path d="M80.3916 208.647L84.5616 209.659L90.1773 192.845L84.0229 191.35L80.3916 208.647Z" fill="#FFB6B6"/>
<path d="M79.6355 206.924L80.8092 207.209L85.8122 206.318L87.8474 208.918L87.8477 208.918C89.2356 209.256 90.4421 210.172 91.2019 211.466C91.9617 212.759 92.2125 214.325 91.8991 215.817L91.8607 216L78.4155 212.735L79.6355 206.924Z" fill="#2F2E41"/>
<path d="M56.0001 120.334L59.8657 166.909C59.8657 166.909 58.4173 194.871 63.091 204.711H69.8691L73.2251 164.356L73.6465 137.269L88.1782 160.121L78.9225 204.051L87.2648 204.853L102.284 157.179L85.7835 112.424L56.0001 120.334Z" fill="#2F2E41"/>
<path d="M60.0487 46.1628C65.5545 46.1628 70.0178 41.3629 70.0178 35.4419C70.0178 29.5209 65.5545 24.7209 60.0487 24.7209C54.5429 24.7209 50.0796 29.5209 50.0796 35.4419C50.0796 41.3629 54.5429 46.1628 60.0487 46.1628Z" fill="#FFB8B8"/>
<path d="M77.5736 56.3793L69.3951 52.6055L65.4137 48.0641L55.4677 49.7891L52.8288 54.6551L44.2863 63.1973L54.2948 111.864L53.9918 122.493C53.9918 122.493 60.3976 125.595 88.1782 118.454C88.5113 118.369 87.814 117.994 87.814 117.994L77.5736 56.3793Z" fill="#3F3D56"/>
<path d="M49.6824 41.5251C49.6129 41.4232 49.5441 41.3204 49.476 41.2167C49.4486 41.279 49.4268 41.3433 49.3955 41.4041L49.6824 41.5251Z" fill="#2F2E41"/>
<path d="M69.9653 27.5999C69.2989 26.0388 68.1107 24.8044 66.6369 24.1421C65.1761 23.5084 63.5436 23.51 62.0838 24.1464C60.7659 23.2509 59.3015 22.541 57.7593 22.4531C56.2172 22.3651 54.5866 22.9804 53.6363 24.3348C53.424 24.6923 53.183 25.0291 52.9159 25.3412C52.152 26.102 50.991 25.9923 49.9756 25.8367C50.4311 26.2565 50.8866 26.6762 51.3423 27.096C50.791 27.2509 50.2396 27.4058 49.6882 27.5607C50.3316 27.9803 50.975 28.3999 51.6183 28.8196C49.7506 30.0251 48.9017 32.6564 49.1259 35.0462C49.338 37.3088 50.3538 39.3778 51.568 41.2167C52.0524 40.1175 51.948 38.8021 51.94 37.5641C51.9317 36.2559 52.1469 34.7705 53.1216 34.0394C53.7791 33.5462 54.6246 33.5242 55.4175 33.5289C59.4169 33.5525 63.4119 33.8207 67.383 34.3322C67.9219 34.3573 68.4472 34.5212 68.915 34.8101C69.7931 35.4543 69.9642 36.784 70.0524 37.9504C70.5164 36.0244 70.7435 34.0413 70.7278 32.0517C70.7669 30.5267 70.5071 29.0099 69.9653 27.5999Z" fill="#2F2E41"/>
<path d="M73.069 152.983C81.7347 152.983 88.7597 145.429 88.7597 136.109C88.7597 126.79 81.7347 119.235 73.069 119.235C64.4033 119.235 57.3783 126.79 57.3783 136.109C57.3783 145.429 64.4033 152.983 73.069 152.983Z" fill="white"/>
<path d="M73.069 118.86C72.2625 118.861 71.4571 118.926 70.6596 119.055C70.2517 119.119 69.8543 119.202 69.4601 119.303C66.5655 120.021 63.9131 121.589 61.799 123.833C59.6849 126.077 58.1922 128.909 57.4874 132.012C56.7826 135.116 56.8935 138.369 57.8076 141.408C58.7218 144.448 60.4032 147.154 62.6644 149.226C62.9329 149.47 63.2048 149.706 63.4873 149.931C65.5229 151.563 67.8898 152.652 70.3933 153.109C72.8967 153.565 75.4651 153.375 77.8871 152.555C80.3091 151.735 82.5155 150.309 84.3246 148.393C86.1337 146.477 87.4939 144.126 88.2932 141.534C89.0924 138.942 89.308 136.184 88.9221 133.485C88.5361 130.786 87.5598 128.224 86.0733 126.01C84.5869 123.796 82.6328 121.994 80.372 120.751C78.1112 119.508 75.6082 118.86 73.069 118.86ZM73.069 152.608C69.8068 152.612 66.6294 151.491 64.0033 149.41C63.7174 149.185 63.442 148.952 63.1735 148.705C60.9705 146.706 59.3358 144.081 58.4571 141.129C57.5783 138.177 57.491 135.018 58.2052 132.015C58.9194 129.012 60.4061 126.287 62.4949 124.151C64.5837 122.015 67.1899 120.556 70.0147 119.94C70.4051 119.854 70.7956 119.787 71.1932 119.734C71.8155 119.651 72.442 119.61 73.069 119.61C77.138 119.61 81.0403 121.349 83.9175 124.443C86.7946 127.537 88.411 131.734 88.411 136.109C88.411 140.485 86.7946 144.682 83.9175 147.776C81.0403 150.87 77.138 152.608 73.069 152.608Z" fill="#3F3D56"/>
<path d="M65.3729 132.735H80.765C81.3289 132.735 81.786 132.243 81.786 131.637V131.583C81.786 130.976 81.3289 130.485 80.765 130.485H65.3729C64.809 130.485 64.3519 130.976 64.3519 131.583V131.637C64.3519 132.243 64.809 132.735 65.3729 132.735Z" fill="#000066"/>
<path d="M65.3729 137.234H80.765C81.3289 137.234 81.786 136.743 81.786 136.136V136.082C81.786 135.476 81.3289 134.985 80.765 134.985H65.3729C64.809 134.985 64.3519 135.476 64.3519 136.082V136.136C64.3519 136.743 64.809 137.234 65.3729 137.234Z" fill="#000066"/>
<path d="M65.3729 141.734H80.765C81.3289 141.734 81.786 141.243 81.786 140.636V140.582C81.786 139.976 81.3289 139.484 80.765 139.484H65.3729C64.809 139.484 64.3519 139.976 64.3519 140.582V140.636C64.3519 141.243 64.809 141.734 65.3729 141.734Z" fill="#000066"/>
<path d="M248.613 210.972L244.131 210.971L241.998 192.378L248.614 192.379L248.613 210.972Z" fill="#9E616A"/>
<path d="M227.407 210.972L222.925 210.971L220.793 192.378L227.408 192.379L227.407 210.972Z" fill="#9E616A"/>
<path d="M227.565 216L213.782 215.999V215.812C213.782 214.282 214.347 212.814 215.353 211.732C216.359 210.65 217.724 210.043 219.147 210.042H219.147L221.665 207.988L226.362 210.043L227.566 210.043L227.565 216Z" fill="#2F2E41"/>
<path d="M249.346 216L235.562 215.999V215.812C235.562 214.282 236.128 212.814 237.134 211.732C238.14 210.65 239.505 210.043 240.927 210.042H240.928L243.445 207.988L248.143 210.043L249.346 210.043L249.346 216Z" fill="#2F2E41"/>
<path d="M223.011 100.932L216.199 145.54L218.052 152.188L215.62 156.896L219.192 198.241L217.742 201.675L221.794 204.362H230.038L230.476 166.931L232.513 161.436V158.407L236.659 135.583L237.422 167.547L238.628 173.051L237.615 176.97L238.938 179.716L242.454 205.178H251.699L250.984 199.254C251.79 198.816 252.437 198.102 252.824 197.225C253.21 196.348 253.315 195.357 253.122 194.409L252.592 191.813L253.798 184.136L255.995 141.306L255.376 106.748L244.561 97.8547L223.011 100.932Z" fill="#2F2E41"/>
<path d="M238.628 43.6497C243.372 43.6497 247.217 39.5141 247.217 34.4125C247.217 29.311 243.372 25.1754 238.628 25.1754C233.884 25.1754 230.038 29.311 230.038 34.4125C230.038 39.5141 233.884 43.6497 238.628 43.6497Z" fill="#9E616A"/>
<path d="M219.861 118.634C220.235 118.219 220.519 117.72 220.695 117.174C220.87 116.627 220.932 116.046 220.876 115.471C220.82 114.896 220.647 114.342 220.37 113.846C220.093 113.351 219.718 112.927 219.272 112.604L222.612 99.0208L216.177 101.348L213.992 113.891C213.538 114.732 213.386 115.724 213.566 116.678C213.745 117.631 214.244 118.481 214.968 119.066C215.691 119.65 216.589 119.929 217.491 119.85C218.393 119.77 219.236 119.338 219.861 118.634Z" fill="#9E616A"/>
<path d="M223.376 53.4165L221.995 53.1083L220.817 53.8097C220.817 53.8097 217.526 58.528 217.526 62.853C217.526 67.1781 213.505 108.856 213.505 108.856L220.817 112.395L226.667 79.7601L223.376 53.4165Z" fill="#E6E6E6"/>
<path d="M246.15 27.64C246.15 27.64 248.396 23.0215 243.454 22.6016C243.454 22.6016 239.24 18.4912 234.946 21.8502C234.946 21.8502 232.603 21.8502 231.322 24.7009C231.322 24.7009 229.48 23.9495 229.075 25.9606C229.075 25.9606 227.727 30.1593 229.075 33.9381C230.423 37.7169 230.871 38.1368 230.871 38.1368C230.871 38.1368 228.656 30.2143 234.048 29.7944C239.44 29.3745 245.474 25.7506 245.923 30.3692C246.373 34.9877 247.049 36.1257 247.049 36.1257C247.049 36.1257 251.317 29.5294 246.15 27.64Z" fill="#2F2E41"/>
<path d="M277.526 156.896C276.878 156.897 276.252 156.64 275.769 156.175L249.775 131.291C249.251 130.788 248.934 130.083 248.893 129.329C248.853 128.575 249.092 127.835 249.558 127.271L266.21 107.153C266.677 106.589 267.333 106.248 268.034 106.205C268.735 106.161 269.423 106.418 269.948 106.919L295.943 131.804C296.467 132.306 296.785 133.011 296.825 133.765C296.866 134.519 296.627 135.259 296.16 135.823L279.508 155.941C279.277 156.221 278.997 156.449 278.684 156.612C278.371 156.775 278.031 156.87 277.683 156.891C277.631 156.894 277.578 156.896 277.526 156.896Z" fill="white"/>
<path d="M277.526 157.079C276.836 157.08 276.17 156.807 275.656 156.312L249.662 131.428C249.104 130.893 248.767 130.142 248.724 129.34C248.68 128.537 248.934 127.749 249.431 127.149L266.083 107.031C266.58 106.432 267.278 106.069 268.024 106.022C268.77 105.976 269.503 106.249 270.061 106.782L296.056 131.667C296.614 132.201 296.952 132.952 296.995 133.754C297.038 134.557 296.784 135.345 296.287 135.945L279.635 156.063C279.389 156.361 279.091 156.604 278.758 156.777C278.425 156.951 278.063 157.052 277.693 157.074C277.637 157.077 277.582 157.079 277.526 157.079ZM268.189 106.749C267.887 106.748 267.589 106.816 267.313 106.949C267.038 107.081 266.792 107.275 266.591 107.518L249.939 127.635C249.563 128.091 249.37 128.689 249.403 129.297C249.436 129.905 249.691 130.475 250.114 130.881L276.109 155.765C276.318 155.966 276.563 156.12 276.828 156.219C277.093 156.318 277.373 156.36 277.654 156.343C277.934 156.325 278.208 156.248 278.461 156.117C278.713 155.985 278.94 155.802 279.126 155.576L295.778 135.458C296.155 135.003 296.349 134.405 296.316 133.797C296.283 133.188 296.026 132.619 295.603 132.214L269.609 107.329C269.218 106.954 268.712 106.748 268.189 106.749Z" fill="#3F3D56"/>
<path d="M286.952 137.843C286.672 137.844 286.401 137.733 286.191 137.532L265.787 117.999C265.674 117.891 265.582 117.761 265.516 117.615C265.45 117.469 265.411 117.311 265.402 117.149C265.393 116.987 265.414 116.825 265.463 116.672C265.513 116.519 265.59 116.377 265.69 116.256C265.79 116.135 265.912 116.037 266.047 115.966C266.183 115.895 266.331 115.854 266.481 115.845C266.632 115.836 266.782 115.859 266.925 115.913C267.067 115.966 267.198 116.05 267.31 116.158L287.715 135.691C287.888 135.857 288.011 136.076 288.066 136.319C288.121 136.562 288.107 136.816 288.024 137.05C287.941 137.283 287.794 137.484 287.603 137.626C287.412 137.768 287.185 137.843 286.952 137.843Z" fill="#000066"/>
<path d="M283.06 142.545C282.78 142.545 282.508 142.434 282.299 142.234L261.895 122.7C261.782 122.593 261.691 122.462 261.625 122.317C261.56 122.171 261.521 122.013 261.513 121.851C261.504 121.69 261.525 121.528 261.574 121.375C261.624 121.223 261.701 121.082 261.801 120.961C261.901 120.84 262.022 120.742 262.157 120.671C262.293 120.601 262.44 120.56 262.59 120.55C262.74 120.541 262.891 120.563 263.033 120.616C263.175 120.67 263.306 120.752 263.418 120.86L283.823 140.393C283.996 140.559 284.119 140.778 284.174 141.021C284.229 141.264 284.215 141.518 284.132 141.752C284.049 141.985 283.902 142.186 283.711 142.328C283.519 142.469 283.293 142.545 283.06 142.545Z" fill="#000066"/>
<path d="M279.168 147.247C278.887 147.248 278.616 147.137 278.407 146.936L258.002 127.403C257.89 127.295 257.798 127.165 257.732 127.019C257.667 126.873 257.628 126.715 257.619 126.554C257.611 126.392 257.631 126.23 257.681 126.077C257.73 125.924 257.807 125.783 257.907 125.662C258.008 125.541 258.129 125.443 258.264 125.372C258.4 125.302 258.547 125.261 258.697 125.251C258.848 125.242 258.998 125.265 259.141 125.318C259.283 125.371 259.414 125.454 259.526 125.562L279.931 145.095C280.104 145.261 280.227 145.48 280.282 145.723C280.337 145.966 280.322 146.221 280.24 146.454C280.157 146.687 280.01 146.888 279.819 147.03C279.628 147.172 279.401 147.248 279.168 147.247Z" fill="#000066"/>
<path d="M255.834 119.436C255.572 118.931 255.416 118.37 255.378 117.794C255.339 117.217 255.418 116.639 255.61 116.099C255.802 115.559 256.102 115.071 256.488 114.669C256.874 114.267 257.337 113.96 257.845 113.772L257.868 99.7214L263.529 103.751L262.64 116.476C262.878 117.415 262.788 118.415 262.386 119.287C261.984 120.159 261.298 120.842 260.459 121.207C259.621 121.572 258.686 121.593 257.834 121.266C256.981 120.94 256.27 120.289 255.834 119.436Z" fill="#9E616A"/>
<path d="M256.357 57.2668L258.887 54.645L260.745 56.0872C260.745 56.0872 262.573 58.4464 264.035 65.5237C265.498 72.6011 264.035 111.527 264.035 111.527L255.992 110.347L257.089 89.9014L253.798 72.6011L256.357 57.2668Z" fill="#E6E6E6"/>
<path d="M260.092 55.2846L251.571 50.9071L245.785 45.1362L235.235 45.0513L231.832 49.8091L222.847 53.0913L224.345 86.408L223.324 88.97C223.324 88.97 224.035 89.661 224.36 90.0475C224.685 90.4339 223.911 93.6695 223.911 93.6695L223.475 97.1896L224.685 98.1197L223.112 100.119L222.721 103.27C222.721 103.27 250.19 95.9274 255.38 108.091C255.655 108.733 254.979 102.453 254.979 102.453L254.304 97.8548L254.974 93.7279L255.995 92.6299L254.283 90.7884L255.38 82.0508L260.092 55.2846Z" fill="#3F3D56"/>
<path d="M66.8429 129.145C67.0543 128.568 67.1455 127.947 67.11 127.328C67.0744 126.708 66.913 126.105 66.6371 125.56C66.3612 125.015 65.9775 124.541 65.513 124.173C65.0486 123.805 64.5147 123.55 63.9489 123.428L62.0559 108.479L56.5674 113.639L59.2064 127.043C59.0781 128.079 59.3075 129.129 59.8512 129.995C60.3949 130.861 61.2151 131.483 62.1564 131.742C63.0977 132.001 64.0947 131.88 64.9584 131.401C65.8222 130.922 66.4927 130.12 66.8429 129.145Z" fill="#FFB8B8"/>
<path d="M45.3395 62.924L43.8518 63.2304L42.9526 64.4479C42.9526 64.4479 41.4978 70.5842 43.155 74.8726C44.8122 79.1609 56.7939 122.267 56.7939 122.267L65.3999 122.535L58.6959 87.5857L45.3395 62.924Z" fill="#3F3D56"/>
<path d="M79.267 126.952C78.8705 126.501 78.5709 125.962 78.3891 125.373C78.2073 124.784 78.1479 124.159 78.2149 123.543C78.2819 122.927 78.4738 122.333 78.777 121.805C79.0803 121.277 79.4875 120.827 79.97 120.487L76.5437 105.857L83.4253 108.444L85.624 121.94C86.1021 122.849 86.2534 123.916 86.0492 124.938C85.8449 125.959 85.2993 126.865 84.5157 127.483C83.7322 128.1 82.7651 128.388 81.7977 128.29C80.8303 128.192 79.9299 127.716 79.267 126.952Z" fill="#FFB8B8"/>
<path d="M76.2604 56.8841L77.7471 56.572L79.0036 57.3411C79.0036 57.3411 82.4809 62.4516 82.43 67.0952C82.3791 71.7388 86.2068 116.541 86.2068 116.541L78.3143 120.241L72.4176 85.1231L76.2604 56.8841Z" fill="#3F3D56"/>
</g>
<defs>
<clipPath id="clip0_211_2332">
<rect width="297" height="216" fill="white"/>
</clipPath>
</defs>
</svg>
